<?xml version="1.0" encoding="utf-8"?>
<!-- Generator: Adobe Illustrator 24.3.0, SVG Export Plug-In . SVG Version: 6.00 Build 0)  -->
<svg version="1.1" id="Layer_1" xmlns="http://www.w3.org/2000/svg" xmlns:xlink="http://www.w3.org/1999/xlink" x="0px" y="0px"
	 viewBox="0 0 130 50" style="enable-background:new 0 0 130 50;" xml:space="preserve">
<style type="text/css">
	.st0{fill:none;stroke:#734A0F;stroke-miterlimit:10;}
	.st1{fill:#734A0F;}
	.st2{font-family:'Big Caslon Black Italic';}
	.st3{font-size:14.0002px;}
</style>
<polygon class="st0" points="70.4,42.9 74,42.9 77.5,42.7 81,42.5 84.5,42.3 87.8,42 91.2,41.6 94.3,41.2 97.3,40.8 100.2,40.4 
	103,39.8 105.7,39.3 108.2,38.7 110.4,38.1 112.5,37.4 114.5,36.7 116.2,36 117.8,35.2 119.2,34.4 120.4,33.6 121.4,32.7 
	122.2,31.9 122.9,31 123.3,30.1 123.7,29.2 123.7,28.3 123.5,27.4 123.2,26.4 122.8,25.5 122.2,24.5 121.4,23.6 120.5,22.6 
	119.4,21.7 118.2,20.8 116.9,19.9 115.5,19 114,18.1 112.3,17.2 110.7,16.4 108.8,15.6 106.9,14.8 105,14 102.9,13.3 100.8,12.6 
	98.8,11.9 96.5,11.3 94.3,10.7 92.2,10.2 89.8,9.6 87.5,9.2 85.2,8.7 82.8,8.4 80.5,8 78.2,7.7 75.8,7.5 73.3,7.3 71,7.1 68.7,7 
	66.2,7 63.8,7 61.4,7 59,7.1 56.7,7.3 54.2,7.5 51.8,7.7 49.4,8 47.2,8.4 44.8,8.7 42.4,9.2 40.2,9.6 37.8,10.2 35.7,10.7 
	33.4,11.3 31.2,11.9 29.2,12.6 27,13.3 25,14 23,14.8 21.2,15.6 19.3,16.4 17.7,17.2 15.9,18.1 14.4,19 13,19.9 11.8,20.8 
	10.5,21.7 9.4,22.6 8.5,23.6 7.8,24.5 7.2,25.5 6.8,26.4 6.4,27.4 6.3,28.3 6.4,29.2 6.7,30.1 7,31 7.8,31.9 8.5,32.7 9.5,33.6 
	10.8,34.4 12.2,35.2 13.8,36 15.4,36.7 17.4,37.4 19.5,38.1 21.8,38.7 24.3,39.3 26.9,39.8 29.8,40.4 32.7,40.8 35.7,41.2 
	38.8,41.6 42.2,42 45.4,42.3 48.9,42.5 52.4,42.7 55.9,42.9 59.5,42.9 63.2,43 66.8,43 "/>
<text transform="matrix(1 0 0 1 28.213 30.8172)" class="st1 st2 st3">Experimental</text>
</svg>
