<svg xmlns="http://www.w3.org/2000/svg" width="1866.667" height="1866.667" version="1" viewBox="0 0 1400 1400"><path d="M636.6 137.7c-.2.2-13.3 1.3-21.3 1.8-2.8.2-5.5.5-6 .8-.4.2-3 .8-5.6 1.1-2.7.4-5.9 1-7 1.2-1.2.3-3.3.7-4.7 1-14.2 2.8-31.6 9.6-44.8 17.3-10.3 6-22.1 16.2-31.3 27.2-5 5.9-14.9 20.3-14.9 21.7 0 .4-1.1 2.3-2.5 4.2-1.3 1.8-2.2 3.7-2 4.1.3.4.1 1-.4 1.4-2 1.2-10.6 21.8-16.1 38.5-2.8 8.5-10.2 36.5-11.4 43-.2 1.4-.5 2.5-.6 2.5-.1 0-.3.9-.5 2-.1 1.1-.6 3.6-.9 5.5-1.2 6.2-3.5 19.4-4 22.5-1.6 9.7-2.6 16.6-3.1 21-.3 2.7-.8 6.1-1 7.5-.3 1.4-.8 5.2-1.1 8.5-.3 3.3-.8 7.3-1 9-.2 1.6-.6 5.2-.9 8-.3 2.7-.7 7-1 9.5-1.2 11.6-2.4 25.4-3.1 35.5-.2 3.8-.7 9.7-.9 13-.8 11.1-1.7 27-1.9 32.5-.1 3.1-.6 6.1-1 6.8-.4.7-.2 1.2.4 1.2.6 0 .8.4.5 1-.3.5-.8 6.2-1 12.7-.3 6.5-.7 18.1-1 25.8-1 25.9-1.6 60.8-2 101-.1 22-.4 40.4-.5 41-.1.5-.2 1.2-.1 1.5.6 1.7.7 8 .1 8-.4 0-.5 1.2-.3 2.7.6 3.8.5 14.1-.1 15.1-.2.4-.1 1.4.4 2.2.4.7.4 2.4-.1 3.7-.6 1.7-.6 2.2.2 1.7.8-.5.8-.1 0 1.3-.6 1.1-.8 2.3-.5 2.6.3.3.8 13.8 1 29.9.2 16.1.5 34 .8 39.8.7 15.1 1.7 29.7 2.2 35.5.3 2.7.7 7.2.9 10 .5 7.1 1.3 14 2.5 21 .5 3.3 1.2 7.3 1.4 9 .7 4.4 1.4 7.3 3.1 13.5.8 3 1.7 6.3 2 7.3 1 4.5 6.8 14.7 10.2 18.2 6.3 6.5 11 8 24.8 8 15.4 0 19.5-1.9 28.1-12.7 1.5-1.8 5.9-13.1 7.4-18.8 1.4-5.2 1.4-5 3-15 .6-4.1 1.5-9.3 1.9-11.5.4-2.2.7-5.9.7-8.3-.1-2.3.1-4.2.4-4.2.3 0 .6-1.2.6-2.8 0-1.5.4-7.7.8-13.7 1.2-18.1 1.5-24.8 2-51.4.3-13.9.7-25.5 1-25.8.2-.3.1-1.5-.4-2.8-.5-1.3-.7-2.5-.4-2.8.4-.4 1.1-54.4 1.7-147.9.2-21.6.3-22.1 4.5-21.3 8.4 1.6 16.6 9.2 21.9 20.3 1.9 4.1 3.6 8 3.7 8.6.1.6.4 1.5.8 2.1.5.8 1 2.9 2.4 9 .4 2 1.2 6.1 1.8 9.5.3 1.9.8 4.8 1.1 6.5 2 11 2.7 79.4 1.1 115-1 23-1.5 34-2.1 44.8-.3 5.6-.8 14.7-1 20.2-.3 5.5-.8 14.5-1 20-.3 5.5-.8 13.4-1 17.5-.2 4.1-.6 12.9-1 19.5-2.7 51-3.4 91.1-2 112 1.1 16.6 2.2 27.7 3.1 31.5.3 1.4.8 3.8 1 5.5.3 1.6.9 5 1.5 7.5.5 2.5 1.2 5.5 1.4 6.8 5 23.3 16.5 49.5 28.9 65.7 9.2 12 26.8 26.4 38.4 31.5 13.2 5.9 12.3 5.6 23.7 8.4 6.9 1.7 12.3 2.6 18 3.1 5.5.5 25.2.6 29.5.1 9.1-1.1 13.9-1.9 19-3.2 3-.9 6.4-1.7 7.5-1.8 1.1-.1 3.7-1 5.9-1.9 2.1-.9 4.1-1.7 4.4-1.7 1.2 0 13.7-6.4 14-7.2.2-.4.8-.8 1.3-.8 3.2 0 26.9-20.3 26.9-23.1 0-.6.4-.8.9-.5.4.3 1.3-.6 1.9-1.9.7-1.4 1.6-2.5 2.2-2.5.5 0 1-.6 1-1.3 0-.6 1.2-2.6 2.6-4.2 1.4-1.7 3.5-4.8 4.6-7 1.1-2.2 2.6-4.7 3.2-5.5 3.7-4.6 18.7-42 16.9-42-.3 0-.1-.6.5-1.3.6-.7 1.4-2.8 1.7-4.7l.6-3.4-3.1 4c-4.4 5.4-19 19.4-20.5 19.4-.2 0-2.4 1.3-4.8 3-6.3 4.2-19.7 10.8-23.7 11.6-.8.2-2.3.7-3.5 1.3-2 1-16 4.5-22 5.6-1.6.2-4.1.7-5.5 1-1.4.3-6.5.7-11.3 1-4.9.2-9.1.5-9.3.8-.2.2-2.3.2-4.6.1-21.6-1.3-35.8-7.2-48.7-20.2-13.7-14.1-23-34.7-24.7-55.2-.6-7.2-.1-54.5.6-54.5 0 0 .3-4.5.5-10s.6-12.5.9-15.5c.3-3 .8-8.4 1.1-12 1-11.3 2.1-22.3 3-30 .7-5.3 1.7-14.1 2-17.5.6-5.6 1.5-13 2-16.3.3-1.8.7-5.4 1-8 .3-2.6.7-6.1 1-7.7.2-1.7.7-5.3 1-8 .4-2.8.9-6.1 1.1-7.5.2-1.4.6-4.8.9-7.5.6-6.5 1.5-14.4 2-17.5.2-1.4.7-5.2 1-8.5.3-3.3.7-7 .9-8.1.2-1.1.7-6.1 1.1-11 .4-4.9.8-10.5 1-12.4 1.8-18.7 2.5-61 1.1-75.5-.6-6.1-2.4-19.3-3.2-23-1.5-7.4-2.4-11.4-3.3-14.3-.5-1.8-1-3.5-1-3.7-.1-.3-.1-.6-.2-.8 0-.1-.2-.9-.4-1.7-1.7-7.7-10.9-29-16.3-38-1.2-1.9-2.5-4.2-2.9-5-.3-.8-.9-1.7-1.3-2-.3-.3-1.3-1.7-2.3-3.3-6.1-9.5-24.1-26.7-35.4-33.6-8.5-5.3-26.4-13.6-31.4-14.6-.8-.2-3.9-1-6.7-1.9-2.9-.8-5.4-1.5-5.7-1.6-.3 0-.6 0-.7-.1-.2 0-2-.2-4-.5-9.6-1-10.9-1.2-11.6-1.9-.4-.5 0-.6.9-.3 2.2.8 10.5-3.4 16.1-8.3 9.3-8 20.6-28.3 31.8-56.9 1.2-3 2.6-6.4 3-7.5.8-2 2.2-5.5 2.5-6.5.1-.3.7-1.7 1.3-3.3 1.6-3.8 2.9-7 3.2-8.2.4-1.2 5.6-13.7 7.6-18.2.8-1.7 1.4-3.4 1.4-3.7 0-1.5 15.3-31.6 16.1-31.6.5 0 .9-.7.9-1.5 0-1.2 6-10.6 10.5-16.3 4.8-6.3 16.1-17.1 22.1-21.2 4.1-2.8 7.4-4.8 7.4-4.4 0 .3.6.2 1.3-.4 1.5-1.3 12.4-5.5 15.2-5.9 9.5-1.3 24.9-1.8 28.5-.8.8.2 3.5.6 6 .9 14.2 1.8 32.8 9.9 47.8 20.9 5.3 3.9 22.2 20 22.2 21.3 0 .3 1.8 2.8 4 5.4 2.2 2.6 4 5.1 4 5.5 0 .3 1.1 2.1 2.4 3.8 4.4 5.8 15.7 31.2 16.2 36.2 0 .5.6 2.8 1.2 5 1.4 5 2.3 11.5 2.4 16.6 0 3.9.4 4.5 2.4 3.1 1.6-1.1 5.1-7.9 5.9-11.7.2-.6.7-2.8 1.3-5 .6-2.2 1.4-6 1.7-8.5.3-2.5.8-6.1 1.1-8 .8-4.9.8-36.2 0-44-.9-9.2-1.4-13.5-1.6-13.5-.2 0-.6-2-1.3-6-.7-4.1-1.8-8.7-2.4-10.5-.4-.8-.8-2.8-1-4.5-.3-1.6-1-3.3-1.6-3.7-.7-.4-.9-.8-.5-.8 1.4 0-6.6-18.1-13.1-29.6-5.6-10.1-27-32.4-30.9-32.4-.6 0-1.2-.4-1.4-.9-.4-1.1-18.6-11.1-20.3-11.1-.6 0-2.9-.8-5.1-1.9-3.9-1.8-18.5-5.5-25.9-6.6-10.9-1.5-13.9-1.7-26-1.6-13.9 0-19.9.4-28.5 2.1-3 .6-6.6 1.4-8 1.6-4.9 1-17.6 5.7-24 8.9-14.3 7.3-28.9 19.7-39 33.3-2.7 3.7-5.3 7.1-5.8 7.7-4.3 5.3-16.7 30.8-22.3 45.8-1.7 4.5-3.7 10-4.5 12.1-1.7 4.4-12.5 36.5-12.8 38.1-.2.5-1.1 3.7-2.1 7s-2 6.4-2.1 7c-.1.5-.9 2.9-1.8 5.2-.8 2.4-1.3 4.3-1.1 4.3.2 0-.3 1.6-1.1 3.5s-1.4 3.8-1.4 4.2c0 .5-.6 2.6-1.2 4.8-.6 2.2-1.1 4.5-.9 5.2.1.6-.3 1.4-.9 1.8-1.2.8-1.2 2.1-1-21 .1-20.1.7-41.7 1.5-52.5 1-13.4 1.5-19.6 2-23.5.2-2.2.7-6 1-8.5.6-5.3 3.5-22.7 5-29.9 1.4-6.9 5.9-23 8.6-30.7 9.5-27 22.9-46.2 41.3-59.6 2.8-2.1 5.7-3.8 6.4-3.8.6 0 1.2-.4 1.2-.9s1-1.2 2.3-1.6c2.8-.9 2.4-.8 7.2-2.9 8.3-3.6 21.7-6.1 39-7.1 16.3-.9 25.8-11 24.2-25.8-.6-5.3-2.6-10.7-3.9-10.7-.5 0-.8-.6-.8-1.4 0-1.5-8.4-7.5-10.9-7.8-2.3-.2-29.2-.3-29.5-.1z"/><path d="M726.1 139.2c-4.6 2.3-9.2 7.3-9.9 11-1.2 5.5-.5 14.4 1.5 18.8 2.5 5.6 4.8 8.2 9.3 10.5 5.2 2.8 8 3.3 22.5 3.9 15.9.8 21.3 1.4 29 3.5 2.2.6 4.3 1.1 4.7 1.1 3.8.4 25.8 10.7 25.8 12.1 0 .5.5.9 1.1.9 1.7 0 13.4 10.2 18.4 16.1 2.3 2.7 9.3 12.2 11.3 15.4 4.4 7 15.5 32 16.7 37.5.2.8 1 3.5 1.9 6 .8 2.5 2.7 9.4 4.1 15.5 1.4 6 2.9 12.1 3.2 13.5.3 1.4.7 3.4.9 4.5.1 1.1.5 3.1.8 4.5.9 3.6 1.5 6.9 2.1 11.7.3 2.4.8 6.2 1.1 8.5.3 2.4.7 5.6.9 7.3.2 1.6.7 4.8 1 7 .4 2.2.8 6 1 8.5.2 2.5.6 7 .9 10 1.1 10.8 1.7 17.6 2.2 25.5.2 4.4.6 11.6.9 16 1.1 18 1.6 35.6 1.9 64.7.2 16.9.7 31.1 1 31.7.4.5.3 1.2-.2 1.5-.9.5-.9 4.7.1 6.3.4.7.4 1.4-.1 1.7-.9.5-.9 4.7.1 6.3.4.7.4 1.4 0 1.6-.7.4-.9 13.2-.3 14.7.1.3.1.9 0 1.5-.4 1.8-.2 10.3.3 11.2.2.4.1 1.7-.3 2.7-.3 1.1-.3 3.7 0 5.8.4 2.1.4 4 .1 4.2-.9.6-.7 4.8.2 6.3.4.7.4 1.4 0 1.6-.7.5-.9 11.5-.3 14.2.1.5.2 1.2 0 1.5-.5 1.5-.4 11.3.2 11.6.4.3.4 1.4-.1 2.6-.4 1.2-.5 3.9-.1 6s.4 4 .1 4.2c-.9.6-.7 4.8.2 6.3.4.7.4 1.4 0 1.6-.7.4-.9 13.2-.3 14.7.1.3.1.9 0 1.5-.4 1.8-.2 10.3.3 11.2.2.4.1 1.7-.3 2.7-.3 1.1-.3 3.7 0 5.8.4 2.1.4 4 .1 4.2-.9.6-.7 4.8.2 6.3.4.7.4 1.4 0 1.6-.7.5-.9 11.5-.3 14.2.1.5.2 1.2 0 1.5-.5 1.5-.4 11.3.2 11.6.4.3.4 1.4-.1 2.6-.4 1.2-.5 3.9-.1 6s.4 4 .1 4.2c-.9.6-.7 4.8.2 6.3.4.7.4 1.4 0 1.6-.7.4-.9 13.2-.3 14.7.1.3.1.9 0 1.5-.4 1.8-.2 10.3.3 11.2.2.4.1 1.7-.3 2.7-.3 1.1-.3 3.7 0 5.8.4 2.1.4 4 .1 4.2-.9.6-.7 4.8.2 6.3.4.7.4 1.4-.1 1.7-.9.5-.9 4.7.1 6.3.4.7.4 1.4-.1 1.7-.9.5-.9 4.7.1 6.3.4.7.4 1.4 0 1.6-.7.4-.9 13.2-.3 14.7.1.3.1.9 0 1.5-.1.5-.2 3.2-.1 6 .1 2.7.2 5.7.1 6.5-.1 6.7.1 10.4.6 11.1.3.5.2.9-.3.9-.4 0-.8 2.8-.9 6.3-.1 9.7-1 14.6-4 21.4-3.3 7.4-4.9 10.3-5.8 10.3-.5 0-.7.3-.3.6 1.2 1.3-12.7 15.8-19.3 20-2.5 1.6-4.7 3.1-5 3.5-.6.7-10 5-14.5 6.7-6.2 2.3-12.1 3.4-18.5 3.4-5.4 0-7.4-.4-10.7-2.5-4.3-2.8-10.3-9.4-10.3-11.4 0-.7-.4-1.3-.9-1.3s-1.2-1.2-1.6-2.8c-.3-1.5-1.3-4.1-2-5.7-1.1-2.6-1.9-5-3-10-1.7-7.1-3.7-23.8-3.6-31 0-7.2 1.1-36.4 1.5-40.5.3-3 .8-8.7 1.2-12.5 1-11.4 1.8-17.8 2.9-25.5.3-2 .7-5.5 1-7.6.7-6.5 1.5-12.5 2.6-19.4.6-3.6 1.2-7.6 1.4-9 1.3-9 2.6-17.9 3-20 .2-1.4.7-4.9 1-7.9.4-3 .8-6.3 1.1-7.4.2-1.1.6-4.3.9-7.1.3-2.8.8-6.2 1-7.6.2-1.4.7-5.2 1-8.5.4-3.3.8-7.4 1-9 4.8-41.3 6.2-97.8 3.1-128-.9-8.7-1.9-15.4-2.7-18.5-.5-2-1.1-5.1-1.3-7-.3-1.9-.7-4.2-1-5-.3-.8-.8-2.6-1-4-2.5-13.4-10.9-34.3-17.8-44.2-1-1.4-1.8-2.9-1.8-3.2 0-.6-2.6-3.8-9-10.9-3.8-4.2-15.1-12.7-16.9-12.7-.6 0-1.1-.5-1.1-1 0-.6-.8-1-1.8-1s-2.2-.4-2.7-.9c-.6-.5-4.9-1.9-9.7-3-12.2-3.1-24.8-3.2-34.3-.3-4.2 1.3-10.7 4.5-12.3 5.9-.7.7-1.7 1.3-2.1 1.3-1.2 0-11.4 10.1-14.6 14.5-1.7 2.2-3.2 4.2-3.5 4.5-1.2 1-7 11.1-7 12 0 .6-.4 1-1 1-.5 0-1 .8-1 1.8s-.4 2.2-.9 2.8c-.5.5-4.9 8.8-9.6 18.3-7.1 14.1-9.8 18.5-14.1 22.8-4.5 4.5-5 5.3-3.1 5.4 2.9 0 8.3.6 12.7 1.3 24.7 4.1 45.2 15 58.2 30.9 3.8 4.7 12.5 20.5 13.2 24.1.2.6.8 2.9 1.4 5.1.6 2.2 1.4 5.8 1.8 8 .8 4.3 1 60.5.3 69.2-.3 2.9-.1 5.3.4 5.3.4 0 .5.5.1 1.2s-.9 3.3-1 5.8c-.3 7.6-1.4 24.2-2 30-.2 3-.7 8-.9 11-.2 3-.7 7.5-.9 10-.3 2.5-.8 7-1.1 10-.4 3-.9 7.5-1.1 10-.3 2.5-.7 6.1-.9 8-.2 1.9-.4 3.5-.5 3.5-.1 0-.3 1.3-.5 3-.1 1.6-.6 5.2-1 8-.5 2.7-.9 5.9-1 7-.2 1.1-.6 4-.9 6.5-.4 2.5-1.1 7.2-1.6 10.5s-1.2 8-1.6 10.5c-.4 2.5-.8 5.4-1 6.5-.1 1.1-.3 2.2-.4 2.5-.1.3-.2.8-.1 1.2 0 .4-.4 3-.9 5.7-.5 2.8-1.2 7.2-1.5 9.8-.4 2.6-.8 5.5-1 6.3-.4 1.3-.7 3.6-2 14-.2 1.4-.6 4.5-1 7s-.8 5.4-.9 6.5c-.2 1.1-.7 5.1-1.1 9-.5 3.8-1 7.8-1.1 8.7-.1 1-.2 1.9-.3 2-.1.2-.4 3.2-.6 6.8-.3 3.6-.7 8.5-1 11-1.8 14.2-2.5 57.8-1.2 68.5 1.9 15.5 8.3 30.6 16.9 39.5 7.2 7.4 11.9 10.1 26.8 14.8 1.4.5 8.6.7 16 .6 13.9-.2 19.5-.8 28-2.8 1.4-.3 3.6-.8 5-1 8.8-1.5 42.8-15.3 43.8-17.8.2-.4.9-.8 1.5-.8.7 0 4.6-2.4 8.8-5.3 22-15.1 33.1-27.8 40.7-46.7.7-1.8.9 1.4.7 11.5-.5 17.6-1 26.1-3.1 44.5-.2 2.5-.7 6.3-.9 8.6-.2 2.2-.7 5.6-1.1 7.5-.3 1.9-.8 4.5-1 5.9-.2 1.4-.5 3.6-.8 5-.2 1.4-.7 4.3-1.1 6.5-.4 2.2-.9 4.9-1 6-2 12.7-12.3 48.7-16.5 58-.5 1.1-2.1 4.8-3.5 8.3-2.9 7.2-11.8 24.4-14.6 28.4-1.1 1.4-1.9 3.1-1.9 3.6 0 .6-.3 1.2-.7 1.4-.5.1-2.8 3.2-5.2 6.7-2.4 3.6-5.3 7.6-6.5 9-3.9 4.9-22.3 22.8-25.2 24.7-1.6 1-3.3 2.4-3.7 3.1-.4.7-1.2 1.3-1.7 1.3s-3.5 1.7-6.7 3.8c-3.2 2.2-8.9 5.4-12.7 7.2-7.1 3.3-25.2 10.1-26.4 9.8-.4-.1-2.5.4-4.8 1-2.2.7-5.6 1.4-7.5 1.6-1.9.3-3.4.5-3.4.6 0 .2-2 .5-12.5 1.5-11.8 1.2-35.2.7-43-1-1.4-.3-4.1-.8-6-1.1-6.1-.9-18.2-4.4-26-7.5-7-2.8-21.9-10.4-23-11.8-.3-.3-2.7-2.2-5.5-4.1-7-4.8-10.8-8.3-24.7-23.1-1-1.1-1.8-2.2-1.8-2.5 0-.4-1.4-2.3-3-4.3-4.4-5.2-4.1-4.8-9.5-13.6-6.2-10.2-19.2-37.5-17.8-37.5.3 0 0-.6-.6-1.4-1.7-2-11.2-31.6-10.5-32.7.3-.5 0-.9-.7-.9s-1-.2-.7-.6c.3-.3-.1-2.6-.9-5.2s-1.7-5.8-1.9-7.2c-.3-1.4-1.2-5.2-2.1-8.5-.8-3.3-1.7-7.1-1.9-8.5-.3-1.4-.9-4.1-1.4-6-1.2-4.7-2-8.7-2.6-13.5-.3-2.1-.8-4.3-1-4.7-.3-.5-.7-2.1-1-3.6-1.2-6.7-3.5-17.6-4-18.4-.3-.4-.8-2-1-3.5-.6-3.4-4.9-11.1-8.2-14.5-4.1-4.4-12.2-6.9-23.2-7.2-13.4-.3-21 2.3-27.4 9.5-3 3.3-8.2 13.7-9 17.9-.3 1.4-.8 3.6-1.1 5-.6 2.6-1.6 15.9-1.6 22-.1 10.7 1.5 41.8 2.6 51 .2 1.9.7 6.2 1 9.5.3 3.3.8 7.1 1.1 8.5.2 1.4.7 4.3.9 6.5.3 2.2.7 4.7 1 5.5.2.8.7 3.5 1 5.9.4 2.4 1.8 8.7 3.1 14 1.4 5.3 2.7 10.5 2.9 11.5.8 3.4 5.6 18 7.1 21.3.8 1.7 1.4 3.3 1.4 3.6 0 .3.5 1.8 1.1 3.4.6 1.5 1.1 3 1.2 3.3.1.3 3 6.1 6.4 12.8 6.2 12.1 16.1 28 18.9 30.3.8.6 1.4 1.5 1.4 2 0 2.2 24.1 26.4 31.3 31.4 18.6 12.9 19.5 13.4 31.7 19.5 10 5 24.7 11 28 11.5.3.1 3.8 1.1 7.9 2.4 6.6 2 17.3 4.7 22.6 5.6 1.1.2 3.4.6 5 .9 1.7.4 5 .9 7.5 1.2 5.1.7 8.5 1.2 8.5 1.4 0 .1 5.5.7 17 1.6 11 1 54 1 65 .1 10.1-.9 12.1-1.1 18.5-2.1 2.5-.4 5.9-1 7.5-1.2 23.8-3.8 54.4-15.7 68.9-26.8 1.9-1.4 3.8-2.6 4.1-2.6.4 0 1.2-.6 1.9-1.3.7-.6 3.1-2.6 5.2-4.2 6.5-5.1 20.8-19.6 27.3-27.9 16.4-20.8 30.4-47.1 42.8-80.1 2.4-6.6 4.6-12.5 4.7-13 .7-2.6 4-13.5 5.3-17.5.8-2.5 1.6-5.2 1.8-6 .7-3.6 3.6-14.6 4.2-16 .3-.8.8-2.4 1-3.6.2-1.1 1.5-6.9 2.9-13 1.4-6 2.7-12.3 3-13.9.4-2.6 2-11.1 3.9-20.5.3-1.4.7-3.9 1-5.5.3-1.7.7-4.1 1-5.5.3-1.4.8-4.5 1.1-7 1-7.3 1.2-8.7 1.8-11.7.3-1.5.8-5.5 1.2-8.8.3-3.3.8-6.9 1-8 .4-2.1 1-6.3 2-15 .3-2.8.7-6.1.9-7.5.3-2.4.8-7.4 2-19 1.2-11.7 1.6-15.7 2-21.9.3-3.5.7-9.1 1-12.5.7-7.1 1.4-18.2 2-28.1.2-3.9.4-7 .5-7 .1 0 .4-7.7 1.5-30 1-21.9 1.6-43.6 1.9-67.7.2-13.6.7-25.1 1.1-25.7.3-.6.2-1.1-.3-1.1-.8 0-.7-10.3.2-12.6.3-.7.2-1.5-.1-1.8-.9-.9-1-5.6-.2-5.6.4 0 .3-1.6-.1-3.4-.4-1.9-.6-3.7-.3-4 .3-.2.4-2.9.3-5.8 0-2.9-.1-6-.1-6.8.1-6 0-10.9-.2-13-.2-1.4 0-3.7.4-5.3.4-1.5.4-2.7.1-2.7-.9 0-.8-7.3.2-8.8.4-.7.4-1.2-.1-1.2-.4 0-.9-15.6-.9-34.8-.2-36.3-1-79.5-1.9-106.7-.4-8.8-.8-21.6-1.1-28.5-.5-15.5-1-24.7-2-42-.4-7.4-.8-16.5-.8-20.2-.1-3.8-.3-6.8-.6-6.8s-.6-1.9-.7-4.3c-.2-6.4-1.2-19.6-1.7-25.2-1.1-9.7-1.8-17-2.2-21.3-.2-2.3-.6-6.1-.8-8.5-.2-2.3-.7-6.1-1-8.5-.3-2.3-.8-5.9-1.1-8-.5-3.5-1.3-9.8-2-14.9-.2-1.3-.6-4-.9-6-.4-2.1-.8-5.2-1.1-6.8-.3-2.7-1.2-7.7-3-17-.3-1.7-.8-4.1-1-5.5-.7-3.8-1.4-7-2.1-9.2-.3-1.1-.7-3-.9-4.1-.2-1.2-.6-3.1-.8-4.2-.3-1.1-1.2-4.7-2-8-.9-3.3-2-7.5-2.6-9.3-.5-1.8-1.1-3.6-1.2-4-.1-.4-.5-1.7-1-3s-.9-2.8-.9-3.3c0-1.1-6.4-18.7-8.7-23.9-3.7-8.3-9.6-19.6-10.7-20.2-.6-.4-.7-.8-.3-.8.8 0-7.9-13.2-11.7-17.8-4.1-5-14.1-14.8-18.6-18.2-2.5-1.9-4.6-3.8-4.8-4.2-.2-.5-.8-.8-1.4-.8-.5 0-2.4-1-4.1-2.2-1.8-1.3-3.4-2.3-3.7-2.4-.8-.1-12.4-5.8-13-6.4-.5-.5-1.9-.9-4.5-1.4-.5-.1-1.9-.7-3-1.3-1.1-.6-2.3-1.2-2.7-1.2-.4-.1-1.3-.3-2-.5-3.8-1.1-10.4-2.8-12-3.2-1-.2-2.6-.6-3.7-.8-1-.2-3.4-.7-5.2-1-1.9-.3-4.4-.8-5.6-1-1.2-.3-4.8-.7-8-1.1-3.3-.3-7-.8-8.4-1-4.6-.8-19.2-1.6-39.5-2-18.8-.3-20.4-.2-24.3 1.7z"/></svg>