<?xml version="1.0" encoding="utf-8"?>
<!-- Generator: Adobe Illustrator 24.3.0, SVG Export Plug-In . SVG Version: 6.00 Build 0)  -->
<svg version="1.1" id="Layer_1" xmlns="http://www.w3.org/2000/svg" xmlns:xlink="http://www.w3.org/1999/xlink" x="0px" y="0px"
	 viewBox="0 0 1768 1554" style="enable-background:new 0 0 1768 1554;" xml:space="preserve">
<style type="text/css">
	.st0{font-family:'Big Caslon Black';}
	.st1{font-size:14.0002px;}
	.st2{fill:none;stroke:#000000;stroke-miterlimit:10;}
	.st3{fill:#734A0F;}
	.st4{font-family:'Big Caslon Black Italic';}
	.st5{fill:none;stroke:#734A0F;stroke-miterlimit:10;}
	.st6{font-size:12px;}
	.st7{font-size:14px;}
	a text{fill:#2f1e06;}
	a:hover text{fill:red;}
</style>
<text transform="matrix(1 0 0 1 1381.543 820.0117)" class="st0 st1">media</text>
<text transform="matrix(1 0 0 1 1345.332 1197.9531)" class="st0 st1">community</text>
<text transform="matrix(1 0 0 1 488.2422 762.1133)" class="st0 st1">emotions</text>
<text transform="matrix(1 0 0 1 418.2148 870.9961)" class="st0 st1">visual</text>
<text transform="matrix(1 0 0 1 455.1191 870.9961)" class="st0 st1">art</text>
<text transform="matrix(1 0 0 1 389.7031 374.1992)" class="st0 st1">connection</text>
<text transform="matrix(1 0 0 1 268.9297 61.2188)" class="st0 st1">language</text>
<text transform="matrix(1 0 0 1 199.7891 904.0664)" class="st0 st1">identity</text>
<text transform="matrix(1 0 0 1 606.5859 634.3945)" class="st0 st1">poetic</text>
<text transform="matrix(1 0 0 1 644.2461 634.3945)" class="st0 st1">tech</text>
<text transform="matrix(1 0 0 1 1000.6875 1410.8945)" class="st0 st1">education</text>
<text transform="matrix(1 0 0 1 515.5078 1364.6133)" class="st0 st1">play</text>
<text transform="matrix(1 0 0 1 175.6055 1170.5312)" class="st0 st1">literature</text>
<text transform="matrix(1 0 0 1 1662.9219 962.8633)" class="st0 st1">music</text>
<text transform="matrix(1 0 0 1 1198.5195 665.9414)" class="st0 st1">fandom</text>
<text transform="matrix(1 0 0 1 805.0039 912.2383)" class="st0 st1">digital</text>
<text transform="matrix(1 0 0 1 844.2183 912.2383)" class="st0 st1">culture</text>
<polygon class="st2" points="1013.7,840.4 938.7,840.4 934.7,844.4 934.7,876.4 1009.7,876.4 1013.7,872.4 "/>
<line class="st2" x1="1009.7" y1="844.4" x2="934.7" y2="844.4"/>
<line class="st2" x1="1009.7" y1="844.4" x2="1009.7" y2="876.4"/>
<line class="st2" x1="1009.7" y1="844.4" x2="1013.7" y2="840.4"/>
<text transform="matrix(1 0 0 1 942.7266 864.0859)" class="st0 st1">Bluebirds</text>
<path class="st2" d="M934.5,872.6c-11,4.4-23.4,9.3-35.3,14.1"/>
<polygon points="900.3,890.1 889.7,890.5 897.7,883.5 "/>
<polygon class="st2" points="900.3,890.1 889.7,890.5 897.7,883.5 "/>
<path class="st2" d="M403.5,1041c0,33.4-27,60.4-60.4,60.4c-33.4,0-60.4-27-60.4-60.4c0-33.4,27-60.4,60.4-60.4
	C376.4,980.6,403.5,1007.6,403.5,1041"/>
<path class="st2" d="M407.5,1041c0,35.6-28.8,64.4-64.4,64.4c-35.6,0-64.4-28.8-64.4-64.4c0-35.6,28.8-64.4,64.4-64.4
	C378.6,976.6,407.5,1005.4,407.5,1041"/>
<path class="st2" d="M311.1,1097c-21.7,38-49.4,86.5-66.4,116.2"/>
<polygon points="247.6,1215.1 239.6,1222 241.5,1211.6 "/>
<polygon class="st2" points="247.6,1215.1 239.6,1222 241.5,1211.6 "/>
<path class="st2" d="M375.6,985.1c17.6-30.3,38.6-66.4,52.7-90.5"/>
<polygon points="425.5,892.5 433.6,885.6 431.6,896 "/>
<polygon class="st2" points="425.5,892.5 433.6,885.6 431.6,896 "/>
<polygon class="st2" points="453.5,1245.6 302.5,1245.6 298.5,1249.6 298.5,1281.6 449.5,1281.6 453.5,1277.6 "/>
<line class="st2" x1="449.5" y1="1249.6" x2="298.5" y2="1249.6"/>
<line class="st2" x1="449.5" y1="1249.6" x2="449.5" y2="1281.6"/>
<line class="st2" x1="449.5" y1="1249.6" x2="453.5" y2="1245.6"/>
<text transform="matrix(1 0 0 1 1251.575 247.0131)" class="st3 st4 st1">Personal</text>
<path class="st2" d="M401.3,1281.7c25.7,16.1,63.3,39.6,90.9,56.9"/>
<polygon points="494.2,1335.6 500.8,1343.9 490.5,1341.6 "/>
<polygon class="st2" points="494.2,1335.6 500.8,1343.9 490.5,1341.6 "/>
<path class="st2" d="M340.2,1245.4c-27.8-15.7-68-38.4-98.1-55.4"/>
<polygon points="240.2,1192.9 233.2,1185 243.6,1186.8 "/>
<polygon class="st2" points="240.2,1192.9 233.2,1185 243.6,1186.8 "/>
<polygon class="st2" points="1048.9,971.7 920.9,971.7 916.9,975.7 916.9,1007.7 1044.9,1007.7 1048.9,1003.7 "/>
<line class="st2" x1="1044.9" y1="975.7" x2="916.9" y2="975.7"/>
<line class="st2" x1="1044.9" y1="975.7" x2="1044.9" y2="1007.7"/>
<line class="st2" x1="1044.9" y1="975.7" x2="1048.9" y2="971.7"/>
<path class="st2" d="M948.3,971.7c-19.2-11.7-44.4-27-65.2-39.7"/>
<polygon points="881.2,935 874.5,926.8 884.8,929 "/>
<polygon class="st2" points="881.2,935 874.5,926.8 884.8,929 "/>
<polygon class="st2" points="425.2,188.6 296.2,188.6 292.2,192.6 292.2,224.6 421.2,224.6 425.2,220.6 "/>
<line class="st2" x1="421.2" y1="192.6" x2="292.2" y2="192.6"/>
<line class="st2" x1="421.2" y1="192.6" x2="421.2" y2="224.6"/>
<line class="st2" x1="421.2" y1="192.6" x2="425.2" y2="188.6"/>
<path class="st2" d="M362.9,224.7c11.3,28.6,33.3,84.2,46.7,117.8"/>
<polygon points="413,341.7 413.5,352.2 406.5,344.2 "/>
<polygon class="st2" points="413,341.7 413.5,352.2 406.5,344.2 "/>
<path class="st2" d="M348.2,188.3c-10.6-25.7-29.9-72.7-42.3-102.8"/>
<polygon points="302.6,86.5 302,75.9 309.1,83.9 "/>
<polygon class="st2" points="302.6,86.5 302,75.9 309.1,83.9 "/>
<path class="st2" d="M851.9,1425.6c0,46.7-37.8,84.5-84.5,84.5c-46.7,0-84.5-37.8-84.5-84.5s37.8-84.5,84.5-84.5
	C814.1,1341.1,851.9,1379,851.9,1425.6"/>
<path class="st2" d="M855.9,1425.6c0,48.9-39.6,88.5-88.5,88.5c-48.9,0-88.5-39.6-88.5-88.5c0-48.9,39.6-88.5,88.5-88.5
	C816.3,1337.1,855.9,1376.8,855.9,1425.6"/>
<path class="st2" d="M855.7,1419.4c42.4-3,91.6-6.5,126.5-8.9"/>
<polygon points="982.3,1406.9 992.6,1409.7 982.8,1413.9 "/>
<polygon class="st2" points="982.3,1406.9 992.6,1409.7 982.8,1413.9 "/>
<path class="st2" d="M681.7,1402.4c-40-10.8-85.6-23.1-116.6-31.5"/>
<polygon points="563.9,1374.2 555.1,1368.2 565.7,1367.5 "/>
<polygon class="st2" points="563.9,1374.2 555.1,1368.2 565.7,1367.5 "/>
<polygon class="st2" points="1179.4,730.7 1187.7,730.6 1196,730.5 1204.1,730.3 1212.1,730 1219.9,729.7 1227.5,729.4 1234.8,729 
	1241.9,728.6 1248.6,728.1 1255.1,727.6 1261.2,727 1266.9,726.4 1272.3,725.8 1277.2,725.2 1281.7,724.4 1285.8,723.7 1289.5,723 
	1292.8,722.2 1295.5,721.3 1297.9,720.5 1299.8,719.6 1301.2,718.8 1302.2,717.9 1302.8,717 1303,716 1302.7,715.1 1302.1,714.2 
	1301,713.2 1299.6,712.3 1297.8,711.3 1295.7,710.4 1293.2,709.5 1290.5,708.6 1287.4,707.6 1284.1,706.7 1280.6,705.9 1276.8,705 
	1272.8,704.2 1268.6,703.3 1264.2,702.6 1259.6,701.8 1254.9,701.1 1250.1,700.4 1245.2,699.7 1240.1,699.1 1235,698.5 
	1229.7,697.9 1224.5,697.4 1219.1,696.9 1213.7,696.5 1208.3,696.1 1202.8,695.8 1197.3,695.5 1191.8,695.2 1186.2,695.1 
	1180.7,694.9 1175.1,694.8 1169.5,694.8 1164,694.8 1158.4,694.8 1152.8,694.9 1147.3,695.1 1141.7,695.2 1136.2,695.5 
	1130.7,695.8 1125.2,696.1 1119.8,696.5 1114.4,696.9 1109.1,697.4 1103.8,697.9 1098.6,698.5 1093.4,699.1 1088.4,699.7 
	1083.4,700.4 1078.6,701.1 1073.9,701.8 1069.3,702.6 1065,703.3 1060.8,704.2 1056.7,705 1052.9,705.9 1049.4,706.7 1046.1,707.6 
	1043,708.6 1040.3,709.5 1037.8,710.4 1035.7,711.3 1033.9,712.3 1032.5,713.2 1031.5,714.2 1030.8,715.1 1030.6,716 1030.7,717 
	1031.3,717.9 1032.3,718.8 1033.8,719.6 1035.6,720.5 1038,721.3 1040.8,722.2 1044,723 1047.7,723.7 1051.8,724.4 1056.3,725.2 
	1061.3,725.8 1066.6,726.4 1072.3,727 1078.4,727.6 1084.9,728.1 1091.6,728.6 1098.7,729 1106,729.4 1113.6,729.7 1121.4,730 
	1129.4,730.3 1137.6,730.5 1145.8,730.6 1154.2,730.7 1162.6,730.8 1171,730.8 "/>
<path class="st2" d="M1206.2,730.3c43.8,19.5,114,50.8,156.5,69.8"/>
<polygon points="1364.1,796.9 1371.8,804.2 1361.3,803.3 "/>
<polygon class="st2" points="1364.1,796.9 1371.8,804.2 1361.3,803.3 "/>
<path class="st2" d="M1185.7,694.8c2.4-2.3,5-4.7,7.5-7.2"/>
<polygon points="1191.1,684.8 1200.8,680.5 1195.9,689.9 "/>
<polygon class="st2" points="1191.1,684.8 1200.8,680.5 1195.9,689.9 "/>
<polygon class="st2" points="783.7,513.9 789,513.8 794.2,513.6 799.4,513.4 804.5,513.2 809.4,512.9 814.3,512.6 818.9,512.2 
	823.4,511.7 827.7,511.3 831.8,510.8 835.7,510.2 839.3,509.6 842.7,509 845.9,508.3 848.7,507.6 851.3,506.9 853.7,506.1 
	855.7,505.3 857.5,504.5 859,503.7 860.2,502.8 861.1,501.9 861.8,501 862.1,500.1 862.2,499.2 862.1,498.3 861.6,497.3 861,496.4 
	860.1,495.5 858.9,494.5 857.6,493.6 856,492.6 854.3,491.7 852.4,490.8 850.2,489.9 848,489 845.6,488.2 843,487.3 840.4,486.5 
	837.6,485.7 834.7,485 831.7,484.2 828.6,483.5 825.5,482.9 822.3,482.2 819,481.6 815.7,481.1 812.3,480.6 808.9,480.1 
	805.5,479.7 802.1,479.3 798.6,478.9 795.1,478.7 791.6,478.4 788.1,478.2 784.5,478.1 781,478 777.4,477.9 773.9,477.9 770.4,478 
	766.8,478.1 763.3,478.2 759.8,478.4 756.3,478.7 752.8,478.9 749.3,479.3 745.8,479.7 742.4,480.1 739,480.6 735.7,481.1 
	732.3,481.6 729.1,482.2 725.9,482.9 722.7,483.5 719.7,484.2 716.7,485 713.8,485.7 711,486.5 708.3,487.3 705.8,488.2 703.4,489 
	701.1,489.9 699,490.8 697.1,491.7 695.3,492.6 693.8,493.6 692.4,494.5 691.3,495.5 690.4,496.4 689.7,497.3 689.3,498.3 
	689.1,499.2 689.2,500.1 689.6,501 690.3,501.9 691.2,502.8 692.4,503.7 693.9,504.5 695.6,505.3 697.7,506.1 700,506.9 
	702.6,507.6 705.5,508.3 708.6,509 712,509.6 715.7,510.2 719.6,510.8 723.7,511.3 727.9,511.7 732.4,512.2 737.1,512.6 
	741.9,512.9 746.9,513.2 752,513.4 757.1,513.6 762.4,513.8 767.7,513.9 773,513.9 778.4,513.9 "/>
<path class="st2" d="M757.3,513.8c-24,23.4-66.2,64.7-93.6,91.4"/>
<polygon points="666,607.8 656.4,612.3 661.2,602.8 "/>
<polygon class="st2" points="666,607.8 656.4,612.3 661.2,602.8 "/>
<polygon class="st2" points="660.1,709.2 664.5,709.1 669,709 673.4,708.8 677.7,708.6 681.8,708.3 685.9,707.9 689.9,707.5 
	693.7,707.1 697.3,706.6 700.8,706.1 704.1,705.6 707.1,705 710,704.4 712.7,703.7 715.1,703 717.3,702.2 719.3,701.5 721,700.7 
	722.5,699.9 723.8,699 724.8,698.2 725.6,697.3 726.1,696.4 726.4,695.5 726.5,694.6 726.4,693.6 726,692.7 725.5,691.8 
	724.7,690.8 723.7,689.9 722.6,688.9 721.3,688 719.8,687.1 718.2,686.2 716.4,685.3 714.5,684.4 712.4,683.5 710.3,682.7 
	708,681.9 705.7,681.1 703.2,680.3 700.7,679.6 698.1,678.9 695.4,678.2 692.7,677.6 690,677 687.1,676.4 684.3,675.9 681.4,675.5 
	678.5,675 675.6,674.7 672.7,674.3 669.7,674 666.7,673.8 663.8,673.6 660.8,673.4 657.8,673.3 654.8,673.3 651.8,673.3 
	648.8,673.3 645.8,673.4 642.8,673.6 639.8,673.8 636.9,674 633.9,674.3 631,674.7 628,675 625.1,675.5 622.3,675.9 619.4,676.4 
	616.6,677 613.8,677.6 611.1,678.2 608.5,678.9 605.9,679.6 603.4,680.3 600.9,681.1 598.5,681.9 596.3,682.7 594.1,683.5 
	592.1,684.4 590.2,685.3 588.4,686.2 586.8,687.1 585.3,688 584,688.9 582.8,689.9 581.9,690.8 581.1,691.8 580.5,692.7 
	580.2,693.6 580,694.6 580.1,695.5 580.4,696.4 581,697.3 581.8,698.2 582.8,699 584,699.9 585.5,700.7 587.3,701.5 589.2,702.2 
	591.5,703 593.9,703.7 596.6,704.4 599.4,705 602.5,705.6 605.8,706.1 609.2,706.6 612.9,707.1 616.7,707.5 620.6,707.9 
	624.7,708.3 628.9,708.6 633.2,708.8 637.6,709 642,709.1 646.5,709.2 651,709.3 655.5,709.3 "/>
<path class="st2" d="M618.9,707.9c-18.5,8.9-41.4,20-61.1,29.5"/>
<polygon points="559.2,740.6 548.7,741.8 556.2,734.3 "/>
<polygon class="st2" points="559.2,740.6 548.7,741.8 556.2,734.3 "/>
<path class="st2" d="M658.6,673.1c-1.2-4.6-2.5-9.5-3.7-14.5"/>
<polygon points="651.4,659.4 652.3,648.9 658.2,657.7 "/>
<polygon class="st2" points="651.4,659.4 652.3,648.9 658.2,657.7 "/>
<polygon class="st2" points="608,473.2 612.9,473.1 617.8,472.9 622.6,472.7 627.3,472.5 631.9,472.2 636.3,471.9 640.6,471.5 
	644.8,471.1 648.8,470.6 652.6,470.1 656.1,469.5 659.5,468.9 662.7,468.3 665.6,467.6 668.2,466.9 670.6,466.2 672.8,465.4 
	674.7,464.6 676.3,463.8 677.7,463 678.8,462.1 679.7,461.2 680.3,460.3 680.6,459.4 680.7,458.5 680.6,457.6 680.2,456.6 
	679.6,455.7 678.7,454.8 677.7,453.8 676.4,452.9 675,451.9 673.4,451 671.6,450.1 669.6,449.2 667.5,448.3 665.3,447.5 663,446.6 
	660.5,445.8 657.9,445 655.2,444.3 652.5,443.5 649.6,442.8 646.7,442.2 643.8,441.5 640.7,440.9 637.7,440.4 634.6,439.9 
	631.4,439.4 628.2,439 625,438.6 621.8,438.3 618.6,438 615.3,437.7 612.1,437.5 608.8,437.4 605.5,437.3 602.3,437.2 599,437.2 
	595.7,437.3 592.4,437.4 589.2,437.5 585.9,437.7 582.7,438 579.4,438.3 576.2,438.6 573,439 569.9,439.4 566.7,439.9 563.6,440.4 
	560.5,440.9 557.5,441.5 554.5,442.2 551.6,442.8 548.8,443.5 546,444.3 543.4,445 540.8,445.8 538.3,446.6 535.9,447.5 
	533.7,448.3 531.6,449.2 529.7,450.1 527.9,451 526.3,451.9 524.8,452.9 523.6,453.8 522.5,454.8 521.7,455.7 521.1,456.6 
	520.7,457.6 520.6,458.5 520.6,459.4 521,460.3 521.6,461.2 522.4,462.1 523.5,463 524.9,463.8 526.6,464.6 528.5,465.4 
	530.6,466.2 533,466.9 535.7,467.6 538.6,468.3 541.7,468.9 545.1,469.5 548.7,470.1 552.5,470.6 556.5,471.1 560.6,471.5 
	564.9,471.9 569.4,472.2 574,472.5 578.7,472.7 583.5,472.9 588.3,473.1 593.2,473.2 598.2,473.2 603.1,473.2 "/>
<text transform="matrix(1 0 0 1 550.6289 458.9258)" class="st0 st1">uselessprogram.js</text>
<path class="st2" d="M604.4,473.3c6.5,30.7,19.6,93.1,27.3,129.4"/>
<polygon points="635.2,602.2 633.8,612.7 628.3,603.6 "/>
<polygon class="st2" points="635.2,602.2 633.8,612.7 628.3,603.6 "/>
<polygon class="st2" points="565.9,542.7 427.9,542.7 423.9,546.7 423.9,578.7 561.9,578.7 565.9,574.7 "/>
<line class="st2" x1="561.9" y1="546.7" x2="423.9" y2="546.7"/>
<line class="st2" x1="561.9" y1="546.7" x2="561.9" y2="578.7"/>
<line class="st2" x1="561.9" y1="546.7" x2="565.9" y2="542.7"/>
<path class="st2" d="M494.5,578.9c3.8,34.6,12.1,109.9,16.7,151.1"/>
<polygon points="514.6,729.9 512.2,740.2 507.7,730.7 "/>
<polygon class="st2" points="514.6,729.9 512.2,740.2 507.7,730.7 "/>
<path class="st2" d="M485.6,542.5C472.9,509,446,437.7,431.2,398.2"/>
<polygon points="427.8,399.3 427.6,388.7 434.4,396.8 "/>
<polygon class="st2" points="427.8,399.3 427.6,388.7 434.4,396.8 "/>
<path class="st2" d="M529.8,578.7c18.6,9,41.4,19.9,61.1,29.5"/>
<polygon points="592.6,605.1 600.1,612.6 589.6,611.4 "/>
<polygon class="st2" points="592.6,605.1 600.1,612.6 589.6,611.4 "/>
<line class="st2" x1="842.5" y1="1092.9" x2="996.5" y2="1092.9"/>
<text transform="matrix(1 0 0 1 1267.7781 289.9788)" class="st3 st4 st1">Work in Progress</text>
<path class="st2" d="M911.4,1056.8c-13.1-29.1-39-86.6-54.5-120.8"/>
<polygon points="853.6,937.2 852.7,926.6 860,934.3 "/>
<polygon class="st2" points="853.6,937.2 852.7,926.6 860,934.3 "/>
<polygon class="st2" points="428.1,626.6 434.8,626.5 441.4,626.3 447.9,626.1 454.3,625.9 460.5,625.6 466.6,625.3 472.4,624.9 
	478.1,624.4 483.5,624 488.6,623.5 493.5,622.9 498.1,622.3 502.3,621.7 506.3,621 509.9,620.3 513.2,619.6 516.1,618.8 518.7,618 
	520.9,617.2 522.8,616.4 524.3,615.5 525.5,614.6 526.3,613.7 526.7,612.8 526.9,611.9 526.7,611 526.1,610 525.3,609.1 
	524.2,608.1 522.7,607.2 521.1,606.3 519.1,605.3 516.9,604.4 514.5,603.5 511.8,602.6 509,601.7 505.9,600.9 502.7,600 
	499.4,599.2 495.9,598.4 492.2,597.7 488.5,596.9 484.6,596.2 480.7,595.6 476.6,594.9 472.5,594.3 468.4,593.8 464.1,593.3 
	459.9,592.8 455.6,592.4 451.2,592 446.8,591.6 442.4,591.4 438,591.1 433.6,590.9 429.2,590.8 424.7,590.7 420.3,590.6 
	415.8,590.6 411.4,590.7 406.9,590.8 402.5,590.9 398,591.1 393.6,591.4 389.2,591.6 384.9,592 380.5,592.4 376.2,592.8 
	371.9,593.3 367.7,593.8 363.5,594.3 359.4,594.9 355.4,595.6 351.4,596.2 347.6,596.9 343.8,597.7 340.2,598.4 336.7,599.2 
	333.3,600 330.1,600.9 327.1,601.7 324.2,602.6 321.6,603.5 319.2,604.4 317,605.3 315,606.3 313.3,607.2 311.9,608.1 310.8,609.1 
	309.9,610 309.4,611 309.2,611.9 309.3,612.8 309.8,613.7 310.6,614.6 311.8,615.5 313.3,616.4 315.1,617.2 317.4,618 319.9,618.8 
	322.9,619.6 326.2,620.3 329.8,621 333.7,621.7 338,622.3 342.6,622.9 347.5,623.5 352.6,624 358,624.4 363.7,624.9 369.5,625.3 
	375.6,625.6 381.8,625.9 388.2,626.1 394.7,626.3 401.3,626.5 408,626.6 414.7,626.6 421.4,626.6 "/>
<path class="st2" d="M429.6,626.7c16.8,26.1,47.9,74.5,67.3,104.8"/>
<polygon points="500.1,730 502.6,740.3 494.2,733.8 "/>
<polygon class="st2" points="500.1,730 502.6,740.3 494.2,733.8 "/>
<path class="st2" d="M517.2,618.6c24.7,2.5,50.1,5,71.2,7.2"/>
<polygon points="588.8,622.3 598.4,626.8 588.1,629.2 "/>
<polygon class="st2" points="588.8,622.3 598.4,626.8 588.1,629.2 "/>
<line class="st2" x1="1310.6" y1="679.6" x2="1459.6" y2="679.6"/>
<path class="st2" d="M1386.7,679.6c2.4,26.5,6.9,76.3,9.7,107.9"/>
<polygon points="1400,787.6 1397.4,797.9 1393,788.2 "/>
<polygon class="st2" points="1400,787.6 1397.4,797.9 1393,788.2 "/>
<path class="st2" d="M1310.3,661.9c-17.5,0.1-35.4,0.1-50.6,0.2"/>
<polygon points="1259.6,665.6 1249.6,662.1 1259.6,658.6 "/>
<polygon class="st2" points="1259.6,665.6 1249.6,662.1 1259.6,658.6 "/>
<text transform="matrix(1 0 0 1 1415.5656 315.0161)" class="st3 st4 st1">theme</text>
<path class="st5" d="M1395.7,339.9c2.4-2.3,5-4.7,7.5-7.2"/>
<polygon class="st3" points="1401.2,329.9 1410.8,325.6 1406,335 "/>
<polygon class="st5" points="1401.2,329.9 1410.8,325.6 1406,335 "/>
<path class="st5" d="M1481.3,307c-17.5,0.1,3.6,0.1-11.6,0.2"/>
<polygon class="st3" points="1469.6,310.7 1459.6,307.2 1469.6,303.7 "/>
<polygon class="st5" points="1469.6,310.7 1459.6,307.2 1469.6,303.7 "/>
<line class="st2" x1="39.6" y1="1040.3" x2="180.6" y2="1040.3"/>
<path class="st2" d="M126.8,1004c18.8-20.6,49.6-54.4,70.9-77.8"/>
<polygon points="195.2,923.8 204.5,918.7 200.4,928.5 "/>
<polygon class="st2" points="195.2,923.8 204.5,918.7 200.4,928.5 "/>
<path class="st2" d="M121.5,1040.3c15.7,25,44.3,70.4,62.6,99.5"/>
<polygon points="187.3,1138.3 189.6,1148.6 181.3,1142 "/>
<polygon class="st2" points="187.3,1138.3 189.6,1148.6 181.3,1142 "/>
<line class="st2" x1="1127.8" y1="1354.1" x2="1285.8" y2="1354.1"/>
<path class="st2" d="M1228.8,1317.8c30.3-25.2,85.1-70.8,119-99"/>
<polygon points="1345.5,1216.1 1355.5,1212.4 1350,1221.5 "/>
<polygon class="st2" points="1345.5,1216.1 1355.5,1212.4 1350,1221.5 "/>
<path class="st2" d="M1161.3,1354.2c-27,10.7-61,24.3-87.9,35"/>
<polygon points="1074.4,1392.6 1063.8,1393 1071.8,1386.1 "/>
<polygon class="st2" points="1074.4,1392.6 1063.8,1393 1071.8,1386.1 "/>
<polygon class="st2" points="680.5,819.4 684.1,819.3 687.7,819.2 691.2,819 694.6,818.7 698,818.4 701.2,818.1 704.4,817.7 
	707.4,817.3 710.4,816.8 713.1,816.3 715.8,815.7 718.2,815.1 720.5,814.5 722.7,813.9 724.6,813.2 726.4,812.4 728,811.7 
	729.4,810.9 730.6,810 731.6,809.2 732.4,808.3 733,807.5 733.4,806.6 733.7,805.7 733.8,804.7 733.6,803.8 733.4,802.9 
	732.9,801.9 732.3,801 731.5,800 730.6,799.1 729.6,798.2 728.4,797.3 727.1,796.3 725.6,795.4 724.1,794.6 722.5,793.7 
	720.7,792.9 718.9,792 717,791.3 715.1,790.5 713.1,789.8 711,789.1 708.9,788.4 706.7,787.8 704.5,787.2 702.2,786.6 699.9,786.1 
	697.6,785.6 695.3,785.2 693,784.8 690.6,784.5 688.2,784.2 685.9,783.9 683.5,783.8 681.1,783.6 678.7,783.5 676.3,783.5 
	673.9,783.5 671.5,783.5 669.1,783.6 666.7,783.8 664.3,783.9 661.9,784.2 659.6,784.5 657.2,784.8 654.9,785.2 652.5,785.6 
	650.2,786.1 648,786.6 645.7,787.2 643.5,787.8 641.3,788.4 639.2,789.1 637.1,789.8 635.1,790.5 633.1,791.3 631.2,792 
	629.4,792.9 627.7,793.7 626.1,794.6 624.5,795.4 623.1,796.3 621.8,797.3 620.6,798.2 619.6,799.1 618.6,800 617.9,801 
	617.3,801.9 616.8,802.9 616.5,803.8 616.4,804.7 616.5,805.7 616.7,806.6 617.2,807.5 617.8,808.3 618.6,809.2 619.6,810 
	620.8,810.9 622.2,811.7 623.8,812.4 625.6,813.2 627.5,813.9 629.6,814.5 631.9,815.1 634.4,815.7 637,816.3 639.8,816.8 
	642.7,817.3 645.8,817.7 648.9,818.1 652.2,818.4 655.6,818.7 659,819 662.5,819.2 666.1,819.3 669.7,819.4 673.3,819.5 
	676.9,819.5 "/>
<path class="st2" d="M634.5,790.6c-23.3-6.2-52.5-14.1-76.4-20.4"/>
<polygon points="557,773.5 548.3,767.5 558.9,766.7 "/>
<polygon class="st2" points="557,773.5 548.3,767.5 558.9,766.7 "/>
<path class="st2" d="M671.1,783.5c-6.5-29.6-19.6-89.1-27.3-124.4"/>
<polygon points="640.3,659.4 641.6,648.9 647.2,657.9 "/>
<polygon class="st2" points="640.3,659.4 641.6,648.9 647.2,657.9 "/>
<path class="st2" d="M701.6,818.2c28.4,18,73.8,46.6,105.8,66.8"/>
<polygon points="809.4,882.2 816,890.5 805.6,888.1 "/>
<polygon class="st2" points="809.4,882.2 816,890.5 805.6,888.1 "/>
<path class="st2" d="M1560.7,1015c0,34.4-27.9,62.3-62.3,62.3c-34.4,0-62.3-27.9-62.3-62.3c0-34.4,27.9-62.3,62.3-62.3
	C1532.8,952.7,1560.7,980.6,1560.7,1015"/>
<path class="st2" d="M1564.7,1015c0,36.6-29.7,66.3-66.3,66.3c-36.6,0-66.3-29.7-66.3-66.3c0-36.6,29.7-66.3,66.3-66.3
	C1535,948.7,1564.7,978.3,1564.7,1015"/>
<path class="st2" d="M1468.6,955.4c-18.6-37.2-41.6-83.2-56-111.9"/>
<polygon points="1409.5,845 1408.1,834.5 1415.7,841.8 "/>
<polygon class="st2" points="1409.5,845 1408.1,834.5 1415.7,841.8 "/>
<path class="st2" d="M1461.1,1070.2c-21.9,32.4-48.5,71.9-65.8,97.4"/>
<polygon points="1398.1,1169.8 1389.6,1176.1 1392.3,1165.8 "/>
<polygon class="st2" points="1398.1,1169.8 1389.6,1176.1 1392.3,1165.8 "/>
<path class="st2" d="M1559.5,1041.4c23.6,10.2,50.3,21.7,72.8,31.5"/>
<polygon points="1634,1069.7 1641.7,1076.9 1631.2,1076.1 "/>
<polygon class="st2" points="1634,1069.7 1641.7,1076.9 1631.2,1076.1 "/>
<path class="st2" d="M1561.9,995.4c27.1-8.3,57.7-17.7,81-24.9"/>
<polygon points="1642.1,967.1 1652.7,967.5 1644.2,973.8 "/>
<polygon class="st2" points="1642.1,967.1 1652.7,967.5 1644.2,973.8 "/>
<line class="st2" x1="337.1" y1="830.4" x2="587.1" y2="830.4"/>
<path class="st2" d="M479.8,794.1c3.1-3.2,6.5-6.7,9.8-10.1"/>
<polygon points="487.2,781.4 496.6,776.7 492.2,786.3 "/>
<polygon class="st2" points="487.2,781.4 496.6,776.7 492.2,786.3 "/>
<path class="st2" d="M456.2,830.7c-0.9,2.9-1.9,6-2.9,9"/>
<polygon points="456.5,840.8 450.1,849.3 449.9,838.7 "/>
<polygon class="st2" points="456.5,840.8 450.1,849.3 449.9,838.7 "/>
<path class="st2" d="M412.8,830.4c-45.1,16.5-110.9,40.5-152.5,55.7"/>
<polygon points="261.4,889.4 250.8,889.6 259,882.9 "/>
<polygon class="st2" points="261.4,889.4 250.8,889.6 259,882.9 "/>
<polygon class="st5" points="1293.1,198.9 1296.7,198.9 1300.2,198.7 1303.7,198.5 1307.2,198.3 1310.5,198 1313.8,197.6 
	1317,197.2 1320,196.8 1322.9,196.4 1325.7,195.8 1328.3,195.3 1330.8,194.7 1333.1,194.1 1335.2,193.4 1337.2,192.7 1338.9,192 
	1340.5,191.2 1341.9,190.4 1343.1,189.6 1344.1,188.7 1344.9,187.9 1345.6,187 1346,186.1 1346.3,185.2 1346.3,184.3 1346.2,183.4 
	1345.9,182.4 1345.5,181.5 1344.9,180.5 1344.1,179.6 1343.2,178.6 1342.1,177.7 1340.9,176.8 1339.6,175.9 1338.2,175 
	1336.7,174.1 1335,173.2 1333.3,172.4 1331.5,171.6 1329.6,170.8 1327.7,170 1325.6,169.3 1323.5,168.6 1321.4,167.9 1319.2,167.3 
	1317,166.7 1314.8,166.2 1312.5,165.6 1310.2,165.2 1307.9,164.7 1305.5,164.4 1303.2,164 1300.8,163.7 1298.4,163.5 1296,163.3 
	1293.7,163.1 1291.3,163 1288.9,163 1286.5,163 1284.1,163 1281.7,163.1 1279.3,163.3 1276.9,163.5 1274.5,163.7 1272.1,164 
	1269.8,164.4 1267.4,164.7 1265.1,165.2 1262.8,165.6 1260.5,166.2 1258.3,166.7 1256.1,167.3 1253.9,167.9 1251.8,168.6 
	1249.7,169.3 1247.7,170 1245.7,170.8 1243.8,171.6 1242,172.4 1240.3,173.2 1238.6,174.1 1237.1,175 1235.7,175.9 1234.4,176.8 
	1233.2,177.7 1232.1,178.6 1231.2,179.6 1230.4,180.5 1229.8,181.5 1229.4,182.4 1229.1,183.4 1229,184.3 1229.1,185.2 
	1229.3,186.1 1229.7,187 1230.4,187.9 1231.2,188.7 1232.2,189.6 1233.4,190.4 1234.8,191.2 1236.4,192 1238.1,192.7 1240.1,193.4 
	1242.2,194.1 1244.5,194.7 1247,195.3 1249.6,195.8 1252.4,196.4 1255.3,196.8 1258.3,197.2 1261.5,197.6 1264.8,198 1268.1,198.3 
	1271.6,198.5 1275.1,198.7 1278.6,198.9 1282.2,198.9 1285.8,199 1289.5,199 "/>
<polygon class="st5" points="1347.6,222.5 1203.6,222.5 1199.6,226.5 1199.6,258.5 1343.6,258.5 1347.6,254.5 "/>
<line class="st5" x1="1343.6" y1="226.5" x2="1199.6" y2="226.5"/>
<line class="st5" x1="1343.6" y1="226.5" x2="1343.6" y2="258.5"/>
<line class="st5" x1="1343.6" y1="226.5" x2="1347.6" y2="222.5"/>
<line class="st5" x1="1239.8" y1="300.5" x2="1393.8" y2="300.5"/>
<path class="st5" d="M1487.4,222.5c0,33.4-27,60.4-60.4,60.4c-33.4,0-60.4-27-60.4-60.4c0-33.4,27-60.4,60.4-60.4
	C1460.4,162.1,1487.4,189.1,1487.4,222.5"/>
<path class="st5" d="M1491.4,222.5c0,35.6-28.8,64.4-64.4,64.4c-35.6,0-64.4-28.8-64.4-64.4c0-35.6,28.8-64.4,64.4-64.4
	C1462.6,158.1,1491.4,186.9,1491.4,222.5"/>
<text transform="matrix(1 0 0 1 1393.9641 226.1531)" class="st3 st4 st1">Professional</text>
<text transform="matrix(1 0 0 1 1250.863 186.8172)" class="st3 st4 st1">Experimental</text>
<text transform="matrix(1 0 0 1 1338.6234 127.0319)" class="st3 st4 st6">Legend</text>
<a xlink:href="https://creativecodecollective.com" target="_blank"><text transform="matrix(1 0 0 1 1133.8296 1339.7891)" class="st0 st7">Creative Code Collective</text></a>
<a xlink:href="https://femfest.online" target="_blank"><text transform="matrix(1 0 0 1 1458.1942 1018.6562)" class="st0 st7">FemFest 2021</text></a>
<a xlink:href="https://whykatherine.github.io/work/simpsons/" target="_blank"><text transform="matrix(1 0 0 1 1072.4016 716.457)" class="st0 st7">It All Started with the Simpsons</text></a>
<a xlink:href="https://github.com/whykatherine/community-references" target="_blank"><text transform="matrix(1 0 0 1 1316.4614 665.582)" class="st0 st7">Community References</text></a>
<a xlink:href="https://whykatherine.github.io/work/distant-destinations/" target="_blank"><text transform="matrix(1 0 0 1 705.9143 1429.3242)" class="st0 st7">Distant Destinations</text></a>
<a xlink:href="https://hyperlinked-narratives.herokuapp.com" target="_blank"><text transform="matrix(1 0 0 1 304.7391 1269.293)" class="st0 st7">Hyperlinked Narratives</text></a>
<a xlink:href="https://github.com/whykatherine/build-your-bookshelf" target="_blank"><text transform="matrix(1 0 0 1 45.231 1026.0684)" class="st0 st7">Build Your Bookshelf</text></a>
<text transform="matrix(1 0 0 1 342.7349 816.0586)" class="st0 st7">Asclepius: A Timeline of Dream Journals</text>
<a xlink:href="https://whykatherine.github.io/emotionspoem" target="_blank"><text transform="matrix(1 0 0 1 605.9065 694.2274)" class="st0 st7">Emotions Poem</text></a>
<a xlink:href="https://secretsecret.glitch.me" target="_blank"><text transform="matrix(1 0 0 1 639.1839 805.1562)" class="st0 st7">secret secret</text></a>
<a xlink:href="https://whykatherine.github.io/streamofconsciousness/" target="_blank"><text transform="matrix(1 0 0 1 344.8206 612.293)" class="st0 st7">Stream of Consciousness</text></a>
<a xlink:href="https://wakingandsleeping.glitch.me/" target="_blank"><text transform="matrix(1 0 0 1 430.3171 566.4863)" class="st0 st7">Waking and Sleeping</text></a>
<a xlink:href="https://replit.com/@whykatherine/canwetalk-takesnoarguments#.replit" target="_blank"><text transform="matrix(1 0 0 1 719.1158 499.6211)" class="st0 st7">takes no arguments</text></a>
<a xlink:href="https://agloballanguage.herokuapp.com" target="_blank"><text transform="matrix(1 0 0 1 300.6239 212.3496)" class="st0 st7">A Global Language</text></a>
<a xlink:href="https://vimeo.com/364002596" target="_blank"><text transform="matrix(1 0 0 1 303.768 1044.7676)" class="st0 st7">Fine Art Asia</text></a>
<text transform="matrix(1 0 0 1 183.9258 1243.7383)" class="st0 st7">Chinese culture</text>
<text transform="matrix(1 0 0 1 849.3517 1078.625)" class="st0 st7">Archaeological Dig(ital)</text>
<a xlink:href="https://letsgetgranular.surge.sh/" target="_blank"><text transform="matrix(1 0 0 1 925.515 996.422)" class="st0 st7">Let’s Get Granular</text></a>
<text transform="matrix(1 0 0 1 1646.9877 1098.7441)" class="st0 st7">social justice</text>
</svg>
