<?xml version="1.0" encoding="UTF-8" standalone="no"?>
<!DOCTYPE svg PUBLIC "-//W3C//DTD SVG 1.1//EN"
 "http://www.w3.org/Graphics/SVG/1.1/DTD/svg11.dtd">
<!-- Generated by graphviz version 2.40.1 (20161225.0304)
 -->
<!-- Title: %3 Pages: 1 -->
<svg width="7542pt" height="5066pt"
 viewBox="0.00 0.00 7542.19 5065.89" xmlns="http://www.w3.org/2000/svg" xmlns:xlink="http://www.w3.org/1999/xlink">
<g id="graph0" class="graph" transform="scale(1 1) rotate(0) translate(4 5061.886)">
<title>%3</title>
<polygon fill="#ffffff" stroke="transparent" points="-4,4 -4,-5061.886 7538.1947,-5061.886 7538.1947,4 -4,4"/>
<!-- language -->
<g id="node1" class="node">
<title>language</title>
<text text-anchor="middle" x="33.5" y="-732.3711" font-family="Times,serif" font-size="14.00" fill="#000000">language</text>
</g>
<!-- literature -->
<g id="node2" class="node">
<title>literature</title>
<text text-anchor="middle" x="5591.5199" y="-3879.9773" font-family="Times,serif" font-size="14.00" fill="#000000">literature</text>
</g>
<!-- digitalculture -->
<g id="node3" class="node">
<title>digitalculture</title>
<text text-anchor="middle" x="7056.3127" y="-193.8818" font-family="Times,serif" font-size="14.00" fill="#000000">digital culture</text>
</g>
<!-- emotions -->
<g id="node4" class="node">
<title>emotions</title>
<text text-anchor="middle" x="6607.2688" y="-971.6487" font-family="Times,serif" font-size="14.00" fill="#000000">emotions</text>
</g>
<!-- Chineseculture -->
<g id="node5" class="node">
<title>Chineseculture</title>
<text text-anchor="middle" x="3581.713" y="-2719.6148" font-family="Times,serif" font-size="14.00" fill="#000000">Chinese culture</text>
</g>
<!-- play -->
<g id="node6" class="node">
<title>play</title>
<text text-anchor="middle" x="5896.7939" y="-4056.2273" font-family="Times,serif" font-size="14.00" fill="#000000">play</text>
</g>
<!-- community -->
<g id="node7" class="node">
<title>community</title>
<text text-anchor="middle" x="6555.8262" y="-4436.7198" font-family="Times,serif" font-size="14.00" fill="#000000">community</text>
</g>
<!-- poetictech -->
<g id="node8" class="node">
<title>poetictech</title>
<text text-anchor="middle" x="6607.2688" y="-493.0936" font-family="Times,serif" font-size="14.00" fill="#000000">poetic tech</text>
</g>
<!-- media -->
<g id="node9" class="node">
<title>media</title>
<text text-anchor="middle" x="7162.9067" y="-4643.3413" font-family="Times,serif" font-size="14.00" fill="#000000">media</text>
</g>
<!-- education -->
<g id="node10" class="node">
<title>education</title>
<text text-anchor="middle" x="6228.9016" y="-4247.9698" font-family="Times,serif" font-size="14.00" fill="#000000">education</text>
</g>
<!-- socialjustice -->
<g id="node11" class="node">
<title>socialjustice</title>
<text text-anchor="middle" x="7403.9961" y="-5036.186" font-family="Times,serif" font-size="14.00" fill="#000000">social justice</text>
</g>
<!-- identity -->
<g id="node12" class="node">
<title>identity</title>
<text text-anchor="middle" x="5290.1431" y="-3705.9773" font-family="Times,serif" font-size="14.00" fill="#000000">identity</text>
</g>
<!-- visualart -->
<g id="node13" class="node">
<title>visualart</title>
<text text-anchor="middle" x="3892.5203" y="-2899.0594" font-family="Times,serif" font-size="14.00" fill="#000000">visual art</text>
</g>
<!-- connection -->
<g id="node14" class="node">
<title>connection</title>
<text text-anchor="middle" x="377" y="-732.3711" font-family="Times,serif" font-size="14.00" fill="#000000">connection</text>
</g>
<!-- fandom -->
<g id="node15" class="node">
<title>fandom</title>
<text text-anchor="middle" x="7195.0627" y="-4205.6274" font-family="Times,serif" font-size="14.00" fill="#000000">fandom</text>
</g>
<!-- music -->
<g id="node16" class="node">
<title>music</title>
<text text-anchor="middle" x="6856.8092" y="-4982.5087" font-family="Times,serif" font-size="14.00" fill="#000000">music</text>
</g>
<!-- Bluebirds -->
<g id="node17" class="node">
<title>Bluebirds</title>
<polygon fill="none" stroke="#000000" points="6895.3191,-217.1651 6828.3191,-217.1651 6824.3191,-213.1651 6824.3191,-181.1651 6891.3191,-181.1651 6895.3191,-185.1651 6895.3191,-217.1651"/>
<polyline fill="none" stroke="#000000" points="6891.3191,-213.1651 6824.3191,-213.1651 "/>
<polyline fill="none" stroke="#000000" points="6891.3191,-213.1651 6891.3191,-181.1651 "/>
<polyline fill="none" stroke="#000000" points="6891.3191,-213.1651 6895.3191,-217.1651 "/>
<text text-anchor="middle" x="6859.8191" y="-195.4651" font-family="Times,serif" font-size="14.00" fill="#000000">Bluebirds</text>
</g>
<!-- Bluebirds&#45;&gt;digitalculture -->
<g id="edge1" class="edge">
<title>Bluebirds&#45;&gt;digitalculture</title>
<path fill="none" stroke="#000000" d="M6895.4026,-198.8784C6924.1674,-198.6466 6965.2318,-198.3157 6998.6765,-198.0462"/>
<polygon fill="#000000" stroke="#000000" points="6998.8177,-201.5453 7008.7892,-197.9647 6998.7613,-194.5455 6998.8177,-201.5453"/>
</g>
<!-- FineArtAsia -->
<g id="node18" class="node">
<title>FineArtAsia</title>
<ellipse fill="none" stroke="#000000" cx="3744.9109" cy="-2817.5371" rx="60.3928" ry="60.3928"/>
<ellipse fill="none" stroke="#000000" cx="3744.9109" cy="-2817.5371" rx="64.3893" ry="64.3893"/>
<text text-anchor="middle" x="3744.9109" y="-2813.8371" font-family="Times,serif" font-size="14.00" fill="#000000">Fine Art Asia</text>
</g>
<!-- FineArtAsia&#45;&gt;Chineseculture -->
<g id="edge2" class="edge">
<title>FineArtAsia&#45;&gt;Chineseculture</title>
<path fill="none" stroke="#000000" d="M3688.7474,-2785.1111C3666.8394,-2772.4625 3642.2135,-2758.2448 3622.1106,-2746.6384"/>
<polygon fill="#000000" stroke="#000000" points="3623.6288,-2743.4734 3613.2185,-2741.5045 3620.1287,-2749.5356 3623.6288,-2743.4734"/>
</g>
<!-- FineArtAsia&#45;&gt;visualart -->
<g id="edge3" class="edge">
<title>FineArtAsia&#45;&gt;visualart</title>
<path fill="none" stroke="#000000" d="M3801.1367,-2849.9991C3818.1634,-2859.8295 3836.5154,-2870.425 3852.274,-2879.5232"/>
<polygon fill="#000000" stroke="#000000" points="3850.8129,-2882.7211 3861.2232,-2884.69 3854.3129,-2876.6589 3850.8129,-2882.7211"/>
</g>
<!-- HyperlinkedNarratives -->
<g id="node19" class="node">
<title>HyperlinkedNarratives</title>
<polygon fill="none" stroke="#000000" points="5820.9715,-3991.4273 5676.9715,-3991.4273 5672.9715,-3987.4273 5672.9715,-3955.4273 5816.9715,-3955.4273 5820.9715,-3959.4273 5820.9715,-3991.4273"/>
<polyline fill="none" stroke="#000000" points="5816.9715,-3987.4273 5672.9715,-3987.4273 "/>
<polyline fill="none" stroke="#000000" points="5816.9715,-3987.4273 5816.9715,-3955.4273 "/>
<polyline fill="none" stroke="#000000" points="5816.9715,-3987.4273 5820.9715,-3991.4273 "/>
<text text-anchor="middle" x="5746.9715" y="-3969.7273" font-family="Times,serif" font-size="14.00" fill="#000000">Hyperlinked Narratives</text>
</g>
<!-- HyperlinkedNarratives&#45;&gt;literature -->
<g id="edge4" class="edge">
<title>HyperlinkedNarratives&#45;&gt;literature</title>
<path fill="none" stroke="#000000" d="M5715.5135,-3955.2651C5691.3879,-3941.3361 5657.9116,-3922.0086 5631.8233,-3906.9465"/>
<polygon fill="#000000" stroke="#000000" points="5633.3414,-3903.7815 5622.9311,-3901.8126 5629.8413,-3909.8437 5633.3414,-3903.7815"/>
</g>
<!-- HyperlinkedNarratives&#45;&gt;play -->
<g id="edge5" class="edge">
<title>HyperlinkedNarratives&#45;&gt;play</title>
<path fill="none" stroke="#000000" d="M5778.3792,-3991.5606C5802.3754,-4005.4148 5835.4856,-4024.531 5860.5946,-4039.0277"/>
<polygon fill="#000000" stroke="#000000" points="5859.0413,-4042.1723 5869.4516,-4044.1413 5862.5414,-4036.1102 5859.0413,-4042.1723"/>
</g>
<!-- Let’sGetGranular -->
<g id="node20" class="node">
<title>Let’sGetGranular</title>
<polygon fill="none" stroke="#000000" points="7197.0788,-36 7079.0788,-36 7075.0788,-32 7075.0788,0 7193.0788,0 7197.0788,-4 7197.0788,-36"/>
<polyline fill="none" stroke="#000000" points="7193.0788,-32 7075.0788,-32 "/>
<polyline fill="none" stroke="#000000" points="7193.0788,-32 7193.0788,0 "/>
<polyline fill="none" stroke="#000000" points="7193.0788,-32 7197.0788,-36 "/>
<text text-anchor="middle" x="7136.0788" y="-14.3" font-family="Times,serif" font-size="14.00" fill="#000000">Let’s Get Granular</text>
</g>
<!-- Let’sGetGranular&#45;&gt;digitalculture -->
<g id="edge6" class="edge">
<title>Let’sGetGranular&#45;&gt;digitalculture</title>
<path fill="none" stroke="#000000" d="M7127.9914,-36.2075C7113.9572,-67.8036 7085.0175,-132.957 7068.5251,-170.0873"/>
<polygon fill="#000000" stroke="#000000" points="7065.2822,-168.7663 7064.4215,-179.3261 7071.6795,-171.6078 7065.2822,-168.7663"/>
</g>
<!-- AGlobalLanguage -->
<g id="node21" class="node">
<title>AGlobalLanguage</title>
<polygon fill="none" stroke="#000000" points="266,-754.0711 143,-754.0711 139,-750.0711 139,-718.0711 262,-718.0711 266,-722.0711 266,-754.0711"/>
<polyline fill="none" stroke="#000000" points="262,-750.0711 139,-750.0711 "/>
<polyline fill="none" stroke="#000000" points="262,-750.0711 262,-718.0711 "/>
<polyline fill="none" stroke="#000000" points="262,-750.0711 266,-754.0711 "/>
<text text-anchor="middle" x="202.5" y="-732.3711" font-family="Times,serif" font-size="14.00" fill="#000000">A Global Language</text>
</g>
<!-- AGlobalLanguage&#45;&gt;language -->
<g id="edge7" class="edge">
<title>AGlobalLanguage&#45;&gt;language</title>
<path fill="none" stroke="#000000" d="M138.6083,-736.0711C118.1028,-736.0711 95.873,-736.0711 77.161,-736.0711"/>
<polygon fill="#000000" stroke="#000000" points="77.1606,-732.5712 67.1606,-736.0711 77.1605,-739.5712 77.1606,-732.5712"/>
</g>
<!-- AGlobalLanguage&#45;&gt;connection -->
<g id="edge8" class="edge">
<title>AGlobalLanguage&#45;&gt;connection</title>
<path fill="none" stroke="#000000" d="M266.4865,-736.0711C286.6761,-736.0711 308.6585,-736.0711 327.6622,-736.0711"/>
<polygon fill="#000000" stroke="#000000" points="327.883,-739.5712 337.8829,-736.0711 327.8829,-732.5712 327.883,-739.5712"/>
</g>
<!-- DistantDestinations -->
<g id="node22" class="node">
<title>DistantDestinations</title>
<ellipse fill="none" stroke="#000000" cx="6059.1671" cy="-4153.6736" rx="84.4853" ry="84.4853"/>
<ellipse fill="none" stroke="#000000" cx="6059.1671" cy="-4153.6736" rx="88.485" ry="88.485"/>
<text text-anchor="middle" x="6059.1671" y="-4149.9736" font-family="Times,serif" font-size="14.00" fill="#000000">Distant Destinations</text>
</g>
<!-- DistantDestinations&#45;&gt;play -->
<g id="edge9" class="edge">
<title>DistantDestinations&#45;&gt;play</title>
<path fill="none" stroke="#000000" d="M5982.2601,-4109.2713C5965.0183,-4099.3167 5947.5183,-4089.2131 5932.8825,-4080.7631"/>
<polygon fill="#000000" stroke="#000000" points="5934.5779,-4077.7005 5924.1676,-4075.7316 5931.0778,-4083.7627 5934.5779,-4077.7005"/>
</g>
<!-- DistantDestinations&#45;&gt;education -->
<g id="edge10" class="edge">
<title>DistantDestinations&#45;&gt;education</title>
<path fill="none" stroke="#000000" d="M6136.0884,-4198.0841C6154.2727,-4208.5828 6172.9478,-4219.3649 6188.7349,-4228.4796"/>
<polygon fill="#000000" stroke="#000000" points="6187.2606,-4231.6698 6197.6709,-4233.6388 6190.7606,-4225.6076 6187.2606,-4231.6698"/>
</g>
<!-- ItAllStartedwiththeSimpsons -->
<g id="node23" class="node">
<title>ItAllStartedwiththeSimpsons</title>
<polygon fill="none" stroke="#000000" points="7410.4457,-4426.3117 7418.7906,-4426.4102 7427.0493,-4426.5577 7435.1879,-4426.7537 7443.1735,-4426.9977 7450.9741,-4427.289 7458.559,-4427.6268 7465.8985,-4428.0102 7472.9648,-4428.4382 7479.7317,-4428.9095 7486.1747,-4429.423 7492.2716,-4429.9771 7498.0018,-4430.5703 7503.3474,-4431.2011 7508.2925,-4431.8677 7512.8234,-4432.5683 7516.929,-4433.3009 7520.6005,-4434.0635 7523.8314,-4434.8541 7526.6176,-4435.6705 7528.9573,-4436.5105 7530.8509,-4437.3717 7532.3011,-4438.2517 7533.3126,-4439.1483 7533.8921,-4440.0589 7534.048,-4440.981 7533.7906,-4441.9121 7533.1317,-4442.8496 7532.0845,-4443.791 7530.6636,-4444.7337 7528.8844,-4445.6751 7526.7635,-4446.6126 7524.3181,-4447.5437 7521.566,-4448.4658 7518.5254,-4449.3764 7515.2148,-4450.2729 7511.6526,-4451.153 7507.8574,-4452.0142 7503.8473,-4452.8541 7499.6401,-4453.6705 7495.2533,-4454.4611 7490.7037,-4455.2238 7486.0072,-4455.9564 7481.1792,-4456.657 7476.2342,-4457.3235 7471.1856,-4457.9543 7466.0462,-4458.5476 7460.8276,-4459.1017 7455.5404,-4459.6151 7450.1945,-4460.0865 7444.7986,-4460.5144 7439.3607,-4460.8979 7433.8878,-4461.2357 7428.3863,-4461.527 7422.8618,-4461.771 7417.3194,-4461.967 7411.7636,-4462.1145 7406.1985,-4462.213 7400.6279,-4462.2623 7395.0555,-4462.2623 7389.4849,-4462.213 7383.9198,-4462.1145 7378.3639,-4461.967 7372.8215,-4461.771 7367.297,-4461.527 7361.7955,-4461.2357 7356.3227,-4460.8979 7350.8847,-4460.5144 7345.4888,-4460.0865 7340.1429,-4459.6151 7334.8557,-4459.1017 7329.6371,-4458.5476 7324.4977,-4457.9543 7319.4492,-4457.3235 7314.5041,-4456.657 7309.6762,-4455.9564 7304.9797,-4455.2238 7300.43,-4454.4611 7296.0432,-4453.6705 7291.8361,-4452.8541 7287.8259,-4452.0142 7284.0307,-4451.153 7280.4685,-4450.2729 7277.1579,-4449.3764 7274.1173,-4448.4658 7271.3652,-4447.5437 7268.9198,-4446.6126 7266.7989,-4445.6751 7265.0198,-4444.7337 7263.5988,-4443.791 7262.5517,-4442.8496 7261.8928,-4441.9121 7261.6354,-4440.981 7261.7913,-4440.0589 7262.3707,-4439.1483 7263.3822,-4438.2517 7264.8324,-4437.3717 7266.7261,-4436.5105 7269.0658,-4435.6705 7271.852,-4434.8541 7275.0829,-4434.0635 7278.7543,-4433.3009 7282.86,-4432.5683 7287.3909,-4431.8677 7292.3359,-4431.2011 7297.6815,-4430.5703 7303.4118,-4429.9771 7309.5086,-4429.423 7315.9517,-4428.9095 7322.7185,-4428.4382 7329.7849,-4428.0102 7337.1244,-4427.6268 7344.7092,-4427.289 7352.5098,-4426.9977 7360.4954,-4426.7537 7368.6341,-4426.5577 7376.8927,-4426.4102 7385.2376,-4426.3117 7393.6345,-4426.2623 7402.0488,-4426.2623 7410.4457,-4426.3117"/>
<text text-anchor="middle" x="7397.8417" y="-4440.5623" font-family="Times,serif" font-size="14.00" fill="#000000">It All Started with the Simpsons</text>
</g>
<!-- ItAllStartedwiththeSimpsons&#45;&gt;media -->
<g id="edge11" class="edge">
<title>ItAllStartedwiththeSimpsons&#45;&gt;media</title>
<path fill="none" stroke="#000000" d="M7376.9928,-4462.2576C7334.9541,-4498.5424 7239.9446,-4580.5477 7191.895,-4622.0207"/>
<polygon fill="#000000" stroke="#000000" points="7189.3299,-4619.6113 7184.0466,-4628.7949 7193.9037,-4624.9104 7189.3299,-4619.6113"/>
</g>
<!-- ItAllStartedwiththeSimpsons&#45;&gt;fandom -->
<g id="edge12" class="edge">
<title>ItAllStartedwiththeSimpsons&#45;&gt;fandom</title>
<path fill="none" stroke="#000000" d="M7382.2666,-4426.2175C7346.5854,-4384.878 7258.8198,-4283.1949 7217.3957,-4235.2019"/>
<polygon fill="#000000" stroke="#000000" points="7219.8744,-4232.717 7210.6908,-4227.4337 7214.5753,-4237.2908 7219.8744,-4232.717"/>
</g>
<!-- takesnoarguments -->
<g id="node24" class="node">
<title>takesnoarguments</title>
<polygon fill="none" stroke="#000000" points="6444.2334,-412.4029 6449.5352,-412.5014 6454.7822,-412.6489 6459.953,-412.8449 6465.0266,-413.0889 6469.9826,-413.3802 6474.8015,-413.718 6479.4646,-414.1015 6483.9541,-414.5294 6488.2533,-415.0008 6492.3468,-415.5142 6496.2204,-416.0683 6499.861,-416.6616 6503.2573,-417.2923 6506.399,-417.9589 6509.2777,-418.6595 6511.8862,-419.3921 6514.2188,-420.1548 6516.2715,-420.9454 6518.0417,-421.7618 6519.5282,-422.6017 6520.7313,-423.4629 6521.6526,-424.343 6522.2953,-425.2395 6522.6634,-426.1501 6522.7625,-427.0722 6522.5989,-428.0033 6522.1803,-428.9408 6521.515,-429.8822 6520.6122,-430.8249 6519.4819,-431.7663 6518.1344,-432.7038 6516.5807,-433.6349 6514.8322,-434.557 6512.9004,-435.4676 6510.7971,-436.3641 6508.5339,-437.2442 6506.1226,-438.1054 6503.5749,-438.9454 6500.9019,-439.7618 6498.1148,-440.5524 6495.2242,-441.315 6492.2404,-442.0476 6489.173,-442.7482 6486.0312,-443.4148 6482.8237,-444.0456 6479.5584,-444.6388 6476.2429,-445.1929 6472.8837,-445.7063 6469.4873,-446.1777 6466.059,-446.6057 6462.6041,-446.9891 6459.127,-447.3269 6455.6317,-447.6182 6452.1218,-447.8622 6448.6005,-448.0582 6445.0707,-448.2057 6441.5349,-448.3042 6437.9957,-448.3536 6434.4554,-448.3536 6430.9162,-448.3042 6427.3805,-448.2057 6423.8506,-448.0582 6420.3293,-447.8622 6416.8194,-447.6182 6413.3241,-447.3269 6409.847,-446.9891 6406.3921,-446.6057 6402.9639,-446.1777 6399.5674,-445.7063 6396.2083,-445.1929 6392.8927,-444.6388 6389.6274,-444.0456 6386.4199,-443.4148 6383.2782,-442.7482 6380.2108,-442.0476 6377.2269,-441.315 6374.3363,-440.5524 6371.5492,-439.7618 6368.8763,-438.9454 6366.3285,-438.1054 6363.9173,-437.2442 6361.6541,-436.3641 6359.5507,-435.4676 6357.6189,-434.557 6355.8704,-433.6349 6354.3168,-432.7038 6352.9693,-431.7663 6351.8389,-430.8249 6350.9361,-429.8822 6350.2708,-428.9408 6349.8522,-428.0033 6349.6887,-427.0722 6349.7877,-426.1501 6350.1559,-425.2395 6350.7985,-424.343 6351.7199,-423.4629 6352.923,-422.6017 6354.4095,-421.7618 6356.1797,-420.9454 6358.2324,-420.1548 6360.565,-419.3921 6363.1734,-418.6595 6366.0521,-417.9589 6369.1939,-417.2923 6372.5901,-416.6616 6376.2308,-416.0683 6380.1043,-415.5142 6384.1978,-415.0008 6388.4971,-414.5294 6392.9866,-414.1015 6397.6496,-413.718 6402.4685,-413.3802 6407.4246,-413.0889 6412.4981,-412.8449 6417.6689,-412.6489 6422.9159,-412.5014 6428.2177,-412.4029 6433.5526,-412.3536 6438.8985,-412.3536 6444.2334,-412.4029"/>
<text text-anchor="middle" x="6436.2256" y="-426.6536" font-family="Times,serif" font-size="14.00" fill="#000000">takes no arguments</text>
</g>
<!-- takesnoarguments&#45;&gt;poetictech -->
<g id="edge13" class="edge">
<title>takesnoarguments&#45;&gt;poetictech</title>
<path fill="none" stroke="#000000" d="M6475.0379,-445.4298C6499.793,-455.0457 6532.0799,-467.5872 6558.5526,-477.8703"/>
<polygon fill="#000000" stroke="#000000" points="6557.4292,-481.1886 6568.018,-481.547 6559.9638,-474.6636 6557.4292,-481.1886"/>
</g>
<!-- EmotionsPoem -->
<g id="node25" class="node">
<title>EmotionsPoem</title>
<polygon fill="none" stroke="#000000" points="6890.3397,-957.3981 6894.8266,-957.4966 6899.2671,-957.6441 6903.6431,-957.8401 6907.9368,-958.084 6912.131,-958.3754 6916.2092,-958.7132 6920.1556,-959.0966 6923.955,-959.5246 6927.5934,-959.9959 6931.0577,-960.5094 6934.3359,-961.0635 6937.4169,-961.6567 6940.2911,-962.2875 6942.95,-962.9541 6945.3862,-963.6546 6947.5937,-964.3873 6949.5678,-965.1499 6951.305,-965.9405 6952.8031,-966.7569 6954.0611,-967.5969 6955.0792,-968.4581 6955.859,-969.3381 6956.4029,-970.2347 6956.7144,-971.1453 6956.7982,-972.0674 6956.6598,-972.9984 6956.3056,-973.936 6955.7425,-974.8774 6954.9785,-975.8201 6954.0219,-976.7615 6952.8815,-977.699 6951.5667,-978.6301 6950.0869,-979.5522 6948.4521,-980.4627 6946.672,-981.3593 6944.7567,-982.2394 6942.7161,-983.1006 6940.5599,-983.9405 6938.2978,-984.7569 6935.9391,-985.5475 6933.4928,-986.3102 6930.9676,-987.0428 6928.3717,-987.7433 6925.7129,-988.4099 6922.9984,-989.0407 6920.235,-989.634 6917.429,-990.1881 6914.5862,-990.7015 6911.7118,-991.1728 6908.8106,-991.6008 6905.8867,-991.9842 6902.944,-992.3221 6899.986,-992.6134 6897.0156,-992.8574 6894.0355,-993.0534 6891.0483,-993.2008 6888.056,-993.2994 6885.0608,-993.3487 6882.0646,-993.3487 6879.0694,-993.2994 6876.0772,-993.2008 6873.0899,-993.0534 6870.1098,-992.8574 6867.1394,-992.6134 6864.1814,-992.3221 6861.2387,-991.9842 6858.3149,-991.6008 6855.4136,-991.1728 6852.5392,-990.7015 6849.6964,-990.1881 6846.8904,-989.634 6844.1271,-989.0407 6841.4126,-988.4099 6838.7537,-987.7433 6836.1578,-987.0428 6833.6326,-986.3102 6831.1863,-985.5475 6828.8276,-984.7569 6826.5655,-983.9405 6824.4094,-983.1006 6822.3687,-982.2394 6820.4534,-981.3593 6818.6734,-980.4627 6817.0385,-979.5522 6815.5587,-978.6301 6814.2439,-977.699 6813.1035,-976.7615 6812.1469,-975.8201 6811.3829,-974.8774 6810.8199,-973.936 6810.4656,-972.9984 6810.3272,-972.0674 6810.411,-971.1453 6810.7226,-970.2347 6811.2664,-969.3381 6812.0462,-968.4581 6813.0644,-967.5969 6814.3224,-966.7569 6815.8205,-965.9405 6817.5576,-965.1499 6819.5317,-964.3873 6821.7392,-963.6546 6824.1754,-962.9541 6826.8343,-962.2875 6829.7085,-961.6567 6832.7896,-961.0635 6836.0677,-960.5094 6839.532,-959.9959 6843.1704,-959.5246 6846.9699,-959.0966 6850.9162,-958.7132 6854.9944,-958.3754 6859.1886,-958.084 6863.4824,-957.8401 6867.8583,-957.6441 6872.2988,-957.4966 6876.7858,-957.3981 6881.3006,-957.3487 6885.8248,-957.3487 6890.3397,-957.3981"/>
<text text-anchor="middle" x="6883.5627" y="-971.6487" font-family="Times,serif" font-size="14.00" fill="#000000">Emotions Poem</text>
</g>
<!-- EmotionsPoem&#45;&gt;emotions -->
<g id="edge14" class="edge">
<title>EmotionsPoem&#45;&gt;emotions</title>
<path fill="none" stroke="#000000" d="M6811.691,-975.3487C6761.0256,-975.3487 6694.7736,-975.3487 6651.6342,-975.3487"/>
<polygon fill="#000000" stroke="#000000" points="6651.4564,-971.8488 6641.4564,-975.3487 6651.4564,-978.8488 6651.4564,-971.8488"/>
</g>
<!-- EmotionsPoem&#45;&gt;poetictech -->
<g id="edge15" class="edge">
<title>EmotionsPoem&#45;&gt;poetictech</title>
<path fill="none" stroke="#000000" d="M6873.2359,-957.4622C6831.2682,-884.7719 6673.3343,-611.2224 6622.8724,-523.8198"/>
<polygon fill="#000000" stroke="#000000" points="6625.8263,-521.9361 6617.7952,-515.0258 6619.7641,-525.4361 6625.8263,-521.9361"/>
</g>
<!-- uselessprogram.js -->
<g id="node26" class="node">
<title>uselessprogram.js</title>
<polygon fill="none" stroke="#000000" points="6648.699,-295.9601 6653.6052,-296.0586 6658.4606,-296.2061 6663.2455,-296.4021 6667.9404,-296.6461 6672.5266,-296.9374 6676.9859,-297.2752 6681.301,-297.6587 6685.4554,-298.0866 6689.4338,-298.558 6693.2218,-299.0714 6696.8063,-299.6255 6700.1753,-300.2188 6703.318,-300.8496 6706.2253,-301.5161 6708.8892,-302.2167 6711.303,-302.9493 6713.4615,-303.712 6715.361,-304.5026 6716.9991,-305.319 6718.3747,-306.1589 6719.488,-307.0201 6720.3406,-307.9002 6720.9353,-308.7967 6721.2759,-309.7073 6721.3676,-310.6294 6721.2163,-311.5605 6720.8289,-312.498 6720.2132,-313.4394 6719.3778,-314.3821 6718.3318,-315.3235 6717.0849,-316.261 6715.6472,-317.1921 6714.0292,-318.1142 6712.2415,-319.0248 6710.2951,-319.9213 6708.2009,-320.8014 6705.9696,-321.6626 6703.6119,-322.5026 6701.1385,-323.319 6698.5594,-324.1096 6695.8845,-324.8722 6693.1233,-325.6048 6690.2848,-326.3054 6687.3775,-326.972 6684.4094,-327.6028 6681.3878,-328.196 6678.3197,-328.7501 6675.2112,-329.2635 6672.0682,-329.7349 6668.8959,-330.1629 6665.6988,-330.5463 6662.4812,-330.8841 6659.2467,-331.1754 6655.9987,-331.4194 6652.7402,-331.6154 6649.4738,-331.7629 6646.202,-331.8614 6642.9269,-331.9108 6639.6507,-331.9108 6636.3757,-331.8614 6633.1038,-331.7629 6629.8374,-331.6154 6626.5789,-331.4194 6623.3309,-331.1754 6620.0965,-330.8841 6616.8788,-330.5463 6613.6818,-330.1629 6610.5094,-329.7349 6607.3664,-329.2635 6604.2579,-328.7501 6601.1898,-328.196 6598.1682,-327.6028 6595.2001,-326.972 6592.2928,-326.3054 6589.4543,-325.6048 6586.6931,-324.8722 6584.0183,-324.1096 6581.4392,-323.319 6578.9657,-322.5026 6576.6081,-321.6626 6574.3767,-320.8014 6572.2825,-319.9213 6570.3361,-319.0248 6568.5484,-318.1142 6566.9304,-317.1921 6565.4927,-316.261 6564.2458,-315.3235 6563.1998,-314.3821 6562.3644,-313.4394 6561.7487,-312.498 6561.3614,-311.5605 6561.21,-310.6294 6561.3017,-309.7073 6561.6423,-308.7967 6562.237,-307.9002 6563.0896,-307.0201 6564.203,-306.1589 6565.5785,-305.319 6567.2166,-304.5026 6569.1161,-303.712 6571.2747,-302.9493 6573.6884,-302.2167 6576.3523,-301.5161 6579.2596,-300.8496 6582.4024,-300.2188 6585.7713,-299.6255 6589.3558,-299.0714 6593.1438,-298.558 6597.1222,-298.0866 6601.2767,-297.6587 6605.5917,-297.2752 6610.051,-296.9374 6614.6372,-296.6461 6619.3321,-296.4021 6624.117,-296.2061 6628.9724,-296.0586 6633.8786,-295.9601 6638.8153,-295.9108 6643.7623,-295.9108 6648.699,-295.9601"/>
<text text-anchor="middle" x="6641.2888" y="-310.2108" font-family="Times,serif" font-size="14.00" fill="#000000">uselessprogram.js</text>
</g>
<!-- uselessprogram.js&#45;&gt;poetictech -->
<g id="edge16" class="edge">
<title>uselessprogram.js&#45;&gt;poetictech</title>
<path fill="none" stroke="#000000" d="M6637.9025,-332.1149C6631.9419,-364.1573 6619.5404,-430.8245 6612.4811,-468.7737"/>
<polygon fill="#000000" stroke="#000000" points="6609.0294,-468.1916 6610.6414,-478.6631 6615.9113,-469.4719 6609.0294,-468.1916"/>
</g>
<!-- WakingandSleeping -->
<g id="node27" class="node">
<title>WakingandSleeping</title>
<polygon fill="none" stroke="#000000" points="6537.6218,-754.0711 6404.6218,-754.0711 6400.6218,-750.0711 6400.6218,-718.0711 6533.6218,-718.0711 6537.6218,-722.0711 6537.6218,-754.0711"/>
<polyline fill="none" stroke="#000000" points="6533.6218,-750.0711 6400.6218,-750.0711 "/>
<polyline fill="none" stroke="#000000" points="6533.6218,-750.0711 6533.6218,-718.0711 "/>
<polyline fill="none" stroke="#000000" points="6533.6218,-750.0711 6537.6218,-754.0711 "/>
<text text-anchor="middle" x="6469.1218" y="-732.3711" font-family="Times,serif" font-size="14.00" fill="#000000">Waking and Sleeping</text>
</g>
<!-- WakingandSleeping&#45;&gt;emotions -->
<g id="edge17" class="edge">
<title>WakingandSleeping&#45;&gt;emotions</title>
<path fill="none" stroke="#000000" d="M6479.7326,-754.4495C6503.9498,-796.395 6563.3843,-899.3386 6591.7346,-948.4427"/>
<polygon fill="#000000" stroke="#000000" points="6588.7798,-950.325 6596.8109,-957.2352 6594.842,-946.8249 6588.7798,-950.325"/>
</g>
<!-- WakingandSleeping&#45;&gt;poetictech -->
<g id="edge18" class="edge">
<title>WakingandSleeping&#45;&gt;poetictech</title>
<path fill="none" stroke="#000000" d="M6479.7326,-717.6927C6503.9498,-675.7473 6563.3843,-572.8037 6591.7346,-523.6996"/>
<polygon fill="#000000" stroke="#000000" points="6594.842,-525.3174 6596.8109,-514.9071 6588.7798,-521.8173 6594.842,-525.3174"/>
</g>
<!-- WakingandSleeping&#45;&gt;connection -->
<g id="edge19" class="edge">
<title>WakingandSleeping&#45;&gt;connection</title>
<path fill="none" stroke="#000000" d="M6400.4427,-736.0711C5767.9248,-736.0711 967.484,-736.0711 426.5459,-736.0711"/>
<polygon fill="#000000" stroke="#000000" points="426.3428,-732.5712 416.3428,-736.0711 426.3428,-739.5712 426.3428,-732.5712"/>
</g>
<!-- ArchaeologicalDig(ital) -->
<g id="node28" class="node">
<title>ArchaeologicalDig(ital)</title>
<polygon fill="none" stroke="transparent" points="7230.1883,-386.5419 7076.1883,-386.5419 7076.1883,-350.5419 7230.1883,-350.5419 7230.1883,-386.5419"/>
<polyline fill="none" stroke="#000000" points="7076.1883,-350.5419 7230.1883,-350.5419 "/>
<text text-anchor="middle" x="7153.1883" y="-364.8419" font-family="Times,serif" font-size="14.00" fill="#000000">Archaeological Dig(ital)</text>
</g>
<!-- ArchaeologicalDig(ital)&#45;&gt;digitalculture -->
<g id="edge20" class="edge">
<title>ArchaeologicalDig(ital)&#45;&gt;digitalculture</title>
<path fill="none" stroke="#000000" d="M7142.8209,-350.2462C7125.7047,-320.0404 7091.4551,-259.5989 7071.5699,-224.5067"/>
<polygon fill="#000000" stroke="#000000" points="7074.5808,-222.7207 7066.6056,-215.746 7068.4906,-226.1718 7074.5808,-222.7207"/>
</g>
<!-- StreamofConsciousness -->
<g id="node29" class="node">
<title>StreamofConsciousness</title>
<polygon fill="none" stroke="#000000" points="7031.7809,-718.1205 7038.4488,-718.219 7045.0478,-718.3665 7051.5509,-718.5625 7057.9317,-718.8065 7064.1648,-719.0978 7070.2254,-719.4356 7076.0899,-719.819 7081.7362,-720.247 7087.1433,-720.7184 7092.2915,-721.2318 7097.1632,-721.7859 7101.7419,-722.3791 7106.0132,-723.0099 7109.9645,-723.6765 7113.5849,-724.3771 7116.8655,-725.1097 7119.7992,-725.8723 7122.3808,-726.6629 7124.6071,-727.4793 7126.4766,-728.3193 7127.9897,-729.1805 7129.1485,-730.0606 7129.9567,-730.9571 7130.4197,-731.8677 7130.5443,-732.7898 7130.3386,-733.7209 7129.8121,-734.6584 7128.9754,-735.5998 7127.84,-736.5425 7126.4184,-737.4839 7124.7237,-738.4214 7122.7697,-739.3525 7120.5707,-740.2746 7118.1411,-741.1852 7115.4958,-742.0817 7112.6495,-742.9618 7109.6169,-743.823 7106.4126,-744.6629 7103.051,-745.4793 7099.5457,-746.27 7095.9103,-747.0326 7092.1577,-747.7652 7088.2999,-748.4658 7084.3486,-749.1324 7080.3146,-749.7631 7076.208,-750.3564 7072.0381,-750.9105 7067.8134,-751.4239 7063.5418,-751.8953 7059.2303,-752.3233 7054.8851,-752.7067 7050.5121,-753.0445 7046.1161,-753.3358 7041.7019,-753.5798 7037.2732,-753.7758 7032.8339,-753.9233 7028.3871,-754.0218 7023.936,-754.0711 7019.4834,-754.0711 7015.0323,-754.0218 7010.5855,-753.9233 7006.1461,-753.7758 7001.7175,-753.5798 6997.3032,-753.3358 6992.9073,-753.0445 6988.5342,-752.7067 6984.1891,-752.3233 6979.8776,-751.8953 6975.6059,-751.4239 6971.3813,-750.9105 6967.2114,-750.3564 6963.1047,-749.7631 6959.0708,-749.1324 6955.1195,-748.4658 6951.2617,-747.7652 6947.509,-747.0326 6943.8736,-746.27 6940.3684,-745.4793 6937.0067,-744.6629 6933.8025,-743.823 6930.7699,-742.9618 6927.9236,-742.0817 6925.2783,-741.1852 6922.8487,-740.2746 6920.6497,-739.3525 6918.6957,-738.4214 6917.001,-737.4839 6915.5794,-736.5425 6914.444,-735.5998 6913.6072,-734.6584 6913.0808,-733.7209 6912.8751,-732.7898 6912.9997,-731.8677 6913.4627,-730.9571 6914.2709,-730.0606 6915.4297,-729.1805 6916.9428,-728.3193 6918.8123,-727.4793 6921.0386,-726.6629 6923.6202,-725.8723 6926.5539,-725.1097 6929.8344,-724.3771 6933.4548,-723.6765 6937.4061,-723.0099 6941.6775,-722.3791 6946.2562,-721.7859 6951.1278,-721.2318 6956.2761,-720.7184 6961.6831,-720.247 6967.3294,-719.819 6973.194,-719.4356 6979.2546,-719.0978 6985.4876,-718.8065 6991.8685,-718.5625 6998.3716,-718.3665 7004.9706,-718.219 7011.6385,-718.1205 7018.348,-718.0711 7025.0714,-718.0711 7031.7809,-718.1205"/>
<text text-anchor="middle" x="7021.7097" y="-732.3711" font-family="Times,serif" font-size="14.00" fill="#000000">Stream of Consciousness</text>
</g>
<!-- StreamofConsciousness&#45;&gt;emotions -->
<g id="edge21" class="edge">
<title>StreamofConsciousness&#45;&gt;emotions</title>
<path fill="none" stroke="#000000" d="M6992.2364,-753.0876C6919.334,-795.1778 6730.47,-904.2185 6647.4368,-952.1577"/>
<polygon fill="#000000" stroke="#000000" points="6645.4668,-949.2536 6638.5565,-957.2847 6648.9668,-955.3158 6645.4668,-949.2536"/>
</g>
<!-- StreamofConsciousness&#45;&gt;poetictech -->
<g id="edge22" class="edge">
<title>StreamofConsciousness&#45;&gt;poetictech</title>
<path fill="none" stroke="#000000" d="M6991.2349,-718.4765C6917.6317,-675.9817 6730.1574,-567.7434 6647.4797,-520.0094"/>
<polygon fill="#000000" stroke="#000000" points="6649.0452,-516.8718 6638.6349,-514.9028 6645.5452,-522.934 6649.0452,-516.8718"/>
</g>
<!-- CommunityReferences -->
<g id="node30" class="node">
<title>CommunityReferences</title>
<polygon fill="none" stroke="transparent" points="7034.6277,-4430.1063 6885.6277,-4430.1063 6885.6277,-4394.1063 7034.6277,-4394.1063 7034.6277,-4430.1063"/>
<polyline fill="none" stroke="#000000" points="6885.6277,-4394.1063 7034.6277,-4394.1063 "/>
<text text-anchor="middle" x="6960.1277" y="-4408.4063" font-family="Times,serif" font-size="14.00" fill="#000000">Community References</text>
</g>
<!-- CommunityReferences&#45;&gt;media -->
<g id="edge23" class="edge">
<title>CommunityReferences&#45;&gt;media</title>
<path fill="none" stroke="#000000" d="M6975.7028,-4430.1512C7011.384,-4471.4906 7099.1496,-4573.1738 7140.5737,-4621.1668"/>
<polygon fill="#000000" stroke="#000000" points="7138.095,-4623.6517 7147.2786,-4628.935 7143.3942,-4619.0779 7138.095,-4623.6517"/>
</g>
<!-- CommunityReferences&#45;&gt;fandom -->
<g id="edge24" class="edge">
<title>CommunityReferences&#45;&gt;fandom</title>
<path fill="none" stroke="#000000" d="M6981.391,-4393.7534C7023.6738,-4357.2579 7118.3489,-4275.5412 7166.2011,-4234.2386"/>
<polygon fill="#000000" stroke="#000000" points="7168.7335,-4236.6763 7174.0167,-4227.4927 7164.1597,-4231.3772 7168.7335,-4236.6763"/>
</g>
<!-- BuildYourBookshelf -->
<g id="node31" class="node">
<title>BuildYourBookshelf</title>
<polygon fill="none" stroke="transparent" points="5509.5994,-3813.6773 5368.5994,-3813.6773 5368.5994,-3777.6773 5509.5994,-3777.6773 5509.5994,-3813.6773"/>
<polyline fill="none" stroke="#000000" points="5368.5994,-3777.6773 5509.5994,-3777.6773 "/>
<text text-anchor="middle" x="5439.0994" y="-3791.9773" font-family="Times,serif" font-size="14.00" fill="#000000">Build Your Bookshelf</text>
</g>
<!-- BuildYourBookshelf&#45;&gt;literature -->
<g id="edge25" class="edge">
<title>BuildYourBookshelf&#45;&gt;literature</title>
<path fill="none" stroke="#000000" d="M5470.3118,-3813.6978C5493.6601,-3827.1779 5525.7873,-3845.7266 5551.0995,-3860.3406"/>
<polygon fill="#000000" stroke="#000000" points="5549.6775,-3863.561 5560.0878,-3865.53 5553.1775,-3857.4988 5549.6775,-3863.561"/>
</g>
<!-- BuildYourBookshelf&#45;&gt;identity -->
<g id="edge26" class="edge">
<title>BuildYourBookshelf&#45;&gt;identity</title>
<path fill="none" stroke="#000000" d="M5407.8733,-3777.6489C5384.7756,-3764.3135 5353.1845,-3746.0743 5328.5418,-3731.8469"/>
<polygon fill="#000000" stroke="#000000" points="5330.2162,-3728.7721 5319.8059,-3726.8032 5326.7161,-3734.8343 5330.2162,-3728.7721"/>
</g>
<!-- CreativeCodeCollective -->
<g id="node32" class="node">
<title>CreativeCodeCollective</title>
<polygon fill="none" stroke="transparent" points="6469.4154,-4362.9198 6311.4154,-4362.9198 6311.4154,-4326.9198 6469.4154,-4326.9198 6469.4154,-4362.9198"/>
<polyline fill="none" stroke="#000000" points="6311.4154,-4326.9198 6469.4154,-4326.9198 "/>
<text text-anchor="middle" x="6390.4154" y="-4341.2198" font-family="Times,serif" font-size="14.00" fill="#000000">Creative Code Collective</text>
</g>
<!-- CreativeCodeCollective&#45;&gt;community -->
<g id="edge27" class="edge">
<title>CreativeCodeCollective&#45;&gt;community</title>
<path fill="none" stroke="#000000" d="M6421.9172,-4363.1075C6448.4758,-4378.441 6486.6483,-4400.4799 6515.4473,-4417.1071"/>
<polygon fill="#000000" stroke="#000000" points="6514.0314,-4420.331 6524.4416,-4422.3 6517.5314,-4414.2688 6514.0314,-4420.331"/>
</g>
<!-- CreativeCodeCollective&#45;&gt;education -->
<g id="edge28" class="edge">
<title>CreativeCodeCollective&#45;&gt;education</title>
<path fill="none" stroke="#000000" d="M6358.8905,-4326.7189C6333.2106,-4311.8926 6296.7905,-4290.8655 6269.0309,-4274.8385"/>
<polygon fill="#000000" stroke="#000000" points="6270.7573,-4271.7938 6260.347,-4269.8248 6267.2573,-4277.856 6270.7573,-4271.7938"/>
</g>
<!-- secretsecret -->
<g id="node33" class="node">
<title>secretsecret</title>
<polygon fill="none" stroke="#000000" points="6888.9914,-478.8429 6892.5857,-478.9415 6896.1428,-479.0889 6899.6481,-479.2849 6903.0876,-479.5289 6906.4475,-479.8202 6909.7143,-480.158 6912.8755,-480.5415 6915.9191,-480.9694 6918.8336,-481.4408 6921.6087,-481.9542 6924.2347,-482.5083 6926.7028,-483.1016 6929.0052,-483.7324 6931.1351,-484.399 6933.0866,-485.0995 6934.8549,-485.8321 6936.4363,-486.5948 6937.8279,-487.3854 6939.0279,-488.2018 6940.0357,-489.0417 6940.8513,-489.9029 6941.4759,-490.783 6941.9116,-491.6796 6942.1611,-492.5901 6942.2283,-493.5122 6942.1174,-494.4433 6941.8336,-495.3808 6941.3826,-496.3222 6940.7706,-497.2649 6940.0043,-498.2063 6939.0908,-499.1439 6938.0375,-500.0749 6936.8522,-500.997 6935.5425,-501.9076 6934.1166,-502.8042 6932.5824,-503.6842 6930.9477,-504.5454 6929.2205,-505.3854 6927.4084,-506.2018 6925.519,-506.9924 6923.5594,-507.755 6921.5366,-508.4877 6919.4571,-509.1882 6917.3272,-509.8548 6915.1528,-510.4856 6912.9392,-511.0788 6910.6914,-511.6329 6908.4142,-512.1464 6906.1117,-512.6177 6903.7876,-513.0457 6901.4454,-513.4291 6899.0882,-513.7669 6896.7186,-514.0583 6894.3392,-514.3022 6891.952,-514.4982 6889.559,-514.6457 6887.1621,-514.7442 6884.7628,-514.7936 6882.3627,-514.7936 6879.9634,-514.7442 6877.5664,-514.6457 6875.1734,-514.4982 6872.7862,-514.3022 6870.4068,-514.0583 6868.0372,-513.7669 6865.68,-513.4291 6863.3378,-513.0457 6861.0138,-512.6177 6858.7112,-512.1464 6856.434,-511.6329 6854.1863,-511.0788 6851.9727,-510.4856 6849.7982,-509.8548 6847.6683,-509.1882 6845.5888,-508.4877 6843.566,-507.755 6841.6064,-506.9924 6839.717,-506.2018 6837.9049,-505.3854 6836.1777,-504.5454 6834.5431,-503.6842 6833.0088,-502.8042 6831.5829,-501.9076 6830.2733,-500.997 6829.0879,-500.0749 6828.0346,-499.1439 6827.1212,-498.2063 6826.3548,-497.2649 6825.7428,-496.3222 6825.2918,-495.3808 6825.008,-494.4433 6824.8972,-493.5122 6824.9643,-492.5901 6825.2139,-491.6796 6825.6495,-490.783 6826.2742,-489.9029 6827.0898,-489.0417 6828.0975,-488.2018 6829.2975,-487.3854 6830.6891,-486.5948 6832.2705,-485.8321 6834.0388,-485.0995 6835.9903,-484.399 6838.1202,-483.7324 6840.4226,-483.1016 6842.8907,-482.5083 6845.5167,-481.9542 6848.2918,-481.4408 6851.2063,-480.9694 6854.2499,-480.5415 6857.4111,-480.158 6860.678,-479.8202 6864.0378,-479.5289 6867.4773,-479.2849 6870.9827,-479.0889 6874.5398,-478.9415 6878.134,-478.8429 6881.7506,-478.7936 6885.3748,-478.7936 6888.9914,-478.8429"/>
<text text-anchor="middle" x="6883.5627" y="-493.0936" font-family="Times,serif" font-size="14.00" fill="#000000">secret secret</text>
</g>
<!-- secretsecret&#45;&gt;digitalculture -->
<g id="edge29" class="edge">
<title>secretsecret&#45;&gt;digitalculture</title>
<path fill="none" stroke="#000000" d="M6893.8517,-478.9726C6922.9477,-428.5768 7005.9577,-284.7993 7040.7115,-224.604"/>
<polygon fill="#000000" stroke="#000000" points="7043.8903,-226.098 7045.8593,-215.6877 7037.8281,-222.598 7043.8903,-226.098"/>
</g>
<!-- secretsecret&#45;&gt;emotions -->
<g id="edge30" class="edge">
<title>secretsecret&#45;&gt;emotions</title>
<path fill="none" stroke="#000000" d="M6873.4016,-514.3932C6831.6475,-586.7133 6673.1126,-861.3038 6622.7346,-948.5611"/>
<polygon fill="#000000" stroke="#000000" points="6619.6384,-946.924 6617.6694,-957.3343 6625.7005,-950.4241 6619.6384,-946.924"/>
</g>
<!-- secretsecret&#45;&gt;poetictech -->
<g id="edge31" class="edge">
<title>secretsecret&#45;&gt;poetictech</title>
<path fill="none" stroke="#000000" d="M6825.9788,-496.7936C6775.8829,-496.7936 6704.0612,-496.7936 6656.5701,-496.7936"/>
<polygon fill="#000000" stroke="#000000" points="6656.5272,-493.2935 6646.5272,-496.7936 6656.5272,-500.2935 6656.5272,-493.2935"/>
</g>
<!-- FemFest2021 -->
<g id="node34" class="node">
<title>FemFest2021</title>
<ellipse fill="none" stroke="#000000" cx="7152.7671" cy="-4785.0638" rx="62.2954" ry="62.2954"/>
<ellipse fill="none" stroke="#000000" cx="7152.7671" cy="-4785.0638" rx="66.2891" ry="66.2891"/>
<text text-anchor="middle" x="7152.7671" y="-4781.3638" font-family="Times,serif" font-size="14.00" fill="#000000">FemFest 2021</text>
</g>
<!-- FemFest2021&#45;&gt;community -->
<g id="edge32" class="edge">
<title>FemFest2021&#45;&gt;community</title>
<path fill="none" stroke="#000000" d="M7095.259,-4751.8615C6974.9931,-4682.426 6699.5023,-4523.3713 6596.0613,-4463.6496"/>
<polygon fill="#000000" stroke="#000000" points="6597.5849,-4460.4878 6587.1746,-4458.5188 6594.0848,-4466.55 6597.5849,-4460.4878"/>
</g>
<!-- FemFest2021&#45;&gt;media -->
<g id="edge33" class="edge">
<title>FemFest2021&#45;&gt;media</title>
<path fill="none" stroke="#000000" d="M7157.6587,-4718.4783C7158.7711,-4703.3362 7159.8949,-4688.0382 7160.8157,-4675.505"/>
<polygon fill="#000000" stroke="#000000" points="7164.325,-4675.5057 7161.5671,-4665.2762 7157.3438,-4674.9928 7164.325,-4675.5057"/>
</g>
<!-- FemFest2021&#45;&gt;socialjustice -->
<g id="edge34" class="edge">
<title>FemFest2021&#45;&gt;socialjustice</title>
<path fill="none" stroke="#000000" d="M7199.4326,-4832.3967C7252.5766,-4886.3008 7337.4259,-4972.3636 7379.1626,-5014.6973"/>
<polygon fill="#000000" stroke="#000000" points="7376.6848,-5017.1694 7386.1979,-5021.8333 7381.6696,-5012.2549 7376.6848,-5017.1694"/>
</g>
<!-- FemFest2021&#45;&gt;music -->
<g id="edge35" class="edge">
<title>FemFest2021&#45;&gt;music</title>
<path fill="none" stroke="#000000" d="M7097.7933,-4822.4262C7037.5862,-4863.3454 6942.8365,-4927.7411 6891.9344,-4962.3362"/>
<polygon fill="#000000" stroke="#000000" points="6889.8588,-4959.5149 6883.5556,-4968.0308 6893.7936,-4965.3044 6889.8588,-4959.5149"/>
</g>
<!-- Asclepius -->
<g id="node35" class="node">
<title>Asclepius</title>
<polygon fill="none" stroke="transparent" points="5218.9883,-3614.4273 4968.9883,-3614.4273 4968.9883,-3578.4273 5218.9883,-3578.4273 5218.9883,-3614.4273"/>
<polyline fill="none" stroke="#000000" points="4968.9883,-3578.4273 5218.9883,-3578.4273 "/>
<text text-anchor="middle" x="5093.9883" y="-3592.7273" font-family="Times,serif" font-size="14.00" fill="#000000">Asclepius: A Timeline of Dream Journals</text>
</g>
<!-- Asclepius&#45;&gt;emotions -->
<g id="edge36" class="edge">
<title>Asclepius&#45;&gt;emotions</title>
<path fill="none" stroke="#000000" d="M5104.4598,-3578.2902C5229.7584,-3361.2666 6440.0502,-1264.9798 6591.6906,-1002.3309"/>
<polygon fill="#000000" stroke="#000000" points="6594.8545,-1003.8509 6596.8234,-993.4406 6588.7923,-1000.3509 6594.8545,-1003.8509"/>
</g>
<!-- Asclepius&#45;&gt;identity -->
<g id="edge37" class="edge">
<title>Asclepius&#45;&gt;identity</title>
<path fill="none" stroke="#000000" d="M5125.504,-3614.6229C5159.8479,-3634.4514 5214.8093,-3666.1834 5251.6723,-3687.4662"/>
<polygon fill="#000000" stroke="#000000" points="5250.2205,-3690.6695 5260.6308,-3692.6384 5253.7205,-3684.6073 5250.2205,-3690.6695"/>
</g>
<!-- Asclepius&#45;&gt;visualart -->
<g id="edge38" class="edge">
<title>Asclepius&#45;&gt;visualart</title>
<path fill="none" stroke="#000000" d="M5062.7762,-3578.407C4896.8626,-3482.6168 4118.9199,-3033.4714 3932.663,-2925.9359"/>
<polygon fill="#000000" stroke="#000000" points="3934.1519,-2922.754 3923.7416,-2920.7851 3930.6519,-2928.8162 3934.1519,-2922.754"/>
</g>
</g>
</svg>
