<svg xmlns="http://www.w3.org/2000/svg" id="Layer_1" data-name="Layer 1" viewBox="0 0 600 800"><defs><style>.cls-1{fill:#ced3dc}.cls-2{fill:#508097}</style></defs><title>havisham</title><rect width="542.45" height="741.3" x="28.42" y="29.35" class="cls-1"/><path d="M570,30V770H30V30H570M600,0H0V800H600V0h0Z" class="cls-2"/><g id="_Group_" data-name="&lt;Group&gt;"><path d="M528.46,190.19a1.13,1.13,0,0,1-1.11-1.28c0-1.5,8.59-30.54,8-31.13-1.57-1.61-7.8-20.29-7.8-23.44a1.41,1.41,0,0,1,0-.21c0.68,0,1.23-.22,1.77-0.22a2.17,2.17,0,0,1,1,.2c1.25,0.61,3.61,17.81,5.91,20.56,1.25-3.56,3.07-16,3-19.51a1,1,0,0,0,.51.08c1.38,0,4.77-.74,4.68-0.37C543.93,137.34,535.33,190.19,528.46,190.19Z" class="cls-2"/><path d="M527,75.4c0,13.66-6.75,50.34-11.95,52.82a3.06,3.06,0,0,1-1.13.19,4.5,4.5,0,0,1-2.14-.59c5.58-5.78,9.37-33.36,9.37-54.34-0.23-.1-20.79-6.7-20.79-7s1.08-.51,2-0.51c5.36,0,38.08,10.87,38.29,12.22a2.9,2.9,0,0,1,0,.44c0,0.37-.37.52-1,0.52C536.95,79.16,529.48,76.26,527,75.4Z" class="cls-2"/><path d="M534.16,383.58c1.46-1.81,5.14-8.1,5.14-10.63a1.7,1.7,0,0,1-1.64.72c-1.52,0-3.5-.93-3.5-3,0-2.21,1.31-4.46,3.77-4.46,2.69,0,4.27,2.3,4.27,5.06C542.2,375.88,537.79,382,534.16,383.58Z" class="cls-2"/><path d="M540.62,356.19c0,2.66-1.78,4.55-3.94,4.55s-3.77-2-3.77-4.82c0-2.15,2.26-3.67,4.18-3.67A3.61,3.61,0,0,1,540.62,356.19Z" class="cls-2"/><path d="M530.81,755.08c-3.82,0-7.64-2.94-7.63-8.44a7.79,7.79,0,0,1,7.62-7.75,7.89,7.89,0,0,1,7.63,8A7.8,7.8,0,0,1,530.81,755.08Z" class="cls-2"/><path d="M519.38,690.13c-1.24-5-5.63-6-19.36-6-0.41,0,.41,3.27.41,7.66,0,9.49-5.48,15.94-6.68,15.94-1.95,0,2.85-7.87,2.85-14.84,0-15.62-9.63-27.64-9.63-30.94,0-1.06,3.75-2.21,10.89-2.21,11.44,0,35.57,0,35.57,14,0,6.48-8.31,8.68-13.91,9.59,7,1.21,5.36,20.94,10.61,20.94,3.88,0,6.45-7.17,7.69-9.23a0.8,0.8,0,0,1,.26.83c0,1.59-1.57,12-8.26,12C522.81,708,520.59,695,519.38,690.13Zm-25.16-26c2.66,7.35,4.27,15.85,5.61,17.62,19.12,0,28.92-4.18,28.92-10C528.76,665.26,515.1,664.13,494.22,664.13Z" class="cls-2"/><path d="M536.8,439.21c-0.61,5.88-1.51,11.7-1.95,17.61a17.88,17.88,0,0,0,.81,8c0.6,1.47,2,1.37,1.58,2.9-5-.63-5.16-6.63-5.12-10.54-1.08,2.29-7.81,12-11,12-3.38,0-4.89-2.58-4.89-6.51,0-24.57,10.31-36.19,15.3-36.19,1.11,0,3.12,1.53,4,2.22a10.18,10.18,0,0,0,1-2.22c0.1-.28,1.55-0.14,1.55.29C538.11,429.16,537,437.34,536.8,439.21Zm-1.76-6c0-2.54-1.32-4-3-4-3.28,0-13.18,14.79-13.18,34.1,0,2.5,1,3.39,2,3.39,2.66,0,10.22-10.63,11.07-12.06,0.67-2.86,3.07-16.87,3.13-21.39C535.07,431,535,435.26,535,433.2Z" class="cls-2"/><path d="M535.29,624.39c0,13.52-4.46,29.34-10,29.34-4,0-15.26-21.14-15.95-21.14-1.58,0-11.07,21.73-17,21.73-0.92,0-1.83-.64-1.83-2.44,0-6.73-.51-42.79-0.33-44a6,6,0,0,1,2.42-.5c3.27,0,4.07.84,4.07,3.8,0,5,.12,32.49-0.34,36.23,2.93-.6,12.55-20.37,14.42-20.37,1.08,0,11.18,22,14.42,22,1.74,0,6.25-15.21,6.25-24.07,0-7.23-.23-17.88-0.54-21.34a9.88,9.88,0,0,1,3.07,3.07A108.48,108.48,0,0,1,535.29,624.39Z" class="cls-2"/><path d="M522.45,225.62c1.32-.34,5.17-1.73,7.63-1.73,1,0,2,.22,2,1,0,0.42-8.44,2.61-10,2.49-2,6.47-2.5,13.28-3.81,19.91,7.93,0,12.43-2.4,14.86-2.4a1.62,1.62,0,0,1,1.58,1.72c0,0.88-1.15,1.21-2.46,1.21-3.66,0-15.38,2.38-16.45,2.38a1.58,1.58,0,0,1-1.48-.86c0-5,9.28-43.54,9.22-52.7a15.4,15.4,0,0,0,3.14.2c3.52,0,9.31-1,12.38-1.37,0,0.35.13,0.56,0.13,0.87,0,2.23-9.59.95-11.86,3.22C526.14,200.82,522.42,223.48,522.45,225.62Z" class="cls-2"/><path d="M529.2,342.93c-2.7,0-6.51.41-7.23,0.95a200.14,200.14,0,0,0-3.56,32.92c0,2.76,1.38,4.43,2.85,4.43,5,0,5.88-9.63,6.32-13,1.24,0.72,1.66,2.15,1.66,3.77,0,5.57-2.1,11.26-8.11,11.26-4.21,0-7.28-4.4-7.28-11.7,0-7.79,1.84-20.71,2.89-27.34-3.67.22-12.5,2.82-14.35,2.82-0.46,0-.45-0.35-0.73-0.92,0.43-2.34,9.75-3.24,11.73-3.59,1.26-.22,2.53-0.45,3.79-0.65,0.26-1.56,2.21-10.63,2.89-13.61,0.4-1.76.26-5.61,2.08-5.61,2.12,0,2.85,1.45,2.85,4.32,0,4.6-1.74,9.67-2.69,14.17,2.45-.16,5-0.61,7.57-0.61a11.65,11.65,0,0,1,5.75,1.19c-0.14.52,0.14,1.54-.56,1.54S532.13,342.93,529.2,342.93Z" class="cls-2"/><path d="M534.52,310.94c-0.1,1.11-.54,2.23-1.41,2.23-0.6,0-2.59-1.16-2.59-2.05s3.07-7.55,3.07-10.29c0-.68-0.25-0.94-0.63-0.94-3.76,0-5.13,5.13-5.81,10.63-0.39.51-1.55,2.28-2.79,2.29a1.24,1.24,0,0,1-.72-0.24c0.38-2.35,4.74-33,7.56-33a1.44,1.44,0,0,1,1.53,1.23c0,3.17-2.53,12.77-3.52,18.46a5.5,5.5,0,0,1,3.85-1.51c2.3,0,3.16,1.53,3.16,3.3C536.2,304,534.78,307.86,534.52,310.94Z" class="cls-2"/><path d="M519.35,492.13c-1.07,0-1.87-.52-1.87-1.19,0-1.13,12-4,15.36-4,1,0,1.63.29,1.63,0.91C534.46,489,520.84,492.13,519.35,492.13Z" class="cls-2"/><path d="M491.71,728.92c13.07,0,8.25,25,15.31,25,6.47,0,7.53-18.81,11.48-18.81,0.29,0,.4.78,0.4,1.8,0,5-2.93,19.41-11.36,19.41-14.34,0-8.29-25-16.37-25a15.68,15.68,0,0,0-9.48,3.68c-2,1.6,6.11,18.17,7.46,21.71,0.29,0.75.22,1-.05,1-7.09,0-17.16-32.46-17.16-42.1,0-2.15.32-3.56,1.74-3.56,2.84,0,2.64,4.39,2.92,6.4a95.26,95.26,0,0,0,3.26,14.46c3.52-1.11,25.94-18.94,50.61-18.94a6.29,6.29,0,0,1,3.55.79C526.53,715.87,507,719.77,491.71,728.92Z" class="cls-2"/><path d="M532.67,505.3c0,2.46-7.08,26.13-7.08,49,0,6.64.9,14.16,0.9,21.36,0,13.64-4.56,24.32-14.41,24.32-19.55,0-23.54-19.53-37.93-19.53a39.43,39.43,0,0,0-12.44,1.77,25.13,25.13,0,0,1,11.68-2.91c18.72,0,23.8,18,37.7,18,8.35,0,10.11-8.88,10.11-18.46,0-10.64-1.59-34.09-.79-34.09-4.48,3.87-8.78,7.86-14.49,7.86-7,0-11.34-4.26-11.34-10.66,0-22,2.61-37.72,5.77-37.72,3.46,0,3.43,2.25,3.43,4.2,0,6.68-3.34,16.2-3.34,33.83,0,4,2.23,7.59,5.67,7.59,20.57,0,17-47.71,23.75-47.71A3.33,3.33,0,0,1,532.67,505.3Z" class="cls-2"/><path d="M527.21,156.07c0,9.42-7.64,29.53-12,29.53-1,0-2.24-1-2.36-3.61s-2.16-45.39-1.39-46.47a1.26,1.26,0,0,1,1-.33C516,135.19,527.21,140,527.21,156.07Zm-4.34,1.1c0-7-1-16.77-8.68-19.83,1.05,8.86,2.19,40.5,2.49,43.33C521.49,173.68,522.87,165.12,522.87,157.17Z" class="cls-2"/><path d="M528.79,269.15c0,2.24-5.46,2.11-7.17,2.3-2.87.32-5.66,0.7-8.54,0.88-0.05-.83.3-1.52,0.29-2.34,4.81,0,10.53-1,15.37-1.17A3,3,0,0,1,528.79,269.15Z" class="cls-2"/><path d="M509.85,471c0,10.56,8,35.58,7.33,37.58a2.09,2.09,0,0,1-1.3.47c-6.84,0-11.47-25.37-11.46-39.73,0-25.42,15.88-44.58,15.88-57.79,0-3.49-.92-3.83-2.1-3.83-3.36,0-29.89,72.16-31,72.16-0.32,0-2-.4-1.9-1.83,1-12.7,11.63-81,11.81-81.88,0-.75,3.16-0.63,3.16,0s-7.95,57.95-8.92,65c3.19-8.71,13.79-56.12,26.73-56.12,2.69,0,6.4,1.75,6.4,6.22C524.5,422,509.85,448.58,509.85,471Z" class="cls-2"/><path d="M523.33,299.11a5.09,5.09,0,0,1-1.9.26c-1.65.09-1.34,0.83-2,3-0.93,3-2.26,5.76-3.23,8.7h-0.22c-0.69,0-1-.6-1-1.53,0-2.79,2.2-8.61,2.38-9.75-0.36,0-1,.08-1.63.08s-1.2-.12-1.2-0.7a1.56,1.56,0,0,1,.05-0.4,2.29,2.29,0,0,0,.54,0,57.59,57.59,0,0,0,7.37-1.07A10.46,10.46,0,0,1,523.33,299.11Z" class="cls-2"/><path d="M514.12,210.15c0,22-13.27,35.6-23.41,32.16,0.35-2,0-16.23,0-31,0-11.28-.91-25.74-1.29-28.13C511.73,183.21,514.12,189.28,514.12,210.15Zm-21.53-24.23c0.86,2.15,1.4,22.93,1.4,25.71,0,9.19,1.13,18.63.36,27.77,5.62,0.88,15.08-12.51,15.08-30.18C509.42,191.71,501,185.92,492.59,185.92Z" class="cls-2"/><path d="M184.58,769.85c1.92-4.79,3-9.56,4.54-14.33,1.48-4.46,3.88-8.73,5.85-13s4.15-8.48,6.44-12.44a52.92,52.92,0,0,0,5.86-13c1.37-5.28,1.68-10.9,2.78-16.25,2.16-10.48,5.82-18.88,8.49-29.28,1.26-4.91,2.32-10.37,5.42-13.47a33.5,33.5,0,0,1,3.37-2.34c7.4-5.51,14.92-12.28,22.4-17.57,8.89-6.28,17.73-12.49,26.35-19.18-2.25-7.81-6-14.13-8.78-21.37-5.32,3.8-10.06,8.94-15.08,13.91-4.29,4.25-11.16,9.18-18.45,10.39-3.65.61-10.75-1.07-12.59-3.51-1.15-1.52-1.82-4.52-2.49-6.88-2-7.32-3.22-15.28-4.83-22.84-0.65-1.4-3.11-1.94-4.25-3.81-0.68-1.11-.82-3-1.17-4.39s-1.18-3.56-.88-4.69c0.24-.87,1.44-0.8,1.76-1.61-1.45-1.63-4.1-2-5.71-3.51-1.1-2.68-.59-6-1.76-8.2a11.78,11.78,0,0,0-4.68-3.66c-3-.73-6.36.2-9.37-0.58-3.46-.9-5.19-3-7.32-5,6.12-15.15,13.22-29.33,16.69-47.14-2.47.77-9.64-.08-9.52-1.17-0.21-.4,1.46-0.66,2.2-0.88,2.62-.75,5.8-1.59,8.34-2.34A75.27,75.27,0,0,1,192,485.42c-0.51-1.92-1.49-4.13-1.46-5.86s1.14-3.65,1.61-5.42,0.79-3.69,1.32-5.56c-0.58.06-7.33,2.34-8.2,2.78s-6.48,4.26-6.59,6.44c-0.06,1.26-.21,7.72.15,8.93a3,3,0,0,0,1.76.15,7.35,7.35,0,0,1,1.9-.58c1.21,0.07,1.46.81,2.63,1.32-0.51.45-1.23-.13-1.61-0.29-1.74,1.68-3.29,3.54-5.12,5.13-2.17-.44-4.38-0.13-5.42-1.61-0.63-.91-1.95-5.95-2-7.32a14,14,0,0,1,.44-4.39c1.71-6.95,10.08-13.91,15.52-17a19.32,19.32,0,0,0,4.1-13.62,46.27,46.27,0,0,1,.29-8.78c0.39-2.56,1.87-4.9,1.9-7,0-2.29-1.12-4.88-1.76-7a18.26,18.26,0,0,1,.59-12.3c0.57-1.55,1-3.24,1.61-4.54a57.6,57.6,0,0,1,13.18-17.71,5.55,5.55,0,0,0,2-.88c7.85-4.31,18.36-6.71,27.52-10,3.33-1.18,6.59-2.63,10-3.66,6.7-2,13.75-4.26,20.79-6.59a98,98,0,0,1,16.69-3.81,50.51,50.51,0,0,1,5.86-.88c3.22-.07,6.4.9,9.37,1.46,1.44,0.27,3,.49,4.54.88,1.36,0.35,2.87,1.14,4.1,1.17,1.4,0,3.06-.81,4.39-1.32a23.91,23.91,0,0,0,4.1-1.61c2.46-1.6,3.87-4.42,6.29-5.71,11.92-1.17,24.65-3.4,36.75-2.34,6.4,0.56,10.87,2.4,14.49,5.42s5.26,7.52,9.08,10.83c2.18,0.27,4.25-1.32,6.29-1.32a48.64,48.64,0,0,1,9.51.73c2.89,0.58,6.05,1.11,8.05,2,1.47,0.69,3.15,2.81,4.54,4.25s3.14,3,4.25,4.39c1.91,2.37,3.37,5.44,5.12,8.34,1.5,2.48,3.7,5.92,4.39,8.93a106.63,106.63,0,0,1,2.49,24,11.16,11.16,0,0,0,.44,3.22,2,2,0,0,0-1.32.73c-0.64.8-.78,2.37-1.17,3.37,2.38,3.24,5.1,6.13,6.88,10,0.38,0.58.47-.22,1.17,0.15,2.33,3.58,5.59,7.32,7.91,11a21.08,21.08,0,0,1,.29,3.37,22.49,22.49,0,0,1,.29,2.93c-0.12,1.69-1.4,3.88-2.34,5.56a63.34,63.34,0,0,1-6.15,9.52c-1.26,1.54-2.88,2.86-3.66,4.69-1.65,3.86-2.18,9.94-2.78,14.64-0.35,2.76.1,5.53,0,8.34s0.13,5.73-.44,8.2c-0.54,2.32-2.2,3.48-2.93,6.15-0.83.63-2,.91-2.78,1.61a44.62,44.62,0,0,1,.44,10.25c-0.62,9.64-3.62,21.07-6.29,24.45-3.7,4.66-9.53,8.7-14.35,12.44-2.5,1.95-5.92,2.63-7.91,5-2.28,2.7-4.22,6.9-5.71,10.39a84.1,84.1,0,0,0-4.25,11.86c-0.93-4.86.23-9.09,1-13.18A30.72,30.72,0,0,1,385,575c1.06-2.62,3.26-4.86,5-6.88a57.53,57.53,0,0,0,5.12-6.29c5.74-4.41,10.13-10.47,13.76-16.69a27.91,27.91,0,0,0,4.25-15.67c-3,.76-6.22,2.57-9.37,3.07-3.36.54-6.09-2.09-9.08-2.63,1.77,4.26,3.16,8.75,1.76,14.64-1,4.38-2.18,7.32-5.71,9.08a40.25,40.25,0,0,1-13.61,3.51c-3,2.36-4.78,6-7.76,8.34-1.93,1.54-4.41,2-6.29,3.81,2.78,6.81.1,12.11-4.39,15.22-1.34.93-3.73,2-3.8,3.37-0.14,2.21,2.65,2.57,3.66,4.25,0.63,2.86-2.39,4.43-2.19,7.32,0.15,2.19,3.43,5.76,1.9,6.73-0.66.42-2.35-1.17-3.22-1.76-1.31-.88-2.24-1.4-3.37-2,2.12,5.27,5.11,10,7.76,14.79a138.44,138.44,0,0,0,8.93,13.62c6.26,8.71,12.44,17.43,18.74,26.21,9.16,12.76,20.81,24.19,30.74,36.74,2.37,3,11.32,17.94,12.15,20.64,2.4,7.82,4.77,15.91,6.59,24.15,2.49,11.28,3.32,21,6.87,31.38C442.06,770.25,188,770.59,184.58,769.85ZM351.32,601.22c0.28-2,1.62-3.32,1.46-5.13-0.19-2.11-2.62-3.2-3.66-4.68C349.68,594.85,350,598.55,351.32,601.22Zm-1.76-29.28c0.39-3.89-.77-7.5-1.76-11,0-.09,0-0.17-0.15-0.15-0.26,5.92-1.06,14.54-1.17,21.08C347,578.77,349.21,575.48,349.56,571.94Z" class="cls-2"/><path d="M511.46,296.16a1.51,1.51,0,0,1-1.37-1.53,2,2,0,0,1,1.56-2,1.81,1.81,0,0,1,1.91,1.41A2.23,2.23,0,0,1,511.46,296.16Z" class="cls-2"/><path d="M503.23,172.89A137,137,0,0,1,500.74,158c-5.78,1.86-5.57,2.29-5.57,5.76,0,2.41-.59,10-3,10a1.44,1.44,0,0,1-.54-0.12c0.26-5.6,4.21-36.75,5.33-37.53a2.41,2.41,0,0,1,1.38-.46c3.75,0,8.71,34.57,9.24,37A25.34,25.34,0,0,1,503.23,172.89Zm-5.42-30.16c-0.54,5.34-1.28,10.65-2,16,1.52-1,3.29-1.52,4.83-2.49A76.41,76.41,0,0,0,497.81,142.73Z" class="cls-2"/><path d="M511,99a0.79,0.79,0,0,1-.29,1c-0.61.33-5.28-5.23-10.62-5.23-3.74,0-6.78,2.54-6.78,5.15,0,10.14,13.26,9.37,13.26,20.57,0,6.46-8.6,10-19,10-10.68,0-21.56-5.08-15.69-7.38,4.43,5.18,11,4.68,15.69,4.68,7.83,0,13.31-3.34,13.31-8.07,0-8.35-12.8-10.28-12.8-19.67,0-4.64,5.26-7.79,10.33-7.79C506.79,92.29,510.58,97.66,511,99Z" class="cls-2"/><path d="M506.19,310.86a1.13,1.13,0,0,1-.84.78c-0.68,0-1.34-.94-1.34-2.29,0-.81,1.95-5.83,2.56-7.51,0.78-2.15.82-3.27,2.26-3.27a1.75,1.75,0,0,1,1.9,1.31C510.73,300.94,507.52,308.47,506.19,310.86Z" class="cls-2"/><path d="M505.85,326.67c0,3.55-1.31,10.57-3.3,6.55a19.88,19.88,0,0,0,1.06-6.44c0-3.42-1.51-6.49-3.52-6.49-3.88,0-5,8.54-5,16,0,17.5,8.94,17.31,8.94,35.37,0,11.82-4.9,18.77-12.17,18.77-6.33,0-9.89-2.47-9.89-8.06,0-4.94,2.86-11.24,7.71-10.85-1.79,3-5,6.63-5,10.79,0,2.9,1.61,5.94,6.85,5.94,4.78,0,7.81-6.11,7.81-16.73,0-17.46-8.63-17.66-8.63-35.41,0-8.87,2.89-18.4,9.64-18.4C504.36,317.75,505.85,321,505.85,326.67Z" class="cls-2"/><path d="M504.45,495.71c-1.88-.53-29.77,4.54-30.61,4.62-1.25.13-1.11,2.44-1.42,3.61-1.82,6.7-19.24,79-20,81.64-0.6,2.16-1.33,2.84-2.29,2.84a11.88,11.88,0,0,1-2.93-.78c0.81-6,17.95-71.37,20.35-86.08-4.37-.22-17.43,2.32-19.65,2.52-0.85.08-1.61,0.19-2.24,0.19-1,0-1.7-.44-1.68-2.12,3.77-.69,49.59-7.51,60-9.08a6,6,0,0,1,.51,2.17A1.29,1.29,0,0,1,504.45,495.71Z" class="cls-2"/><path d="M493.84,286.8c-10.38,0-11.06-12.92-11.06-23.55,0-10.83,7-11.89,9.84-11.89,5.39,0,9.86,9.08,9.86,15,0,2.49-2.65,3.68-11.56,3.68-1.88,0-3-.55-3,1.7,0,8.48,2.87,13.15,6.6,13.15,5.86,0,10.32-5.31,10.32-6.53C504.89,283.23,500.32,286.8,493.84,286.8Zm-1-32.33c-6.54,0-4.17,10.91-4.74,14.34,8.57,0,10.28-1.14,10.28-3.64C498.33,259.6,495.73,254.47,492.8,254.47Z" class="cls-2"/><path d="M474.88,565.2c-2.2,0-2.51.7-3.73,0.7-0.81,0-1.1-.73-1.1-1.71,0-3.11,11.95-56.27,14.28-56.27a4.37,4.37,0,0,1,3.71,1.85c-1.24,4.18-10.62,48.38-11.69,53.75,1.31-.06,2.63-0.1,4-0.1,15.86,0,23.21,7.84,23.21,10.74,0,0.39-.11.48-0.38,0.48C501.45,574.64,495.8,565.2,474.88,565.2Z" class="cls-2"/><path d="M493.91,310.31c-1,0-1.61-1.9-1.61-3.62a12.67,12.67,0,0,1,.17-2.16c-1.45.86-3.66,7-5.44,7-1,0-1.7-1.27-1.7-2.8,0-2.83,2.35-6.42,2.35-9a3,3,0,0,0-.21-1.16,2.41,2.41,0,0,1,.68-0.11c1.33,0,1.88,1.4,1.88,3a8.29,8.29,0,0,1-.95,4.12c1.59-1.23,3.87-5.85,5.31-5.85,0.64,0,.86.94,0.86,2.12,0,1.85-.35,4.36-0.17,5.05,2.93-2.15,6.16-9.12,6.73-9.12a0.93,0.93,0,0,1,.45.19C502.4,300.62,496.63,310.31,493.91,310.31Z" class="cls-2"/><path d="M493.55,88.84c0,0.08-18.12,1.89-22.19,1.9,0,13.88.54,25.08,17.86,25.08,1.37,0.94-4.39,2.35-9.63,2.35-9.74,0-15.7-9.21-15.7-22.75,0-19.36,7.44-32.12,18.4-32.12C493.46,63.3,494.76,85.07,493.55,88.84ZM480.88,66.19c-7.76,0-9.52,17.89-9.52,22.54,6.06-.26,13.61,0,18.15-1.61C490.69,78.87,486.54,66.19,480.88,66.19Z" class="cls-2"/><path d="M487.61,173.74c-2.17.6-8.34,3.42-10.11,3.42s-2.36-1.23-2.36-3.7c0-4.2,1.69-31.15,1.69-34.22,0-1.46.06-2,.48-2s1.5,0.81,2.84,1.68c0,4.2-.3,27.67-1,35,1.67,0.07,4.61-1.42,6.58-1.42A1.73,1.73,0,0,1,487.61,173.74Z" class="cls-2"/><path d="M479.88,425.3c4-5.37,4.47-9.89,4.47-16.38,0-3-1-9.65-5.23-9.65-8,0-21.52,47.54-21.52,60.44,0,3.12.42,9.24,6.74,9.24,7,0,13.53-11.64,15-15.45,0-4.63.09-12-3.25-12-1,0-1.71.75-2.42,0.39,0.46-1.55,2.54-2.14,3.74-2.14,3.79,0,6.88,4,6.88,17.74,0,28-17.18,35.47-31.86,35.47-5.86,0-12.55-2.47-12.55-8.16a19.74,19.74,0,0,1,.56-4.26c0,2.8,1.85,9.35,11.19,9.35,12.31,0,27.58-13.51,27.58-30-0.67,1-5,11.86-16.37,11.86-4-.15-7.4-0.83-10.17-4.28-1.56-1.94-2.69-5.46-2.69-9.6,0-14.38,16.05-61.66,28.41-61.66,7.1,0,9.86,6.4,9.86,13.23C488.31,420.57,484,425.3,479.88,425.3Z" class="cls-2"/><path d="M470.11,629.17c0,4.27,3.33,20.62,11.5,22a3.09,3.09,0,0,1-2.44,1.08c-5,0-11.06-8.52-13.52-18.64-3.32,4.45-11.89,15.09-18.15,14.49,0.52-3.19,9.59-7.31,16.11-16.89,1.83-2.69,1-16.12-5.21-16.12-2.68,0-3.88,3.82-4.8,3.82a0.48,0.48,0,0,1-.44-0.53c0-.43,1.39-5.13,7.22-5.13,4.52,0,7.41,7.76,8.5,11.29,9.33-11,13.52-25,17.13-25C491,599.51,470.11,625.09,470.11,629.17Z" class="cls-2"/><path d="M466,704.68c-10.34,0-14.89-7.53-14.89-17.72s6.91-22.84,18.8-22.84c10.27,0,14.28,10.66,14.28,20C484.22,700.77,475.4,704.68,466,704.68Zm3.28-37.29c-6.56,0-11.7,9.75-11.7,18.5,0,6.36,2.61,15,8.47,15,9.17,0,11.86-8.73,11.86-14.91C477.94,675.88,477.38,667.4,469.31,667.4Z" class="cls-2"/><path d="M482.63,230.6c-17,1.95-26.73,5.31-29,5.31-0.63,0-1.58,0-1.58-.47,0-1.7,15.45-4.45,17.57-4.83,0.17-7.76.2-15.52,0.29-23.28a8.07,8.07,0,0,1-3.22.62c-1.6,0-1.94-.49-1.94-1.07,0-.32.06-0.68,0.06-1a8.27,8.27,0,0,0,.95,0c3.64,0,12.64-3.59,14.81-3.59a10.92,10.92,0,0,1,1.2,0c0.28,0.26.13,0.2,0.13,1.29,0,0.44-5.39,2.89-8.14,3,0.2,2.6-.48,19.13-0.63,23.72,3-.37,6-1.18,9.08-1.46A2.76,2.76,0,0,0,482.63,230.6Z" class="cls-2"/><path d="M479.32,356.49c0,9-2.6,24.57-12.85,24.57-9.35,0-12.79-8.46-12.79-25.83,0-18.31,6.83-25.83,13.78-25.83C475.29,329.41,479.32,336.69,479.32,356.49Zm-12.06-24.8c-4.68,0-8,8.66-8,23.54,0,11.65.53,22.35,7.22,22.34,6.27,0,8.05-8.47,8.05-21.08C474.51,340.61,472.5,331.7,467.26,331.7Z" class="cls-2"/><path d="M474,245.08c-4.43,0-5.37,6.44-5.37,8.21,0,7.44,7.31,15.52,7.31,26.57,0,5.06-2.3,10.68-9,10.68-6.07,0-9.26-2.15-9.26-7.39,0-1.59.57-5.71,3.35-5.71,0.24,0,.33.18,0.33,0.52,0,1.17-1.1,1.61-1.1,5.53,0,2.88,3,4.06,6.06,4.06,3.74,0,5.24-4.27,5.24-7.91,0-8.24-6.62-18.57-6.62-25.84,0-6.53,3-11.34,8-11.34,4.63,0,6.74,2.42,6.74,6.88C475.78,250,477.45,245.08,474,245.08Z" class="cls-2"/><path d="M476.93,759.13c-5,0-43-41-43-96.41,0-25.51,6.92-49.45,8.77-59.11-3.43,2.69-17.11,27.45-17.38,28.55,0.82,1.13,8.68,3.82,8.68,4.38a0.7,0.7,0,0,1-.56.67c-0.6,0-7.22-1.7-9.4-2.94-7.64,10.34-10.19,20-11.73,20-0.36,0-1.26-.3-2-0.4,0-3.07,27.08-56.51,35.69-56.51,1.53,0,2.13,1.74,2.13,4.67,0,11.57-9.54,33-9.54,56.11,0,29.65,14.51,70.37,41.1,99.09A2.76,2.76,0,0,1,476.93,759.13Z" class="cls-2"/><path d="M469.3,320.12c1.33-.19,5.49-3.37,5.49-5.21a0.92,0.92,0,0,0-.26-0.63c-2.33-.31-3.18-1-3.18-3.16s2.6-2.64,3.69-2.64c2.4,0,3.18,2.45,3.18,4.7C478.23,316.64,471.45,320.36,469.3,320.12Z" class="cls-2"/><path d="M464.53,195.35c0,5-1.45,5.24-4.63,5.24-3.45,0-2.63-2.42-2.63-5.73,0-32.55-1.77-37.68-6.33-37.68-5.28,0-10.84,6-13,8.13a83.27,83.27,0,0,0-.93,12.77c-0.06,7.41-.35,14.79-0.68,22.22-0.1,2.33-3.17,3-4.82,1.19-1.36-1.47.41-26.85,0.37-30.46,0-3.29.37-6.57,0.32-9.84,0-1.07-.29-4.56-1.13-5.24,0.88-.62,1.27-1.06,2.05-1.06,3.11,0,5.07,3.87,5,7.07,2.68-3.7,7.55-7.74,12.4-7.74C463.45,154.19,464.53,166.43,464.53,195.35Z" class="cls-2"/><path d="M465.51,301.55a17,17,0,0,1-.45,4.08,82.69,82.69,0,0,1-8.81.93,7.91,7.91,0,0,0-.39,2.86c0,2,1.95,2.59,3.11,2.59,1.88,0,4.74-1.68,5.21-2.51a5,5,0,0,1-5.16,4.32c-4.91,0-5.82-1.7-5.82-7.21,0-3.21,2.23-9.4,6.86-9.4C463.31,297.2,465.51,299.47,465.51,301.55Zm-5-1.54c-3.29,0-3.85,3.87-3.87,4.52a41.14,41.14,0,0,0,5.39-.44,1.33,1.33,0,0,0,.28-0.91C462.28,301.92,461.56,300,460.48,300Z" class="cls-2"/><path d="M461.26,213.91c-1.94,0-3.26-3.62-6.6-3.62-4.53,0-12,6.07-12.3,8.55-0.13,1.14-.16,15.08-0.47,17.81-0.11,1,0,2.67-1.25,2.67a10,10,0,0,1-1.92-.09c-0.65,0-.65-2.85-0.65-4.28,0-13.11.21-25.29,3-25.29,1.32,0,.92,3.4,1.32,4.39,2-1.85,7.55-5.83,12-5.83C460.07,208.22,462.79,213.91,461.26,213.91Z" class="cls-2"/><path d="M451.62,269.8c0.31,4.94.33,9.88,0.42,14.82,0,1.29.79,4.29,0.79,6.6,0,2.74-.71,3.21-1.82,3.21-2.49,0-2.48-4.37-2.48-10.82,0-8.77-1.53-27.81-1.61-28.57a8.59,8.59,0,0,1,6.55-3.39c4.25,0,7.33,1.68,7.33,5.21C460.8,262.31,454.87,267.9,451.62,269.8ZM457.07,258c0-3-1-4.21-2.93-4.21-2.83,0-3.37,1.1-3.37,3.13,0,1.56.82,5.44,0.82,10C452.81,265.66,457.07,262.44,457.07,258Z" class="cls-2"/><path d="M433.7,147.66c-5.11,0-6.76-1.61-6.69-4,0.93,0,2.21,1.91,6.69,1.91,11.33,0,19.43-10.67,19.43-26a93.78,93.78,0,0,0-.79-12.46c-0.4.82-2,12-13.13,12-9.8,0-20.22-6-20.22-22.26,0-26.74,12-37.37,23.63-37.37,9.17,0,13.1,7.95,13.1,10.44,0,4.72-.7,5.57-1.78,5.57-0.82-1.73-5-12.59-11.91-12.59C434.09,62.83,425,77.3,425,98c0,14.26,6.91,18.08,14.61,18.08,5.5,0,12.77-8.88,12.24-13.94-0.27-2.56-1.28-10.8-1.67-12.34,0-.64,3-0.8,3-1,2.73,2.24,7.39,12.8,7.39,30C460.48,139,449.46,147.66,433.7,147.66Z" class="cls-2"/><path d="M441.54,409c0,3.15,7.19.82,9.77-1,0-1.63-.3-4.41-0.3-5.18C448,402,441.54,405.28,441.54,409Zm10.79,2.08a22.2,22.2,0,0,1-8.94,2.12c-2,0-6.11-.92-6.11-3.65,0-6,11.48-9.67,13.59-9,0.12-3.65-1.05-5.43-3.94-5.43-2,0-5.52,1.63-7,2.06-1.43-1.81,4.68-3.85,7.28-3.85,4.81,0,7.89,2.29,7.89,7.9,0,2-.16,4.14-0.06,6.15a8.83,8.83,0,0,0,1.58,5C456.48,413.17,453.4,412.88,452.33,411.1Z" class="cls-2"/><path d="M455.41,417.25c-0.45,1.81-.07,2-2.08,1.89a33.7,33.7,0,0,0-4.45,0c-3.22.21-6.49,0.76-9.72,0.42,0.44-.44-0.47.46-0.15-1.9,1.94,0.29,3.91-.21,5.86-0.29,2.4-.11,8.6-2.07,10.54-0.15C455.21,418,454.14,416,455.41,417.25Z" class="cls-2"/><path d="M451.16,524.55c0.26-1.32-.86-9.75-5.06-9.75-7.71,0-11.13,10.43-11.13,17.95,0,9.81,9.79,13.14,9.79,26.93,0,19.76-16.59,27.49-25.85,27.49-7,0-12.15-3.5-12.15-9.41a12.73,12.73,0,0,1,2.09-7.39l0.08,0c0.14,0,.18.18,0.18,0.48,0,1.17-1,2.59-1,6.28,0,4.67,4.31,6.83,11.05,6.83,7.22,0,18.62-11.43,18.62-23.75,0-13-8.8-11.63-8.8-26.76,0-14,8.52-22.4,16.37-22.4,5.87,0,7.83,4.79,8,8.25C453.53,521.48,453.88,524.86,451.16,524.55Z" class="cls-2"/><path d="M440.94,386.82c-11.86,0-10.47-13.09-10.47-40.53,0-4.09.61-14.86,0.57-15.94,0.58-.73,4.93-1.08,5.41.41,0,31.91-2.77,53.78,5.11,53.78,3.79,0,7.17-2.83,7.84-4.33C450.93,381.41,447.74,386.82,440.94,386.82Z" class="cls-2"/><path d="M448.38,314.19a0.75,0.75,0,0,1-.81.49c-0.92,0-3.53-2.94-7.11-6.52-2.18-.23-3.72,6.49-4.52,7.93-1,0-2.58-.57-2.58-1.26s2.73-10.34,4.34-12.94a2.34,2.34,0,0,1,2.42.72c0.67,1.06-.38,2.72-0.81,3.82,1.17-1,5.78-6.41,7.86-6.41a0.94,0.94,0,0,1,.63.27,37.53,37.53,0,0,1-5.76,6.38C442.62,308.67,448.6,314.22,448.38,314.19Z" class="cls-2"/><path d="M433.2,269.39c-1,.09-5.62-0.31-5.62.57,0,1.5-.69,1.34-1.7,1.33a1.08,1.08,0,0,1-1.44-1.1c0-.5.08-1.26,0.08-3.12,0-4.3-.09-12.45-0.16-14.3,0-.72-0.14-1.16-0.14-1.47,0-.92,2.18-2.11,7.82-2.11,4.47,0,10,3.36,10,9.25,0,6.31-5.86,9.46-6.67,10.65a156.66,156.66,0,0,0,9.34,19,5.54,5.54,0,0,1-1,.42C440.87,288.55,439,280.84,433.2,269.39ZM439,259c0-4.51-3.21-7.42-6-7.42-5.27,0-5.33,0-5.33,3.53,0,4.29-.06,8.49-0.06,12.84C431.08,267.93,439,265.6,439,259Z" class="cls-2"/><path d="M403.66,204.69c-11,0-16.68-7.94-16.68-19.12,0-16.32,12.36-28.77,23.91-28.77,8.88,0,15.29,8.64,15.29,21.08S418.21,204.69,403.66,204.69ZM420.46,179c0-11.79-5.35-18.64-10-18.64-5.91,0-17.2,10.84-17.2,24.1,0,9.25,6.32,16,11.28,16C410.8,200.49,420.46,189.8,420.46,179Z" class="cls-2"/><path d="M426.83,294.42c-5,0-8-4.44-8-10.58,0-4.61,3-11.28,7.25-11.28,5.61,0,7.88,5.89,7.88,9.88C433.91,289.83,431.1,294.43,426.83,294.42Zm-0.68-20c-2.2,0-4.82,4.76-4.87,9.27,0,4.25,2.33,8,5.2,8,1.81,0,5.07-1.64,5.16-9.12C431.67,279.8,429.29,274.35,426.15,274.38Z" class="cls-2"/><path d="M424.08,316.82c-1.41,0-2.48-1-2.48-1.77,0-1.39,4.34-10.91,5.26-14,0.89-.08,1.73,0,1.73,1.24C428.58,304.36,424.28,316,424.08,316.82Z" class="cls-2"/><path d="M415.8,244.63c-3.54,0-17,.08-17.8.08-0.71-.89,3.26-30.3,3.38-31.39,0-.6,6.57-0.9,9.42-0.9,8.4,0,12.24,2.07,12.24,7.28a7.56,7.56,0,0,1-5,7.23c2.4,0,7.35,2.66,7.35,7.75C425.42,240.44,421.29,244.63,415.8,244.63ZM422,234c0-3.93-5.73-4.69-18.46-4.69,0,1.53-1.22,10.68-1.17,13.76C413,243,422,241.11,422,234Zm-3.11-14.3c0-4.48-4.4-5.18-14-5.18,0.09,4.39-.66,8.68-1,13C413.47,227.52,418.94,225.82,418.94,219.67Z" class="cls-2"/><path d="M419.54,599.07c0,1.44-13.4,53-15.37,58.56a1.62,1.62,0,0,1-1,.45c-5.52,0-6.13-51.78-7.23-57.4-1.62,5.4-10.13,27.33-13.45,27.33-2.78,0-9.73-33.26-9.73-35.16,0-.72,1-1.38,2.22-1.38s2.52,0.31,2.52,1.57c0,6.94,4.53,27.06,6.15,30.63,12.49-28.18,10.48-31.1,13.87-31.1,6.4,0,2.2,18.86,7.06,55.7,1.35-3.33,11.24-48.67,11.77-49.63a0.36,0.36,0,0,1,.3-0.08A16.27,16.27,0,0,1,419.54,599.07Z" class="cls-2"/><path d="M418.37,312.28c-1.58.8-14.63,2.76-17.9,2.76a0.87,0.87,0,0,1-.73-0.14c0-2.21,2-4.72,3.44-6.84,1.09-1.62,3.43-7.13,5-7.13,0.54,0,1.31.38,2.18,0.36-0.3.39-4.49,7.62-6.15,11.27,2.66-.11,10.49-1.9,11.82-1.9C417.59,310.68,417.77,311.53,418.37,312.28Z" class="cls-2"/><path d="M414.64,271.82a0.93,0.93,0,0,1-1.1.06c-0.42-2.26.5-4.52,0.45-6.78-0.05-2.44-1.27-3.82-2.88-3.82-3.66,0-9.56,5.77-9.56,16.65,0,6.52,1.5,12.81,5.58,12.81,2.36,0,5.25-1.58,7.59-2.76,0.09,2-3.78,5.12-7.59,5.12-5.94,0-9.19-8.51-9.19-15.2,0-11.61,7.13-18.56,13.2-18.56,3.54,0,5.19,1.68,5.19,4.93C416.32,267.12,415.91,269.83,414.64,271.82Z" class="cls-2"/><path d="M408.56,325.27c-3.49,0-8.23.65-11.7,0.94-0.65,1.93-1.93,14.41-2.65,17.11,3.85,0.07,7.5-1.51,11.33-1.59,1.91,0,2.65,0,2.65.88a6.71,6.71,0,0,1-.37,1.73c-1.79-.16-10.63.64-13.91,0.73-0.15.94-2.87,16.33-3.08,16.54,4.41-.63,17.58-2.39,19.73-2.39,1.1,0,2.33.73,2.33,1.19,0,0.31-.3.54-1.27,0.53-4.59-.06-24.33,3.19-25.77,3.45,0-13.27,4.79-32.81,4.39-39.67,4.54,0,19-2.11,22-2.11,1.81,0,3.45.2,3.45,0.94C415.73,325.1,414.31,325.27,408.56,325.27Z" class="cls-2"/><path d="M413.83,140c-5.41,0-30.27,10.23-33.57,12-0.17,2.19-8,52-9.36,53.57-1.9,2.27-4.27-1.81-3.87-3.6,1.26-5.63,7.3-46.18,8.1-48.24-12.69,2.92-17.17,4.87-19.08,4.87-1,0-1.9-1.48-1.9-1.92,0-1.46,7.19-2.44,8.31-2.82,14.7-5,42.32-16.25,51.65-16.69C414.86,137.55,414.53,138.77,413.83,140Z" class="cls-2"/><path d="M410.05,124.7c0,1.59-.46,2.66-1.7,2.66-3.24,0-5.29-3.84-44.3-52.38,0.23,3.14,14.3,49.27,14.3,50.91a1.15,1.15,0,0,1-1.14,1.41,3.18,3.18,0,0,1-1-.2c-2-3.39-15.81-52.78-15.81-56.91,0-1.16,1.21-1.5,4-1.5,1.3,0.59,35.23,44.68,41.14,50.51C405.4,115,404.34,71.56,404.9,69a5.41,5.41,0,0,1,.91-0.08c1.85,0,1.83,1.58,1.83,3.6C407.64,102,410.05,121.9,410.05,124.7Z" class="cls-2"/><path d="M383.82,321.65c0.64-2.34,4.37-10.69,1.38-12.75A3.55,3.55,0,0,1,382,311c-2.1,0-4.23-2.14-4.23-5.47,0-3,2.73-5.23,6.37-5.23a5.81,5.81,0,0,1,5.74,6.23C389.85,315.73,386,321.65,383.82,321.65Z" class="cls-2"/><path d="M362.65,301.76c-1.94,0-2.62-2.63-2.62-5.47,0-7,3.16-70.09,3.09-78.86,0-2-1.16-5,1.21-5,15,0,24.26,2,24.26,29.47C388.59,293.11,378.11,301.76,362.65,301.76Zm5.79-87.27c0.94,6-1,77-1,84.47,11-1.43,16.4-30,16.4-47.87C383.82,220.93,375.19,214.49,368.45,214.49Z" class="cls-2"/><path d="M370,144.27c-5.55.69-21,1.48-24,1.48s-2.47,1.43-6.78,20.44c3.72-.13,7.43-0.42,11.16-0.42,5.46,0,5.85.24,5.85,1s-1.22,1.12-2.5,1.12c-1.09,0-13.42,0-14.89.21-1.19,4.3-2,10.26-3.27,14.54,5.3,0.16,20.12-1.15,22.24-1.42,1.18-.15,1.94.37,1.94,1,0,0.44-.42.92-1.39,1.21-3.16,1-13.2,2-20.64,2-4.54,0-8.13-.26-8.63-1.13-1.22-2.13,8-41,11.69-41.33,2.08-.17,15.55-1.15,23.57-1.15,3.2,0,5.49.22,5.92,0.72C370.1,142.23,370,144.27,370,144.27Z" class="cls-2"/><path d="M359.81,333.66c0.79,0.13,12.74-.58,12.74-5.75,0-5.49-6.57-7.46-9.45-7.69-1.84-.15-2.37,1.26-2.37,2.92C360.73,324.64,360.16,331.46,359.81,333.66ZM376.68,356c-1.2.47-2-.84-2.54-1.69-1.81-3.14-6.57-15.38-8.17-18-0.9-1.5-2.55-1-4.37-.89-2.51.11-2.23,1.12-2.52,3.24a58.37,58.37,0,0,1-2.64,11.25c-0.88-.23-3.3-0.66-3.81-0.73a58.67,58.67,0,0,1,.44-6c1-8.07,3.42-16,3.52-24.13,7.88-2.41,20.17.63,20.17,8.21a8.25,8.25,0,0,1-7.93,7.86c0.93,2.87,6.73,14.61,8.4,18.48C377.57,354.34,378.43,355.35,376.68,356Z" class="cls-2"/><path d="M367,132.86a1.42,1.42,0,0,1-1.29-.9c-1-1.91-9.26-22.17-9.79-23.16s-8.18-1.7-14.94-1.7-14,.61-14.53,1.74c-0.74,1.45-2.43,8.67-4.84,8.67a1.5,1.5,0,0,1-.92-0.36c4.06-15.38,18.39-49.93,19.55-50.59a2.57,2.57,0,0,1,1.25-.38c2.63,0,28.71,63.94,28.71,65.23C370.23,132.13,367.79,132.86,367,132.86Zm-26.4-61.05c-0.64,3-12.55,31.73-13.69,34.35,3.64-.38,23.12-1,27.69-1Z" class="cls-2"/><path d="M346.08,197.59c-1.23,0-8.49-.22-16.5-0.22-9.53,0-20.25,1.1-23.07,1.1-1.5,0-3.4-.26-3.4-1.86,0-2.56,14.71-47,15.6-53.1,0.4-2.76.34-4.14,3.19-4.14,1.54,0,3.08.66,3.08,2.31s-14.25,51.73-14.25,53.93c6.24,0,35.06-1.42,36.6-1a7.94,7.94,0,0,1,.16,1.28C347.48,196.71,347.27,197.59,346.08,197.59Z" class="cls-2"/><path d="M341.81,317.92c-3.12,0-5.72-.71-5.72-4.08,0-9.51,2.49-77.1,2.64-83.38,4.21-.5,11.38-2.89,14.28-2.89,1.29,0,1.59.53,1.59,1.27s-4.94,2.17-11.19,2.93c1.13,6.7-.73,31.29-0.73,41.87,1.55-.29,4-1.56,5.09-1.56,0.92,0,1.9.56,1.9,1.17s-5.33,2.25-7,2.86c-0.13,6.27.39,28.28,0.27,39.1,4.83,0,9.5-2.28,14.35-1.76a4.26,4.26,0,0,1,.39.91C357.71,315,346.6,317.92,341.81,317.92Z" class="cls-2"/><path d="M337.7,328.39c-2.79-.17-11.31,1.56-12.82,1.53-1.86,0-1-.59-1.24-1.39,5.88-1,23.37-3,25.92-3.16,1.36-.07,1.2,1.62-0.25,1.85-0.8.13-6,.75-7,0.89-0.32.42-4.47,21.3-6.71,22.38-0.26.12-2.46-.13-2.34,0C333.18,348.77,337.33,329.38,337.7,328.39Z" class="cls-2"/><path d="M322.58,129.85c-13.18,0-15-25.68-24.3-25.68a3.92,3.92,0,0,0-1.93.31c0.07,0.32,2.08,18.27,3.72,26.57a2.68,2.68,0,0,1-2.19,1.17c-2.16,0-6.83-31.1-10.25-49.92a20.49,20.49,0,0,1,15-6.18c8.49,0,13.52,4.54,13.52,10.68,0,12.11-9.65,14.81-13.91,16.44,11.61,0,13.59,23.08,21.61,23.08,3.23,0,8.4-1.65,8.4-2.88C332.29,126.36,329.57,129.85,322.58,129.85ZM301.86,78.29c-3.37,0-9.93,2.75-9.93,4.37,0,0.16,3.91,17.79,4.2,20.14,2.58,0.26,15-4.6,15-15.77C311.15,81.57,308.42,78.29,301.86,78.29Z" class="cls-2"/><path d="M331.41,238.35c0,18.37-8.53,20.5-8,22.65,1.63,6.41,7.24,38,6.67,42.2-0.23,1.68-3.14,1.41-3.51,1.61a17.63,17.63,0,0,1-1.34-3.14c-1.38-4.2-5.25-34.71-6.12-39.9-2.4.36-3,.91-5.42,0.29,4.27-1.3,11-10.62,11-22.67,0-13.22-7.11-18.57-9.74-18.57a6.23,6.23,0,0,0-2.12.25c-1-2.32-.23-3.16,1.32-3.26,8.75,0,17.27,5.48,17.27,20.54h0Z" class="cls-2"/><path d="M323.21,324a1.22,1.22,0,0,1-.56.15c-1,0-1.23-2-1.66-3.16-1.12-2.91-3.93-6.33-7.23-6.33-3.13,0-6.54,4-6.54,8,0,8.16,14.36,11.53,14.36,20.43,0,9.35-8.21,12.1-11.83,12.1-7.79,0-12.55-3.41-12.55-7.43,0-3.13,1.44-6.33,2.18-6.64,0.39-.16,1.75-0.26,1.66.18a19.46,19.46,0,0,0-.39,3.81c0,3.63,1.92,6.69,7.92,6.69a8.06,8.06,0,0,0,7.74-8.36c0-7-14.16-10.15-14.16-18.76,0-6.36,3.74-12.74,10.1-12.74,7.25,0,11.09,6.63,11.09,10.82A5.43,5.43,0,0,1,323.21,324Z" class="cls-2"/><path d="M311.15,228.85c0,4.3-.33,6.94-1.57,9.28-2,.77-4.56.81-8,0.81-0.32,2.64-1.41,13.94-1.41,22.38,0,7.38,2,10.5,3.25,10.5,5.13,0,5.44-5.68,6.22-9a6.6,6.6,0,0,1,1.49,3.86c0,3.79-3.61,7-8.22,7-6.44,0-6.44-8.2-6.44-29.3,0-21.46,4.55-29.3,8.61-29.3C308.67,215.1,311.15,220.27,311.15,228.85Zm-9.46,8.63c1.75-.3,3.51-0.49,5.27-0.73,1-8.46,0-19.09-2.34-19.09S301.69,229,301.69,237.48Z" class="cls-2"/><path d="M301.17,156.38c0,6.42-1.31,15.35-2.22,16.22a4.38,4.38,0,0,1-2.94,1.53c-2.18.13-18.39,1.11-20,1.23-0.39.73-1.53,8.68-1.53,12.79,0,2.92,1.27,8.23,6.41,8.23,9.06,0,17.16-10.38,18.43-10.38,0.21,0,.41.17,0.41,0.68,0,4.42-8.17,12.44-21,12.46-5.33,0-10.38-5.14-10.38-14.6,0-29.71,17-42.43,24.09-42.43C300,142.11,301.17,149.57,301.17,156.38Zm-4.74-2.74c0-3-.61-8.21-3.63-8.21-5.54,0-15.93,18.76-15.93,27.34,5.72-.39,11.51-0.16,17.13-1.46A84.49,84.49,0,0,0,296.42,153.64Z" class="cls-2"/><path d="M307.09,301.78a2,2,0,0,1-2,2.3c-2.79,0-4-1.15-4-6.7,0-5,.05-20.46.62-21.94a3.64,3.64,0,0,0,1.75.41,7.63,7.63,0,0,0,4-1.49C307.56,276.12,307.08,299.46,307.09,301.78Z" class="cls-2"/><path d="M304.55,269.47a3.31,3.31,0,0,1-1.39-.37c0.11-.46.64-26.83-0.29-26.94,0.24-1.38,4.74-2.51,5.1-1,0.26,1.1-.42,4.59-0.42,8.13,0,2.3.63,15.49-1.16,19.42A2.89,2.89,0,0,1,304.55,269.47Z" class="cls-2"/><path d="M303.45,70c-1.92,1.25-23.1,9.8-24.58,10.36,0,0.87,6.8,48.15,6.8,50s-0.51,3.5-2.64,3.5c-3.56,0-3.81-11.34-4.31-14.22-2.1-12-3.21-24.8-7-36.45-6,2.75-24,9.56-28.1,9.56-1.28,0-2.16-.38-2.2-1.37,0-.76.16-1.6,1.21-1.6,8.5,0,54.14-20.62,59.55-21.39A3.1,3.1,0,0,1,303.45,70Z" class="cls-2"/><path d="M287.92,308.37a2.43,2.43,0,0,1-2.19,2.19c-2.83,0-3-1.69-3-4.7,0-7.45,1.72-33.12,2.55-48.33-1.75.15-7.12,0.17-8.05,0.29-0.14,1.5-2.56,41.85-2.56,43,0,2.16-.59,3.51-2.57,3.51s-2.63-1.4-2.63-6.46c0-5.68,3.4-78,3.65-78.6,1.28-.28,4.4.31,4.68,1.46,0.72,2.18-.81,28.89-0.73,35.28,2-.18,3.91-0.21,5.88-0.21,2.79,0,2.92-.89,2.92-3.83,0-4,1.19-33.91,1.74-34.17,0.07,0.56,5.5,2.08,5.27,3.07C292.82,221.32,288.34,305.66,287.92,308.37Z" class="cls-2"/><path d="M283.67,357.21c-3.94,0-5-5.5-5-6.86-4.6,3.11-12.71,11.54-20.61,11.54-5.22,0-7.08-3.32-7.08-8.21-0.07-5.05,6.86-28,7.19-34.81a30.3,30.3,0,0,0,5.27,1.32c-0.39,4.31-7.82,29.52-7.82,35a3.93,3.93,0,0,0,4.17,4c4.44,0,11.85-7,18.65-12.16,3-7.48,6.8-17.64,6.8-26.22,0-2.19.48-3.65,1.65-3.64,3,0,3.57.87,3.57,3.65-0.51,5.71-8.05,24-8.05,28.71,0,2,.59,5.7,2.42,5.7a29.39,29.39,0,0,0,7.46-1.48C292.63,354.71,289.51,357.21,283.67,357.21Z" class="cls-2"/><path d="M290.63,209.31a2.55,2.55,0,0,1,.13.74c0,1.14-1.33.85-2.73,0.85-2.41,0-17.31.86-22.35,1.1,0.1-.13,1.22,3.1,1.22,11.48,0,12.18-.76,34-0.76,44.27,0,9.19-1.57,31.47-1.57,33.45,0,3.16-.6,4.66-1.34,4.66-2.46,0-3.88-1.47-3.88-13.52,0-13.14,1.37-26.31,1.53-39.32,0.13-10.09-.38-38.12-0.41-39.15-0.07-2.41-1.12-1.91-3.25-1.91-5.63,0-20.2-.82-23.36-0.82-1,0-2.66.41-4.07,0.41s-2.42-.33-2.46-1.66a2.85,2.85,0,0,1,0-.37,14.09,14.09,0,0,0,3.16.32c1.38,0,4.09-.44,5.83-0.44,5.24,0,18.6.35,23.47,0.28C262.45,209.63,290.4,208.68,290.63,209.31Z" class="cls-2"/><path d="M262.8,184.56c-2.58,0-9-15.05-10.46-17.5a21.64,21.64,0,0,0-3.11,2.27c-2.84,3-1.77,28-7.58,28-1.87,0-2.51-1.35-2.51-2.87,0-5.4,6-23.87,6-40.9,0-3.64,0-6.36,2.49-6.36a3.29,3.29,0,0,1,3.14,3c0.19,4.84-1,10.93-2.12,16.2,6.57-5.7,15.63-16.69,17.27-16.69a0.87,0.87,0,0,1,1,.7c0,2.57-10.57,12.12-10.57,14.11,0,1.6,8.31,15.21,8.31,18A1.93,1.93,0,0,1,262.8,184.56Z" class="cls-2"/><path d="M264.9,120.77c0,7.57-8.24,14.38-23.38,14.38-16.65,0-27.68-15.79-27.68-20.5a1.06,1.06,0,0,1,1-1.31c2.92,0,11.93,17.74,27,17.74,9.91,0,15.33-3.21,15.33-10.13,0-19.82-44.86-14.23-44.86-34.4,0-15.94,15.44-24.22,33.73-24.22,10.94,0,15.17,7,15.17,12.08,0,4.39-.85,6.43-2.23,6.43a0.62,0.62,0,0,1-.71-0.37c0-1.21.47-1.53,0.47-4.36,0-4.11-3.63-10.06-13.13-10.06-14.54,0-27.1,12-27.1,20.07C218.53,101.12,264.9,100.07,264.9,120.77Z" class="cls-2"/><path d="M249.28,325.31c-1.12.64-4.59,1.09-5.42,0.73,0.19-1.23,8.63-98.52,8.64-104.82,3.29-.07,4,1.06,4.12,4.14C256.77,228.61,249.91,319.25,249.28,325.31Z" class="cls-2"/><path d="M236.65,156.67c0-1.31.82-2,.82-3.2,0-1.43-2.93-2.78-6.51-2.78-5.56,0-9,4.2-9,11.1,0,9.32,12.25,13.88,12.25,23.27S226,199.48,218,199.48c-5.53,0-9.51-6.69-9.51-12.84,0-2.47.42-3.51,1.27-3.51s1,0.28,1,.52c0,0.56-.34,1.74-0.34,3,0,4.64,3,9.28,7.47,9.28a10.87,10.87,0,0,0,10.69-11.18c0-8.55-13.05-12-13.05-21.64,0-11.91,9.24-16.07,15.19-16.07,4.34,0,9.77,1.72,9.77,5.15s-1.51,5-2.31,5C237.65,157.24,236.65,157.19,236.65,156.67Z" class="cls-2"/><path d="M237.13,307.3c-2.55,0-3.21-5.31-4-8.46-1-4-4-26.17-5.57-33.57-0.44.6-10.72,53.32-11.59,55.65-0.69,1.85-1.43,2.79-3.48,2.79-2.79,0-3.09-1.3-3.19-1.88-0.28-1.66-.81-93.19-0.76-96.71,0-1.46-1.3-3.42.75-3.77,1.82-.31,3.13-0.3,4.11,1.5,2,3.6,1.05,67.51,1.31,87.24,1.6-3.85,7.85-34.19,8.5-38.34,0.77-4.92,2.82-16,3.88-15.73,1.79,0.37,2,.79,2.63,2.77,1.05,3.51,4.82,29.36,7.4,38.28,1.76-7,9.38-74.83,8.93-77.44,0.49-.18,1.61-0.39,1.61.59C247.67,231.4,239.69,307.3,237.13,307.3Z" class="cls-2"/><path d="M213.58,377.52a2.51,2.51,0,0,1-2.36-2.43c3.67-15.12,15-58.6,17.13-58.6,0.58,0,1.3.16,2.34,1.36,0,3.24-12.25,47.46-13.91,55.63,4.77-1.29,22.88-9.28,24.57-9.28,1,0,2.41.86,2.41,1.48S216.73,377.52,213.58,377.52Z" class="cls-2"/><path d="M207.91,659.28c0,16.31-3.46,31.75-10.16,31.75-3.31,0-24.28.24-30.72-.61-0.36,5.47.78,9.27,0.78,24.62,0,12.58-5.18,31.45.66,31.45,10.62,0,21.52-20.8,21.52-32.79,1.31,0.25,1.93,1.48,1.93,3.25,0,16.7-11.36,32.12-23.28,32.12-14.39,0-6.56-19.52-6.56-34.26,0-18.17-4.4-36.39-4.4-50.55,0-20.83,7.55-26.92,31.66-26.92C205.39,637.34,207.91,647.26,207.91,659.28Zm-5.18-.67c0-14.36-2.42-18.39-14.28-18.39-19.09,0-24,11.4-24,25.23,0,8.4,0,23.24,4.85,23.24C202.61,688.68,202.73,693.2,202.73,658.61Z" class="cls-2"/><path d="M190.92,378.81c-9.48,0-16.93-3.54-16.93-15.79,0-11.33,4.23-18.66,9.24-18.66,11.23,0,11.45,14,11.45,15.21-1.3,2.64-12.56,4.53-15.23,5,0.25,3.38,4.36,11.56,11,11.56,7.24,0,12.74-17.73,13.08-18.67a2,2,0,0,1,1-1.09C206.1,358,202.38,378.81,190.92,378.81Zm-1.68-20.7c0.29-2.08,0-9.66-4.94-9.66-4.49,0-5.35,10.81-5,13.76C179.72,362.18,188.8,361.26,189.24,358.11Z" class="cls-2"/><path d="M183.07,629.69c-5.49,0-13.28-3.2-13.28-10.45,0-10.41,5.62-12,5.62-13s-1.62-2-1.62-3.88a7.88,7.88,0,0,1,1.85-4.8c-3.8-2-5.39-5.78-5.39-9.84,0-20.38,18.17-16.1,18.65-17.17,1-2.22,3.62-6.46,6.17-6.46,1,0,2.06.66,3,2.43-0.36.05-.54,0.15-0.77,0.15-0.62,0-.82-0.7-1.54-0.7-1.42,0-4.24,4.6-4.24,6.14,0,2.16,4.23,2.27,4.23,14.5,0,9.41-7,11.71-15.28,11.71-2.67,0-4.73,1.75-4.73,4.1a2.71,2.71,0,0,0,2.8,2.76c3.25,0,7.82-3.73,14.1-3.73,5.89,0,12.17,3.07,12.17,9.14C204.78,623.58,194.37,629.69,183.07,629.69Zm8.65-26c-3.77,0-8.59,3.43-15.19,3.43a22.18,22.18,0,0,0-2.22,9.11c0,8.78,4.82,11,9.16,11,8.67,0,14.91-7.86,14.91-14.51C198.37,606.8,196.45,603.69,191.72,603.69Zm-8.24-29.62c-5.53,0-7.45,6.31-7.45,11.44,0,6.83,2.23,9.72,7,9.72s8.24-4,8.24-10C191.27,579,189.1,574.07,183.47,574.07Z" class="cls-2"/><path d="M179.71,231.4c-21.2,0-32-25.68-32-64.44,0-67,2.74-109.27,24.71-109.27,22.83,0,23.19,55.86,23.19,84.35a25.61,25.61,0,0,1-.73,7.21c-0.68,2.31-2,1.91-3.77,2.26-1.34.27-23.33,4.06-31.27,5.42-1.9.33-4.29,0.28-4.29,2.47,0,26.6,8,67.15,22.28,67.15,13.06,0,14.73-39.77,14.73-44.1a1.66,1.66,0,0,1,1.62-1.85,1.87,1.87,0,0,1,1.83,2C196,186.62,196.5,231.4,179.71,231.4Zm-8.78-170c-10.26,0-13.35,38-13.43,37.87-0.58,2-1,16.59-.92,20.62,0.12,7.62-1.33,29.8-1.33,33.43,0,1.46,4.22.43,5.91,0.12,4.54-.83,22.84-3.38,26.94-4.83,0.16-.06.22-2.8,0.22-7.09C188.31,88.69,182.83,61.41,170.93,61.41Z" class="cls-2"/><path d="M193.8,333.66c-3.47-.31-4.25-0.6-4.25-15.45,0-3,.88-13.56.88-14.74s-0.68-.93-2.5-0.93c-3.37,0-20.37,3.32-22.53,2.42-1.45,3-2.1,19.74-2.1,22.29,0,1.6-.27,2.27-0.87,2.27a3.75,3.75,0,0,1-3-3.49c0-1.71,2.82-44.85,2.82-49.31,0-1.5-.52-3.94,1.14-3.94,2.32,0,3.08,1.5,3.08,3.4,0,3.72-.29,19.26-0.63,23.29-0.16,1.86-.6,3.89,1,3.89,2.56,0,23.41-1.59,23.77-3.51,0.32-1.71,2.57-31.06,2.4-33.25,1.86-.23,3.11,1.17,4,2.64C196.29,275.42,194.7,328.52,193.8,333.66Z" class="cls-2"/><path d="M173.17,259.62c0-2.14,4.6-14.44,4.82-18.17,4.39-.22,12.92,1,12.92,5.52,0,9.17-7.93,13.43-13.79,13.43A8.88,8.88,0,0,1,173.17,259.62ZM180.94,243c0,1.23-4.09,11.93-5.15,15.52,5.54-.19,12.11-4.31,12.11-11.51C187.91,243.89,183.42,243,180.94,243Z" class="cls-2"/><path d="M174.47,420.61c4.41,0.24,11.63-14.09,8.94-17a4.56,4.56,0,0,1-3.37,1.2c-1.85,0-3.86-2.88-3.86-6,0-2.54,1.91-5.3,6.22-5.3,3.69,0,5.54,4,5.54,10.39C187.94,416,177.18,422.72,174.47,420.61Z" class="cls-2"/><path d="M175.49,542.77c-6.53,0-8.27-17.36-8.27-30.19,0-8.7,3-14.43,6.32-14.43,7.48,0,9.9,12.23,9.9,20.71,0,5.25-9.21,4.87-11,4.87,0,6.89,1.32,15.18,4.67,15.18,2.8,0,5-8.48,4.09-12.13C185.06,528.86,184.8,542.77,175.49,542.77Zm-1.43-42.88c-3.84,0-2.89,12.69-2,21,2.11-.45,4.95-0.85,8.1-1.61C180.18,515.42,177.57,499.89,174.06,499.89Z" class="cls-2"/><path d="M180.36,456.41c-3.24,0-3.23-2.38-3.23-9,0-5.76,2-17.26-1.38-17.26-11.22,0-8.47,52-8.47,54.44s-0.62,3.38-1.73,3.38c-1.8,0-3.13,0-3.13-2.35s-1-36.21-1.2-42.06c-0.07-1.68-1.21-5.73,1.63-5.73,3,0,2.68,1.55,3.44,2.54,1.08-3.46,1.78-13.07,9.74-13.07s7.39,8.17,7.39,15.56C183.41,454.14,183.44,456.41,180.36,456.41Z" class="cls-2"/><path d="M172.8,410.4c0,2-16.86,8.8-18.58,8.8-1.07,0-1.48-.83-1.48-1.88,0-3.39,5.51-33.79,6-39.14a0.71,0.71,0,0,1,.84-0.58c1.42,0,4.21,1.27,4.21,2.2,0,5.24-4.82,33.94-5.75,35.69,2.39-1.31,12.28-5.42,14.49-5.42A0.27,0.27,0,0,1,172.8,410.4Z" class="cls-2"/><path d="M167.14,345.86a14,14,0,0,0-3.2,1.7c0.06,1.2.17,6.09,0.14,7.3-0.23,11.33,4.11,17.82,5.86,18.47-0.12,1.31-.12,1.31-0.88,1.61-6.68,0-8.89-12.57-9.29-15.29a54.88,54.88,0,0,1-.52-10.18c-2.1,1.05-10.19,6.56-11.71,3.22,3.82-1.89,7.88-3.24,11.57-5.42-0.14-.09,0-3.44,0-5a29.6,29.6,0,0,1-.1-3.75,9.36,9.36,0,0,1,4.4,1.39c1.25,0.85.79,3.64,0.58,5,1.06,0.11,7-2.81,8.34-2.63C172.11,343.37,168.59,345.23,167.14,345.86Z" class="cls-2"/><path d="M164.14,265.28c-1.59,0-2.14-1.65-2.15-3.23-1.34.12-4.62,2-8.05,2-2.91,0-4.35-1.54-4.35-3.66,0-7.8,10.32-12,15.09-12a5.9,5.9,0,0,0-4.82-2c-1.84,0-3.9,2-4.69,2a1.84,1.84,0,0,1-1.62-2,11.5,11.5,0,0,1,5.94-1.76c4.13,0,8.42,1.19,8.42,3.19C167.91,253.79,164.14,265.28,164.14,265.28Zm0.36-14.72c-4.7.66-12.05,5.8-12.05,9,0,1.43,1.86,2.13,3.65,2.13,2.32,0,4.55-1.61,6.6-2.48A41.8,41.8,0,0,0,164.49,250.56Z" class="cls-2"/><path d="M163.34,608.62C161,606.16,145,585.57,142.85,581.8c0.74,5.89,2.37,28.24,2.37,28.8a0.83,0.83,0,0,1-.5,1,3.06,3.06,0,0,1-2.45-1.88c-1.69-5.5-2.47-16.74-2.47-28a17.11,17.11,0,0,0-.9-5.65c0.85-1.14,1.17-2.2,2.88-2.28,2.69-.13,4.29,3.8,5,5.15,3.77,7,9.07,14,13.92,20.24-1.35-6.06-8.19-38.85-9.16-40.76-0.45-.88-0.29-1.22.14-1.22a4.85,4.85,0,0,1,3.11,2.33c1.71,3.86,10.27,43.16,10.25,46.89,0,1.6-.24,2.72-0.83,2.73A1.35,1.35,0,0,1,163.34,608.62Z" class="cls-2"/><path d="M168.83,564.56a1.85,1.85,0,0,1-1.61,1.68c-4.29,0-7.65-12.92-18.39-35.55-0.09.18,3.7-7.16,4-7.2,2,6.92,9.43,27.41,11.24,33.73-1.78-9.51-6.38-61-8-64.28,1.07,0.54,3.43.59,4.08,1.59S168.83,561.94,168.83,564.56Zm-3.65-20.22a1.06,1.06,0,0,1,.07-0.16A0.66,0.66,0,0,0,165.19,544.34Z" class="cls-2"/><path d="M153.71,637.5a2.2,2.2,0,0,1-1.34-.52c0-2.32,3.53-4.06,3.53-9.83,0-4.88-8.32-7.9-14.35-7.9-10.83,0-13.77,10.43-13.77,18.07,0,20.28,26.56,45.74,26.56,78.48,0,25.64-15,32.37-21.44,32.37-1,0-6.15,0-6.15-1.55a1.26,1.26,0,0,1,1.28-.84c1.42,0,3.53.29,3.85,0.29,9,0,16.22-13.22,16.22-30.18,0-28.63-26.37-50.63-26.37-81.13,0-13,8.58-18.37,20.26-18.37,8.52,0,16.67,4.35,16.67,10.78C158.66,634.28,156,637.5,153.71,637.5Z" class="cls-2"/><path d="M155.77,484.28c-2.33,0-5.64-1.17-5.64-6.28,0-3.47-.62-36.48-0.54-37.91,2.42,1.11,5.22.54,5.51,4.52S154,474.32,154,480.15a2.22,2.22,0,0,0,2.33,2.1c0.75,0,1.21-1.31,1.9-1C159,482.7,157.43,484.28,155.77,484.28Z" class="cls-2"/><path d="M151.93,431.74c-2.42-.11-2.14-0.69-2.41-2.88a6.54,6.54,0,0,1-.1-1.07c0-1.24.24-1.9,0.6-1.9s0.56,0.1.95,0.1a1.59,1.59,0,0,0,.53-0.1C151.5,426.73,152,431.3,151.93,431.74Z" class="cls-2"/><path d="M150.47,298.72a2.79,2.79,0,0,1-2.62-.35c-0.43-.28,1.27-2.24,1.27-4.39,0-5.7-2.6-10.54-9.43-10.54-7.57,0-14.9,7.59-14.9,12.83,0,15.24,27,8,27,23.78,0,11.94-9.18,18.28-19.16,18.28-9.58,0-18.24-5.3-18.24-12.76a8.51,8.51,0,0,1,.68-3.57,4.56,4.56,0,0,1,2.57-.65c0.15,0.34-.6,2-0.6,4,0,5.32,8.24,9.75,15.54,9.75,8.09,0,13.22-5.44,13.22-15.47,0-12.9-26.42-5.87-26.42-22.19,0-10.06,11.43-15.61,20.5-15.61,7.25,0,12.1,4.76,12.1,11.76C152,295.71,151.74,297.8,150.47,298.72Z" class="cls-2"/><path d="M150.76,361.76c-1.28,3.2-4.95,7.34-8.72,7.34-3,0-5.5-1.42-5.5-4.61,0-2.5.85-5.3,0.37-7.87a10.08,10.08,0,0,0-.51-1.73c0.14-.06,4,0.43,4.73,1.2,0.92,1,.14,3,0,4.48-0.15,2-1.32,6.11,2,6.11C145.87,366.68,148.51,361.62,150.76,361.76Z" class="cls-2"/><path d="M136.43,271.7c0,1.82,1.59,2.37,3,2.37,1.89,0,4-.8,5.72-0.86a10.18,10.18,0,0,1-6.37,2.66c-4,0-5.28-2.31-5.28-6.5,0-5.89,8.85-17.67,8.85-21.06a0.78,0.78,0,0,0-.85-0.93c-6,0-15,28-19.86,28a1.62,1.62,0,0,1-1.47-1.85c0-2.52,14.7-37.7,17.66-37.7,0.41,0,.59.55,0.58,1.2-0.05,3.66-7.28,17.21-7.9,18.73,2.46-4.44,5.36-10.17,11.72-10.17a3.46,3.46,0,0,1,3.24,3.54C145.52,253.36,136.43,266.58,136.43,271.7Z" class="cls-2"/><path d="M142.22,532.64c-4.72,0-8.15-9.79-8.15-20.82,0-6.7.76-17.3,6.88-17.3,5.57,0,9.3,7.75,9.3,18.06C150.25,523.58,147.16,532.64,142.22,532.64ZM145,512.1c0-4.48-1.25-15.54-3.78-15.54-2,0-1.8,12.42-1.8,15.94,0,4.29.57,16.11,3.13,16.11C144,528.6,145,519.29,145,512.1Z" class="cls-2"/><path d="M147,417c-1.86,0-12.76.07-16-1.84a1.43,1.43,0,0,0,0-.31,5.72,5.72,0,0,0-.18-1c0.32-.13,1.9-0.18,3.56-0.4,0.12-3,.41-21.46.25-22.59-1.14.09-4.4,0.44-7.45,0.44-3.28,0-6.33-.52-6.31-2.34,4.37-.31,8.81-0.24,13.16-0.24,6.07,0,9.58-1.6,11.41-1.6s2.18,0.86,2.18,1.29c0,1.05-3.06,1.21-3.64,1.26-1.62.14-3.74-.36-3.88,1.55-0.46,6.41-.45,15.62-1,22,1.39,0.35,4.42-.38,5.91-0.38a7.76,7.76,0,0,1,3.67.85,1.46,1.46,0,0,1,0,.27C148.73,415,148.23,417,147,417Z" class="cls-2"/><path d="M143.29,487.53c-3.93,0-6.65-4.68-6.65-11.53s0.67-16.26-2.53-16.26c-1.32,0-2.35,1.06-3.66,1.59-1.76.72-1.07,4.42-1,6.29,0.07,5.81.55,11.61,0.79,17.42,0.07,1.73-.68,2.4-1.6,2.4a6.26,6.26,0,0,1-2.88-1c-0.61-2.51-2.17-84.05-3.07-84.32a4.89,4.89,0,0,1,1.82-.4c3.86,0,4.19,23.48,4.47,29.1,1.33-1.46,4.33-4.25,7.91-4.25,3.88,0,6.83,2.79,6.83,10.83,0,8.56-2.4,14.81-8.45,20.5,4.47,0.77,5.4,5.52,5.4,9.53,0,15.07,2.21,17.69,3.52,17.69s2.3-2.72,3.66-3.5C148.4,484.31,146.1,487.53,143.29,487.53ZM137,429.4c-2.18,0-7,2.77-8,3.64,0,2.73.4,22,.58,27.4,2.54-3.85,11.21-14.52,11.21-22C140.74,433.54,139.38,429.4,137,429.4Z" class="cls-2"/><path d="M144,565.25a13.69,13.69,0,0,1-3.66,2c-2.65,0-.2-26-0.15-32.23a31.63,31.63,0,0,1,4.39-.59C144.64,534.75,144.1,559.09,144,565.25Z" class="cls-2"/><path d="M138.84,349.25c0-1.68.68-2.72,2.61-2.72a2.46,2.46,0,0,1,2.63,2.29c0,1.11-1,1.78-2.34,1.78S138.84,350.17,138.84,349.25Z" class="cls-2"/><path d="M119.38,416.41a1.47,1.47,0,0,1,.35.91c0,0.51-.26.95-2,0.95-8.47,0-16.68,1.76-21.08,1.76-1.88,0-3.11-.54-3.11-2,0-2,10.71-38,10.55-38.3,1.38-.88,19.45-0.86,26.79-1.76,2.78-.34,7.16-1.42,9.79-1.42,1.16,0,2.09.29,2.09,1,0,2.34-25.76,4-33.25,3.95,0,0.54.07,1.07,0.07,1.61,0,5.06-1.76,10-2.71,14.93,1.87-.11,5.75-0.91,7.31-0.91,1.29,0,2.06.33,2.06,1.64-3,1.07-6.91,1.5-9.72,2.07-1.33,4.87-3.38,10.89-5.07,15.64C102.39,416.48,119.15,416.18,119.38,416.41Z" class="cls-2"/><path d="M136.19,226.09c0,1.47-1.84,2.3-2.91,2.3-2.69,0-3.65-.52-3.65-6.76,0-3.54-.35-19.88-0.35-32.41a79.2,79.2,0,0,1,1-13.53c-3.87.11-18,2.39-19.15,4-0.07,6.39-.81,12.81-0.81,19.2,0,11.92-.39,16.92-2.89,16.92-4.18,0-5.37-1-5.37-4.1,0-5.57,2.29-17.29,2.29-45.39,0-6.39-.09-90.4.29-90.47a9.12,9.12,0,0,1,1.52-.12c4.5,0,4.91,4.66,4.91,8.87,0,11.55.76,72.94,0,92.31,17.22-3.6,19.14-2.69,19.14-9.65,0-5.86,1.7-87.15,2.09-92.57,0.29-4,.2-16.47,3.59-16.47s3.43,6.79,3.14,9.13C138.49,71.86,136.19,220.4,136.19,226.09Z" class="cls-2"/><path d="M138.41,610.51c0,1.32-1,1.75-2.16,1.75-3.41,0-6.54-3.55-8-9.39-2.2,3.84-8.42,14.48-17.32,14.48-5.47,0-9.87-4.46-9.87-9.08,0-6.77-.47-23.92-0.47-26.47,0-2.9.75-4,1.87-4,3.39,0,4.06,2.52,4.06,4.81s-0.29,4.75-.29,6.18c0,4-1,26.34,6.37,26.34,4.37,0,15.08-13.92,15.08-15.81,0-6.09-1.11-26-1.76-26.35a5.8,5.8,0,0,1,1.61-.19c2,0,5,.86,5,5.7,0,4.54.21,31.52,4.45,31.52a4.57,4.57,0,0,0,1.36-.29A3.07,3.07,0,0,1,138.41,610.51Z" class="cls-2"/><path d="M117,742.8c-11.59,0-24.54-7.73-24.54-32.54,0-4.24,1.08-15.08,1.19-15A22.09,22.09,0,0,1,96,695a3.37,3.37,0,0,1,2.21.56,4.3,4.3,0,0,0-.27,1.7c0,11,2.55,42.87,19.22,42.87,7.16,0,15.06-14,15.06-26.92,0-14.71-9.28-33.43-14-33.43a8.61,8.61,0,0,0-1.28.1,2.05,2.05,0,0,1,2.31-2.16c5.22,0,17.75,10.84,17.75,36C137,735,125.3,742.8,117,742.8Z" class="cls-2"/><path d="M132.53,551.93c0,10.1-11.46,16.85-21.67,16.85-13,0-22.4-9.13-22.4-13.12,0-.7,4.73-1,11.44-7.71,14.44-14.44,11.89-32.31,13-33.42,0.51-.51,3.88-1.58,6.79-1.58,6,0,10.19,3.26,10.33,10.11,0.12,6.1-4.67,12.52-10.59,14.37C124.89,538.73,132.53,541.45,132.53,551.93Zm-19.43-13.46c-2.11,4.87-13.26,18-19.59,19.9,2,2.9,10.5,7,15.66,7,9.25,0,18.75-6.12,18.75-15.48C127.94,542.53,118.58,538.47,113.11,538.47ZM119.22,515c-2.61,0-2.11.62-2.11,2.89,0,11.24-1.76,15-3.49,19.26,5-.53,12.69-6.05,12.69-13.69C126.31,517.7,124.37,515,119.22,515Z" class="cls-2"/><path d="M127.19,374.06c-0.47-.16-4.68-0.44-4.68-2.93,0-.6.54-9.3,0.15-11.86-2.47.36-10.21,1-11.56,1.32,0.11,1.53.1,15.1-2.7,15.1-1.85,0-4.35-1.39-4.35-3.73,0-1.64,1.5-23.81,3.18-23.81,3.3,0,4.11.41,4.11,5.33,0,2.13-.2,4.41-0.24,5.79,6.1-.82,9-1,11.64-1.27,0-1-.17-8.37-0.17-9.44a1.12,1.12,0,0,1,.83-1.29c3.51,0,4.14.69,4.14,11.5C127.53,364.93,127.29,371.69,127.19,374.06Z" class="cls-2"/><path d="M66.59,482.15c0,5.4,1.53,12.34,4.53,15,2.08-2.13,5.89-4.58,9.17-4.58,2.35,0,3.41,1.43,3.43,2.53,0,1.42-1.46,4.38-7.86,4.38-1.1,0-3.68-.62-4.62,0-2.58,1.63-5.41,9.67-5.41,21.56,0,9.39,8.25,16.34,14.8,16.34,14.9,0,22.4-9.82,22.4-19.4,0-6.53-.4-10.68-1.69-12-1-1-3-1.12-5-1.12-7.43,0-14.7,6.06-14.7,11.11,0,2.79,2.31,5,4.27,5,2.3,0,2.69-.88,4.39-0.74a3.86,3.86,0,0,1-3.9,2.5,6.24,6.24,0,0,1-6.14-6.59c0-5,4.49-14.77,19.63-14.77,5.38,0,8.52,2.65,12.88,2.65,5.68,0,9.94-3.52,9.94-6.38a1.4,1.4,0,0,0-1.59-1.63c-1.58,0-3.93,1.12-5.19.94-0.21-1.67,2.32-2.78,4.74-2.78,2,0,4.19.78,4.19,2.68,0,6.13-7.73,10.12-15,10.12a14.53,14.53,0,0,1-5.82-1.09c0.14,3.93.35,8.14,0.35,12.29,0,11.24-6.83,23.53-24,23.53-9.78,0-22.08-7.55-22.08-18.33,0-13.08,5.37-20.71,10.5-24.81a19.49,19.49,0,0,1-9-16.64c0-12.64,5.16-21.57,16.05-21.57,8.59,0,13.72,4.74,13.72,11.82,0,8.18-2.82,9.76-5.74,9.76-4.55,0-6.89-2.07-6.89-4.47,0-2,1.73-4.23,3.64-4.22a3.23,3.23,0,0,1,3.3,3.16c0,0.92-.21,1.51-0.21,1.93s0.64,0.68,1.82.68c1.67,0,2.3-2.21,2.3-6.6,0-5-4.49-9.47-10.45-9.47C68.78,463,66.59,475.22,66.59,482.15Zm13.73,11.76c-2.21,0-5.43,2.27-7,3.56a37.36,37.36,0,0,0,4.12.23c2.53,0,5-1.4,5-2.8C82.43,494.22,81.79,493.91,80.33,493.91Z" class="cls-2"/><path d="M108.63,491.16c-6.12,0-12.51-3.18-12.51-10.23,0-5.3,3.6-11.7,4.57-11.85,1.1,1.35-1.74,6.42-1.74,11.39,0,3.25,5.1,7.45,9.45,7.45,5.77,0,8.94-7.14,8.94-13.73,0-16.57-16.46-12-16.46-30.1,0-12.41,5.67-17.74,11.22-17.74,6.2,0,7.39,7.12,7.39,10.35,0,0.75-2.07.79-2.07,0,0-2.87-2-7.19-4.87-7.19-3.9,0-5.55,7.36-5.55,14.35,0,16.54,14.71,9.36,14.71,30.9C121.72,482.43,117.77,491.16,108.63,491.16Z" class="cls-2"/><path d="M99.54,692.68c-12.63,0-21.86-8.93-21.86-24.17,0-19.28,8.18-34.33,19.95-34.33,13.9,0,21.36,16.92,21.36,28.55C119,680.09,111,692.68,99.54,692.68Zm13.3-29c0-11.18-6.33-26.56-15.7-26.56-7.71,0-13.26,17.91-13.26,30.72,0,10.56,7.07,21.46,15.25,21.46C105.45,689.31,112.83,676.05,112.83,663.69Z" class="cls-2"/><path d="M110.65,63.85c-4.82,1.15-12.29.56-18,2-4,1-1,146.16-1,160.82,0,6.61-.66,12.49-5.4,12.49-4.1,0-5.4-2.77-5.4-7,0-5.63,1.94-13.81,1.94-21.23,0-23.29.38-123.54,0.33-131,0-3.68,1.88-13.23-2.45-13.22-3.63,0-16.79,2.52-18.92,2.52-2.75,0-2.47-1.89-2.75-3.34a2.51,2.51,0,0,0,.62,0c7.17,0,42.94-4.27,48-4.27,2.86,0,3.27.2,3.27,1.79A0.34,0.34,0,0,1,110.65,63.85Z" class="cls-2"/><path d="M80,333.31c4.56,0,18.69-9.9,21.29-12.84,0.27-4,2.31-32.57,2.92-35.56-3.77.63-35,13.33-35,33.74C69.22,328.42,74.16,333.31,80,333.31Zm25.81-1.88c0.08,2.65.67,5.17,2.8,6.48a9.59,9.59,0,0,1-1.17,1.17c-3.83,0-6.52-5.77-6.29-14.64-3.66,2.76-13.05,12-23.41,12-6.34,0-15.86-4.43-15.86-19,0-29.1,32.72-34.7,41.19-34.7,1.16,0,2.35-2.37,2.08-12.61,0-6.65-6.45-11.78-13.59-11.78-10,0-22.46,18.24-22.76,21.12-0.83,0-1.55-1.35-1.55-2.39,0-1.21,9.47-21.28,23.94-21.28,13.84,0,19.35,9,19.35,17.81C110.52,279,105.8,323,105.8,331.42Z" class="cls-2"/><path d="M97.06,687.74c-0.72,0-1.7-.28-1.7-0.6,0-2.2,7.71-8.74,10.35-8.74a2.09,2.09,0,0,1,1.5.49,1.59,1.59,0,0,1-1,1.32c-2.35,0-7.72,4.24-7.72,6.69A1.85,1.85,0,0,1,97.06,687.74Z" class="cls-2"/><path d="M86,380.83a3.63,3.63,0,0,1-1.53-.19c-0.35-9-7-22.54-7.61-24-0.71,1.41-10.49,50-13.24,50-1.65,0-2.08-1.26-2.11-2.87s3.15-58.35,3.34-60.12c2.73,0,4.23.19,4.23,2.94,0,4.55-2.75,47.36-3.21,47.56,0.32,0.25,10-40.86,10.1-41.28,7,0,5.86,5.57,11.71,20.93,4.17-10.63,7.74-21.67,9.22-31.77a2,2,0,0,1,1.61.88C98.94,343.72,88.85,380.83,86,380.83Z" class="cls-2"/><path d="M72.91,418.58c-0.5,0-1-.26-0.82-0.78a86.12,86.12,0,0,0,4.35-27.22c0-2.26.13-11.31-.06-12.72,0.39,0,4.77.88,5.27,2.34,0.2,4.18-1.55,26.55-3.81,33.38,8.42-4.16,19.08-36.83,19.18-39.82,0.39-.17.13-0.15,0.88,0C99.87,373.77,90.92,418.58,72.91,418.58Z" class="cls-2"/><path d="M93.32,435.87a0.25,0.25,0,0,1-.27-0.28c0-1.11,2.3-3,2.3-6.18a1,1,0,0,0-1-1.08c-0.85,0-3.81,1.05-4.85,2.53-0.71,1-1,2.36-1.19,4.71C88,439.29,87,443,86.64,446.67c-0.53,0-1.06.29-1.46,0.29a8.77,8.77,0,0,1-1.09-4.15c-0.12-3.59,1.27-7.58,1.8-11,0.14-.9.47-6.26,1.35-6.26,1,0,1.76,1.78,1.76,2.85a1.42,1.42,0,0,1-.15.65c1.9-1,4.44-3.18,6.88-3.18a2.25,2.25,0,0,1,2,2.45C97.76,433.18,94.14,435.87,93.32,435.87Z" class="cls-2"/><path d="M90.49,453.65c-1.55,0-2.89-.17-4.12-0.17-11.7,0-18.67,1.47-23.23,1.47a19.5,19.5,0,0,0-5.34.62c0.81-.65.31-3.05,1.71-3.17s2.79,0.14,4.18.14c7.3,0,22.26-1.89,24.8-1.89,1.75,0,5.91-.31,5.91.55C94.4,453.2,92.71,453.65,90.49,453.65Z" class="cls-2"/><path d="M92.36,625.09c-1,0-2.28.24-4,.24s-1.61-1.86-1.56-4.3,0.46-24.83-.12-33.67c-0.08,0-10.59,3.27-13.91,2.78,0.45,5.35,3.54,25.35,3.54,29,0,0.61-1.74,1-2.4,1-4.49,0-3.45-3.76-10.21-69.59a14.5,14.5,0,0,1,3-.32c5.11,0,1.42,3.49,5.93,38.14,3.45-.35,12.67-2.84,14.14-3.09,0.08-2.6-.18-15.9.06-18,0.31,0,5.56-1.18,5.56,5.27C92.35,573.77,92.36,622.2,92.36,625.09Z" class="cls-2"/><path d="M79.5,751.33c-9.76,0-13.08-8.53-13.08-20.55,0-8.22-3.82-63-3.82-91.06,0-9.93.23-16.48,1.26-16.48,3.57,0,7.56,2.1,7.56,15.77,0,26,2.21,42.24,2.21,95.19,0,2.21,1.19,13.41,6,13.41,6.11,0,9.52-14.29,9.46-16.48a2,2,0,0,0,1.17.15C90.81,732.87,89.32,751.33,79.5,751.33Z" class="cls-2"/><path d="M78.28,437.81a4.1,4.1,0,0,1-1.45-.21c-0.75,1.39-2,7.43.17,7.43,2.42,0,3.48-2.76,5.39-3.63,0.14,0.56-2.55,5.71-5.86,5.71-1.93,0-3.26-2.2-3.26-5.9,0-7,2.21-14.88,6-14.88,2.89,0,4.05,2.73,4.05,8C83.29,436.81,83,437.81,78.28,437.81Zm1-10.46c-1.7,0-1.9,2.61-2.49,8.64,1.47,0.13,3.05.27,4.1,0.27C80.93,433.49,81.12,427.35,79.32,427.35Z" class="cls-2"/><path d="M68.63,448.28a2.89,2.89,0,0,1-1,.15,1.49,1.49,0,0,1-1.53-1.76c0-1.87,2.39-5.08,2.83-9.19-2.52.33-5.17,0.29-6.14,0.35-1.45,7.54-1.2,11.09-2.59,11.09s-1.93-.95-1.93-2.33c0-4.65,4.67-15.64,4.67-20a2,2,0,0,1,1.68,2.13c0,2.67-1.81,7-1.87,7.38,0.4,0,1.82.09,3.19,0.09s2.72-.21,2.86-0.84c1.19-2.91,1.35-7.24,2-9.35a9.43,9.43,0,0,1,2.2,1.32C73,427.88,70.24,444.46,68.63,448.28Z" class="cls-2"/></g></svg>