<?xml version="1.0" encoding="utf-8"?>
<!-- Generator: Adobe Illustrator 27.1.1, SVG Export Plug-In . SVG Version: 6.00 Build 0)  -->
<svg version="1.1" id="Layer_1" xmlns="http://www.w3.org/2000/svg" xmlns:xlink="http://www.w3.org/1999/xlink" x="0px" y="0px"
	 viewBox="0 0 16.4 36" style="enable-background:new 0 0 16.4 36;" xml:space="preserve">
<style type="text/css">
	.st0{fill:#4A4C4C;}
</style>
<g>
	<path class="st0" d="M1.5,24.4c1.1,0,1.5-0.6,1.5-6.8c0-0.8,0-4.1,0-4.1s1.2-0.3,1.2,3.1S4,23,4,25.7s0.8,5.9,4.2,5.9
		c2.7,0,3.7-2,4.1-3.7c-0.8,1.2-2.4,1.5-3.5,1.5c-1.7,0-2.4-1.5-2.4-2.7c0-3.8,0.8-6.4,0.8-9.3c0-4.7-3-5.5-4.2-5.5
		c2,0,1.9-6.3,5.2-6.3C10.6,5.6,12,8,12,9.5c0.2,0,0.4-0.8,0.4-1.8C12.4,5,11,3,8.2,3C5.4,3.1,4.5,5,3.9,6.9
		C3.4,8.2,3.1,9.4,3.1,9.4c0-2.8-0.1-7.9,3.7-7.9c0.4,0,0.8-0.2,0.8-0.8C7.6,0.4,7.3,0,7,0C1.5,0,0,2.4,0,17.7
		C0,23.9,0.5,24.4,1.5,24.4z"/>
	<path class="st0" d="M16.4,18.2c0,16.2-3.7,17.8-8.2,17.8c-6.6,0-7.7-4.5-7.7-8.6c0-1.3,0.6-1.7,1.1-1.7s1,0,1.3,0.9
		c0.5,2.3,1.1,6.9,5.5,6.9c5,0,5.8-5.6,5.8-8.8c0,1-2,2.7-4.2,2.7c-1.6,0-1.9-1.4-1.9-2.3c0-3.7,1-5.5,1-10.9c0-2.1-1.7-2.8-3-2.8
		c0.8,0,1-3,2.9-3c2.2,0,2.8,2.6,2.8,4.9c0,3.8-0.8,5.7-0.8,8.7c0,1,0.3,2.1,1,2.1c0.9,0,2.2-0.9,2.2-2.1V11.8
		c0-7.5-1-10.4-4.3-10.4c-0.5,0-1-0.1-1-0.9C8.7,0.2,8.9,0,9.3,0C15.1,0,16.4,1.4,16.4,18.2z"/>
</g>
</svg>
