<svg viewBox="0 0 48 48" fill="none" xmlns="http://www.w3.org/2000/svg">
<path fill-rule="evenodd" clip-rule="evenodd" d="M23.3717 5.728L15.4969 10.6497L20.3554 19.3951L22.9779 17.9382L20.5504 13.5687C24.4831 14.862 26.9632 16.4852 28.5042 18.141C30.4182 20.1975 31 22.429 31 24.5C31 26.571 30.4182 28.8025 28.5042 30.859C26.9632 32.5148 24.4831 34.138 20.5504 35.4313L22.9779 31.0618L20.3554 29.6049L15.4969 38.3503L23.3717 43.272L24.9617 40.728L21.1971 38.3752C25.6366 36.9555 28.6849 35.0684 30.7003 32.9029C33.2182 30.1975 34 27.1909 34 24.5C34 21.8091 33.2182 18.8025 30.7003 16.0971C28.6849 13.9316 25.6366 12.0445 21.1971 10.6248L24.9617 8.27199L23.3717 5.728Z" fill="black"/>
</svg>
